<?xml version="1.0" standalone="no"?>
<!DOCTYPE svg PUBLIC "-//W3C//DTD SVG 1.1//EN" "http://www.w3.org/Graphics/SVG/1.1/DTD/svg11.dtd" >
<svg>
<metadata>
Created by FontForge 20090622 at Sun Jun 18 19:21:27 2017
 By deploy user
Copyright (c) 2010 by Miles Newlyn. All rights reserved. wf-rip
</metadata>
<defs>
<font id="Rubrik-Medium" horiz-adv-x="603" >
  <font-face 
    font-family="Rubrik Medium"
    font-weight="500"
    font-stretch="normal"
    units-per-em="1000"
    panose-1="2 0 5 3 0 0 0 2 0 4"
    ascent="750"
    descent="-250"
    x-height="521"
    cap-height="706"
    bbox="-33.2667 -285 1111.5 988"
    underline-thickness="70"
    underline-position="-30"
    unicode-range="U+0020-U+FB02"
  />
<missing-glyph horiz-adv-x="301" 
 />
    <glyph glyph-name="fi" unicode="fi" horiz-adv-x="691" 
d="M30 464q0 21 14 34.5t35 13.5h30v37q0 82 44 127.5t123 45.5q56 0 94 -11q41 -12 41 -50q0 -19 -13.5 -33t-36.5 -14q-10 0 -35.5 4.5t-42.5 4.5q-68 0 -68 -79v-32h128q21 0 35.5 -13.5t14.5 -33.5t-14.5 -33.5t-35.5 -13.5h-128v-367q0 -23 -15.5 -39t-37.5 -16
t-37.5 16t-15.5 39v367h-30q-20 0 -34.5 13.5t-14.5 32.5zM491 662q0 25 17 42t43 17q25 0 42 -17t17 -42t-17 -43t-42 -18q-26 0 -43 18t-17 43zM498 50v428q0 23 15.5 38.5t37.5 15.5t37.5 -16t15.5 -38v-428q0 -23 -15.5 -38.5t-37.5 -15.5q-21 0 -37 16t-16 38z" />
    <glyph glyph-name="fl" unicode="fl" horiz-adv-x="691" 
d="M30 464q0 21 14 34.5t35 13.5h30v37q0 82 44 127.5t123 45.5q56 0 94 -11q41 -12 41 -50q0 -19 -13.5 -33t-36.5 -14q-10 0 -35.5 4.5t-42.5 4.5q-68 0 -68 -79v-32h128q21 0 35.5 -13.5t14.5 -33.5t-14.5 -33.5t-35.5 -13.5h-128v-367q0 -23 -15.5 -39t-37.5 -16
t-37.5 16t-15.5 39v367h-30q-20 0 -34.5 13.5t-14.5 32.5zM503 50v609q0 23 15.5 38.5t37.5 15.5t37.5 -16t15.5 -38v-609q0 -23 -15 -38.5t-38 -15.5q-21 0 -37 16t-16 38z" />
    <glyph glyph-name=".notdef" horiz-adv-x="301" 
 />
    <glyph glyph-name="NULL" horiz-adv-x="0" 
 />
    <glyph glyph-name="nonmarkingreturn" horiz-adv-x="333" 
 />
    <glyph glyph-name="space" unicode=" " horiz-adv-x="280" 
 />
    <glyph glyph-name="exclam" unicode="!" horiz-adv-x="227" 
d="M61 649q-1 22 14.5 38t37.5 16q23 0 38.5 -16t14.5 -38l-6 -374q-1 -20 -14.5 -33t-32.5 -13t-32.5 13.5t-13.5 32.5zM63 40v50q0 20 14.5 34.5t35.5 14.5q22 0 36.5 -14.5t14.5 -34.5v-50q0 -20 -14.5 -34t-36.5 -14q-21 0 -35.5 14t-14.5 34z" />
    <glyph glyph-name="quotedbl" unicode="&#x22;" horiz-adv-x="369" 
d="M59 511v144q0 20 14 34t35 14t35 -14t14 -34v-144q0 -20 -14 -34.5t-35 -14.5t-35 14.5t-14 34.5zM212 511v144q0 20 14 34t35 14t35 -13.5t14 -34.5v-144q0 -21 -14 -35t-35 -14t-35 14.5t-14 34.5z" />
    <glyph glyph-name="numbersign" unicode="#" horiz-adv-x="673" 
d="M38 241q0 19 15 32.5t36 13.5h75l43 138h-44q-22 0 -36.5 13.5t-14.5 33.5t15 33.5t36 13.5h76l49 149q13 39 48 39q26 0 38 -20t4 -45l-39 -123h103l49 149q13 39 48 39q26 0 38 -20t4 -45l-40 -123h43q21 0 36 -13.5t15 -33.5t-15 -33.5t-36 -13.5h-75l-44 -138h45
q21 0 36 -13.5t15 -32.5q0 -20 -15 -33.5t-36 -13.5h-77l-54 -168q-10 -33 -45 -33q-26 0 -38.5 20.5t-4.5 44.5l44 136h-105l-54 -168q-10 -33 -45 -33q-26 0 -38.5 20.5t-4.5 44.5l44 136h-44q-21 0 -35.5 13.5t-14.5 33.5zM262 287h105l43 138h-104z" />
    <glyph glyph-name="dollar" unicode="$" horiz-adv-x="610" 
d="M56 135q0 21 16 36t38 15q19 0 39 -15q71 -55 164 -55q63 0 97.5 23.5t34.5 68.5q0 39 -34.5 59.5t-126.5 40.5q-116 25 -167.5 68t-51.5 124q0 74 53 124.5t139 61.5v53q0 20 14 35t33 15q20 0 33.5 -14.5t13.5 -35.5v-52q91 -10 143 -54q19 -15 19 -38t-14 -39t-36 -16
q-18 0 -40 14q-55 35 -123 35q-66 0 -95.5 -25.5t-29.5 -60.5q0 -43 30.5 -61t107.5 -34q130 -28 185.5 -73t55.5 -127q0 -78 -56 -132t-147 -61v-54q0 -21 -13.5 -35.5t-33.5 -14.5q-19 0 -33 15t-14 35v56q-104 14 -173 67q-28 22 -28 51z" />
    <glyph glyph-name="percent" unicode="%" horiz-adv-x="792" 
d="M35 506q-1 27 0 52q2 63 47 107t109 44q63 0 107 -44t47 -107q1 -26 0 -52q-4 -64 -48 -107.5t-106 -43.5q-64 0 -108.5 43.5t-47.5 107.5zM122 509q2 -30 21 -49t47 -19q29 0 47.5 19t20.5 49q2 22 0 46q-2 30 -20.5 49t-47.5 19q-28 0 -46.5 -19t-21.5 -49
q-2 -23 0 -46zM162.5 132.5q-1.5 21.5 10.5 34.5l381 436q12 15 33 16t34 -11q15 -12 16 -32.5t-11 -34.5l-381 -436q-12 -15 -32.5 -17t-34.5 11q-14 12 -15.5 33.5zM446 141q-1 27 0 52q2 63 47 107.5t109 44.5q63 0 107 -44t47 -108q1 -26 0 -51q-4 -64 -47.5 -108
t-106.5 -44q-64 0 -108.5 44t-47.5 107zM534 144q2 -29 20.5 -48t46.5 -19q29 0 47.5 19t20.5 49q3 21 0 46q-2 29 -20.5 48.5t-47.5 19.5q-28 0 -46.5 -19.5t-20.5 -48.5q-3 -23 0 -47z" />
    <glyph glyph-name="ampersand" unicode="&#x26;" horiz-adv-x="704" 
d="M46 193q0 120 127 174q-86 65 -86 155q0 81 61.5 132t160.5 51q103 0 164 -51t61 -129q0 -83 -53 -129t-176 -78q-86 -20 -118.5 -47.5t-32.5 -72.5q0 -48 41 -77t115 -29q80 0 128 42t51 110q5 81 74 81h75q23 0 39 -15.5t16 -37.5t-16 -37.5t-38 -15.5h-57
q-11 -107 -85.5 -167.5t-184.5 -60.5q-127 0 -196.5 56.5t-69.5 145.5zM195 513q0 -59 81 -103q88 17 119 39t31 67q0 37 -29 63t-87 26q-56 0 -85.5 -26t-29.5 -66z" />
    <glyph glyph-name="quotesingle" unicode="'" horiz-adv-x="216" 
d="M59 511v144q0 20 14 34t35 14t35 -14t14 -34v-144q0 -20 -14 -34.5t-35 -14.5t-35 14.5t-14 34.5z" />
    <glyph glyph-name="parenleft" unicode="(" horiz-adv-x="356" 
d="M67 309q0 131 50.5 254t149.5 216q20 17 42 12.5t34 -22.5q11 -17 8.5 -35t-16.5 -32q-163 -155 -163 -393t163 -393q14 -14 16.5 -32t-8.5 -35q-12 -18 -34 -22.5t-42 12.5q-99 93 -149.5 216t-50.5 254z" />
    <glyph glyph-name="parenright" unicode=")" horiz-adv-x="356" 
d="M4.5 -116q2.5 18 16.5 32q163 157 163 393t-163 393q-14 14 -16.5 32t7.5 35q13 19 35 23t42 -13q98 -93 148.5 -216t50.5 -254t-50.5 -254t-148.5 -216q-20 -17 -42 -13t-35 23q-10 17 -7.5 35z" />
    <glyph glyph-name="asterisk" unicode="*" horiz-adv-x="402" 
d="M40 474.5q6 16.5 25 24.5l75 34l-75 34q-19 8 -25 24.5t2 32.5t25 19.5t35 -7.5l68 -47l-7 79q-1 21 10.5 33.5t27.5 12.5t27.5 -12.5t10.5 -33.5l-7 -79l68 47q18 11 35 7.5t25 -19.5t2 -32.5t-25 -24.5l-75 -34l75 -34q19 -8 25 -24.5t-2 -32.5t-25 -19.5t-35 7.5
l-68 47l7 -79q1 -21 -10.5 -33.5t-27.5 -12.5t-27.5 12.5t-10.5 33.5l7 79l-68 -47q-18 -11 -35 -7.5t-25 19.5t-2 32.5z" />
    <glyph glyph-name="plus" unicode="+" horiz-adv-x="628" 
d="M60 350q0 22 15 36.5t37 14.5h152v152q0 22 15 37t36 15q22 0 36.5 -15t14.5 -37v-152h150q22 0 37 -14.5t15 -36.5q0 -21 -15.5 -36t-36.5 -15h-150v-152q0 -22 -14.5 -37t-36.5 -15q-21 0 -36 15.5t-15 36.5v152h-152q-22 0 -37 15t-15 36z" />
    <glyph glyph-name="comma" unicode="," horiz-adv-x="223" 
d="M38 -57q0 11 11.5 36t11.5 57v57q0 20 14.5 34.5t36.5 14.5q20 0 35 -14.5t15 -34.5v-35q0 -78 -27 -126q-19 -33 -52 -33q-20 0 -32.5 13.5t-12.5 30.5z" />
    <glyph glyph-name="hyphen" unicode="-" horiz-adv-x="333" 
d="M44 287q0 22 16 37.5t38 15.5h137q23 0 38.5 -15.5t15.5 -37.5t-16 -37.5t-38 -15.5h-137q-23 0 -38.5 15.5t-15.5 37.5z" />
    <glyph glyph-name="period" unicode="." horiz-adv-x="271" 
d="M61 42v53q0 22 14 37t36 15q21 0 36 -15t15 -37v-53q0 -22 -14.5 -36.5t-36.5 -14.5q-21 0 -35.5 14.5t-14.5 36.5z" />
    <glyph glyph-name="slash" unicode="/" horiz-adv-x="366" 
d="M4 -1q-8 20 0 41l262 658q8 21 28 30t40 1t28.5 -28t-0.5 -41l-261 -659q-9 -21 -29 -29.5t-40 -0.5t-28 28z" />
    <glyph glyph-name="zero" unicode="0" horiz-adv-x="705" 
d="M82 259q-7 94 0 187q8 120 81 192.5t189 72.5q115 0 189 -73t82 -192q7 -94 0 -187q-8 -119 -82 -193t-189 -74t-188.5 74t-81.5 193zM189 270q6 -82 49 -129t114 -47q72 0 115 47t49 129q4 67 0 166q-4 81 -48 127t-116 46t-115.5 -46t-47.5 -127q-4 -99 0 -166z" />
    <glyph glyph-name="one" unicode="1" horiz-adv-x="483" 
d="M49 553.5q6 21.5 26 32.5l189 106q14 8 29 8q24 0 38.5 -16t14.5 -37v-597q0 -23 -15.5 -38.5t-37.5 -15.5t-37.5 16t-15.5 38v507l-114 -64q-19 -11 -40.5 -5.5t-32.5 25.5q-10 19 -4 40.5z" />
    <glyph glyph-name="two" unicode="2" horiz-adv-x="597" 
d="M55 70q0 66 38 121.5t120 112.5q126 88 161 122t35 82q0 40 -29.5 69.5t-92.5 29.5q-82 0 -134 -63q-16 -18 -29 -22q-21 -7 -41 3t-26 30q-8 25 6 47q33 45 89.5 76t131.5 31q110 0 171.5 -56.5t61.5 -142.5q0 -71 -41.5 -123.5t-162.5 -137.5q-93 -68 -115 -91
q-27 -28 -29 -52h310q22 0 38 -15.5t16 -37.5q0 -23 -15.5 -38t-38.5 -15h-353q-31 0 -51 19t-20 51z" />
    <glyph glyph-name="three" unicode="3" horiz-adv-x="599" 
d="M39 647q0 22 15.5 37.5t38.5 15.5h316q31 0 52.5 -18.5t21.5 -47.5q0 -28 -19 -49l-138 -143q85 0 139.5 -52t54.5 -133q0 -129 -118.5 -198.5t-308.5 -61.5q-23 1 -37.5 15t-15.5 35q-2 24 15.5 40.5t44.5 14.5q137 -9 225.5 31.5t88.5 121.5q0 47 -31.5 74.5
t-84.5 27.5q-20 0 -46 -5.5t-33 -5.5q-20 0 -35 14t-15 35q0 22 18 39l155 160h-249q-22 0 -38 15.5t-16 37.5z" />
    <glyph glyph-name="four" unicode="4" horiz-adv-x="669" 
d="M53 236q0 31 28 68l254 332q48 64 93 64q43 0 60 -27.5t17 -61.5v-344h66q22 0 37 -14t15 -37q0 -20 -16 -36t-36 -16h-66v-111q0 -22 -15 -38t-36 -16q-22 0 -37 15.5t-15 38.5v111h-267q-38 0 -60 22.5t-22 49.5zM174 267h228v296z" />
    <glyph glyph-name="five" unicode="5" horiz-adv-x="614" 
d="M69 46q-1 25 15 39.5t40 14.5q152 0 238.5 42t86.5 127q0 46 -34.5 74t-89.5 28q-63 0 -150 -39q-39 -15 -62.5 2t-23.5 49v239q0 40 23 59t57 19h293q23 0 38 -15t15 -37t-16 -38t-37 -16h-271v-156q74 34 148 34q99 0 157.5 -56t58.5 -143q0 -133 -117 -205t-313 -72
q-23 0 -39 14t-17 36z" />
    <glyph glyph-name="six" unicode="6" horiz-adv-x="675" 
d="M81 365q9 167 95 257.5t237 90.5q53 0 101 -10q45 -10 45 -51q0 -22 -14 -36t-39 -14q-4 0 -36.5 4.5t-64.5 4.5q-81 0 -140.5 -52t-71.5 -144q82 39 172 39q112 0 177 -60.5t65 -160.5q0 -104 -68 -173.5t-192 -69.5q-78 0 -133 28.5t-85 80.5t-41.5 118t-6.5 148z
M186 311q-4 -107 38.5 -163t125.5 -56q74 0 112 38.5t38 99.5t-39.5 93t-110.5 32q-80 0 -164 -44z" />
    <glyph glyph-name="seven" unicode="7" horiz-adv-x="535" 
d="M30 648q0 23 15.5 37.5t38.5 14.5h360q32 0 52 -18.5t20 -48.5q0 -19 -14 -44q-133 -218 -188.5 -327.5t-83.5 -224.5q-8 -29 -34.5 -38t-43.5 4q-33 19 -22 67q30 108 87.5 223t170.5 303h-304q-23 0 -38.5 15t-15.5 37z" />
    <glyph glyph-name="eight" unicode="8" horiz-adv-x="688" 
d="M74 194q0 65 31.5 108.5t86.5 63.5q-102 36 -102 155q0 91 67 141.5t186 50.5q120 0 187 -50.5t67 -138.5q0 -112 -100 -157q55 -20 86.5 -64t31.5 -109q0 -92 -70.5 -148t-200.5 -56t-200 56t-70 148zM181 200q0 -50 40 -79t122 -29q83 0 124.5 30t41.5 78q0 51 -44 82
t-124 31q-79 0 -119.5 -30.5t-40.5 -82.5zM196 518q0 -48 39.5 -75.5t108.5 -27.5t108 28t39 76q0 93 -147 93q-148 0 -148 -94z" />
    <glyph glyph-name="nine" unicode="9" horiz-adv-x="671" 
d="M69 469q0 106 68 174t190 68q279 0 264 -355q-8 -195 -109.5 -278t-313.5 -83q-25 0 -41 14t-16 38q0 21 14.5 37.5t39.5 16.5q49 0 83.5 2.5t76 12.5t69.5 28.5t50.5 52.5t31.5 81q-83 -36 -163 -36q-114 0 -179 62t-65 165zM175 471q0 -62 37.5 -95.5t107.5 -33.5
q34 0 65.5 6.5t50 14t49.5 22.5q3 114 -33 168t-126 54q-75 0 -113 -36.5t-38 -99.5z" />
    <glyph glyph-name="colon" unicode=":" horiz-adv-x="270" 
d="M85 41v53q0 22 14 37t36 15q21 0 36 -15t15 -37v-53q0 -22 -14.5 -36.5t-36.5 -14.5q-21 0 -35.5 15t-14.5 36zM85 397v53q0 22 14 37t36 15q21 0 36 -15t15 -37v-53q0 -22 -14.5 -36.5t-36.5 -14.5q-21 0 -35.5 15t-14.5 36z" />
    <glyph glyph-name="semicolon" unicode=";" horiz-adv-x="270" 
d="M78 -47q0 2 11 28t11 55v57q0 21 14 35t36 14q20 0 34.5 -14.5t14.5 -34.5v-49q-1 -52 -20 -98.5t-58 -46.5q-17 0 -28.5 10.5t-14.5 25.5v18zM100 397v53q0 22 14 37t36 15q21 0 36 -15t15 -37v-53q0 -22 -14.5 -36.5t-36.5 -14.5q-20 0 -35 15t-15 36z" />
    <glyph glyph-name="less" unicode="&#x3c;" horiz-adv-x="628" 
d="M105 350q0 42 46 81l267 216q17 14 37.5 12.5t34.5 -18.5t12 -38t-19 -34l-255 -205q-9 -7 -9 -14t9 -14l255 -205q17 -13 19 -34t-12 -38t-34.5 -18.5t-37.5 12.5l-267 216q-46 39 -46 81z" />
    <glyph glyph-name="equal" unicode="=" horiz-adv-x="628" 
d="M67 253q0 22 15 36.5t37 14.5h390q22 0 37 -14.5t15 -36.5q0 -20 -15.5 -35.5t-36.5 -15.5h-390q-21 0 -36.5 15t-15.5 36zM67 448q0 22 15 36.5t37 14.5h390q22 0 37 -14.5t15 -36.5q0 -21 -15.5 -36t-36.5 -15h-390q-22 0 -37 15t-15 36z" />
    <glyph glyph-name="greater" unicode="&#x3e;" horiz-adv-x="628" 
d="M126 97q2 21 19 34l255 205q9 7 9 14t-9 14l-255 205q-17 13 -19 34t12 38t34.5 18.5t37.5 -12.5l267 -216q46 -39 46 -81t-46 -81l-267 -216q-17 -14 -37.5 -12.5t-34.5 18.5t-12 38z" />
    <glyph glyph-name="question" unicode="?" horiz-adv-x="555" 
d="M50 577q0 17 15 36q80 100 215 100q95 0 154.5 -55.5t59.5 -141.5q0 -92 -50 -149t-162 -109q-19 -8 -36 -8q-19 0 -34 13.5t-15 33.5q0 34 36 51q86 38 121 72t35 89q0 44 -29.5 72.5t-79.5 28.5q-43 0 -74 -15.5t-60 -50.5q-21 -21 -43 -21t-37.5 16.5t-15.5 37.5z
M200 41v50q0 20 14.5 34t35.5 14t36 -14t15 -34v-50q0 -20 -15 -34.5t-36 -14.5t-35.5 14.5t-14.5 34.5z" />
    <glyph glyph-name="at" unicode="@" horiz-adv-x="876" 
d="M65 168q-7 115 0 201q9 149 115.5 244.5t258.5 95.5q156 0 265.5 -99.5t109.5 -256.5v-154q0 -60 -40 -99t-95 -39q-61 0 -101.5 40.5t-40.5 96.5v103q0 41 -27.5 69.5t-68.5 28.5t-68.5 -28.5t-27.5 -69.5v-65q0 -54 38.5 -76t84.5 -7q19 5 34 -4.5t19 -26.5
q4 -18 -5 -33t-26 -20q-24 -9 -59 -9q-78 0 -127.5 46.5t-49.5 126.5v77q0 76 53.5 127.5t131.5 51.5q79 0 133.5 -51.5t55.5 -128.5v-114q0 -20 13.5 -34t32.5 -14t32 14t13 34v149q0 122 -82.5 197.5t-197.5 75.5q-113 0 -190 -72t-87 -184q-7 -87 1 -186q9 -114 84 -177
t180 -63q59 0 118 24q39 14 61 -17q10 -15 6 -34.5t-22 -30.5q-62 -36 -161 -36q-141 0 -247 85t-117 242z" />
    <glyph glyph-name="A" unicode="A" horiz-adv-x="683" 
d="M26 72l200 556q30 86 116 86q85 0 116 -86l199 -556q3 -9 3 -18q0 -11 -4 -23q-8 -21 -29 -29q-10 -4 -20 -4l-22 5q-21 9 -28 30l-66 187h-300l-66 -188q-9 -20 -29 -29q-11 -5 -21 -5t-19 4q-22 8 -30 28q-4 11 -4 22q0 10 4 20zM225 318h232l-95 271q-5 15 -20 15
q-16 0 -21 -15z" />
    <glyph glyph-name="B" unicode="B" horiz-adv-x="670" 
d="M91 82v539q0 35 22 58.5t61 23.5h223q95 0 148.5 -52.5t53.5 -130.5q0 -116 -91 -154v-1q52 -15 81.5 -58t29.5 -105q0 -101 -59.5 -151.5t-155.5 -50.5h-230q-39 0 -61 23.5t-22 58.5zM198 102h193q119 0 119 107q0 49 -30.5 77t-81.5 28h-200v-212zM198 409h186
q108 0 108 97q0 96 -108 96h-186v-193z" />
    <glyph glyph-name="C" unicode="C" horiz-adv-x="666" 
d="M64 271q-4 40 -4 80t4 80q9 121 89.5 201.5t201.5 80.5q86 0 157 -44t101 -119q6 -12 6 -27q0 -21 -16.5 -35.5t-35.5 -14.5q-31 0 -49 32q-22 49 -65.5 77.5t-97.5 28.5q-78 0 -127.5 -53.5t-56.5 -136.5q-3 -35 -3 -70.5t3 -71.5q7 -84 56 -135.5t128 -51.5
q54 0 97.5 28.5t65.5 76.5q18 32 49 32q19 0 35.5 -14.5t16.5 -35.5q0 -14 -6 -27q-30 -75 -101 -119t-156 -44q-122 0 -202.5 80t-89.5 202z" />
    <glyph glyph-name="D" unicode="D" horiz-adv-x="718" 
d="M91 82v540q0 36 21.5 58.5t60.5 22.5h161q151 0 232 -80t89 -215q2 -30 2 -62q0 -23 -1 -47q-9 -136 -89.5 -217.5t-232.5 -81.5h-161q-39 0 -60.5 23t-21.5 59zM199 106h136q103 0 155.5 52t57.5 145q2 33 2 59q0 20 -1 35q-11 200 -214 200h-136v-491z" />
    <glyph glyph-name="E" unicode="E" horiz-adv-x="627" 
d="M91 82v540q0 35 22 58t61 23h335q23 0 39 -15t16 -37t-16.5 -38t-38.5 -16h-310v-193h302q21 0 35.5 -14t14.5 -36q0 -20 -15.5 -35t-34.5 -15h-302v-198h313q21 0 37.5 -16t16.5 -37q0 -22 -15.5 -37.5t-38.5 -15.5h-338q-39 0 -61 23.5t-22 58.5z" />
    <glyph glyph-name="F" unicode="F" horiz-adv-x="599" 
d="M91 51v571q0 35 22 58t61 23h331q23 0 39.5 -15t16.5 -37t-16.5 -38t-39.5 -16h-306v-208h291q22 0 37.5 -15.5t15.5 -37.5q0 -21 -16 -36.5t-37 -15.5h-291v-233q0 -23 -16 -39t-39 -16q-22 0 -37.5 16.5t-15.5 38.5z" />
    <glyph glyph-name="G" unicode="G" horiz-adv-x="700" 
d="M64 271q-4 41 -4 80.5t4 79.5q9 120 92 201t205 81q85 0 151 -39.5t102 -109.5q8 -13 8 -29q0 -20 -15.5 -35.5t-36.5 -15.5q-28 0 -45 27q-53 100 -163 100q-80 0 -131.5 -52.5t-59.5 -137.5q-3 -37 -3 -72.5t3 -70.5q8 -83 60 -134.5t133 -51.5q77 0 123.5 40t46.5 100
v48h-120q-22 0 -37 15.5t-15 36.5q0 22 15 36.5t37 14.5h145q38 0 59 -22.5t21 -56.5v-61q0 -107 -78.5 -180.5t-199.5 -73.5q-122 0 -205 80.5t-92 201.5z" />
    <glyph glyph-name="H" unicode="H" horiz-adv-x="752" 
d="M91 51v600q0 23 16 39t38 16q23 0 38.5 -16t15.5 -39v-249h355v249q0 22 16 38.5t38 16.5q23 0 38.5 -16t15.5 -39v-600q0 -23 -15.5 -39t-38.5 -16q-22 0 -38 16.5t-16 38.5v248h-355v-248q0 -23 -15.5 -39t-38.5 -16q-22 0 -38 16.5t-16 38.5z" />
    <glyph glyph-name="I" unicode="I" horiz-adv-x="288" 
d="M90 51v600q0 22 16 38.5t38 16.5q23 0 38.5 -16t15.5 -39v-600q0 -23 -15.5 -39t-38.5 -16q-22 0 -38 16.5t-16 38.5z" />
    <glyph glyph-name="J" unicode="J" horiz-adv-x="530" 
d="M32 131q0 21 14.5 36.5t35.5 15.5q31 0 49 -29q34 -62 100 -62q45 0 75.5 31.5t30.5 90.5v437q0 22 16 38.5t38 16.5q23 0 38.5 -16t15.5 -39v-438q0 -98 -62.5 -161t-152.5 -63q-64 0 -115.5 32t-76.5 84q-6 16 -6 26z" />
    <glyph glyph-name="K" unicode="K" horiz-adv-x="642" 
d="M91 51v600q0 22 16 38.5t38 16.5q23 0 38.5 -16t15.5 -39v-244h6q31 0 55 23l261 258q16 18 39 18t37 -16q15 -16 15 -36q0 -21 -15 -36l-268 -259l271 -270q16 -18 16 -39q0 -20 -15 -37t-37 -17h-2q-22 0 -37 18l-265 265q-22 23 -55 23h-6v-251q0 -23 -15.5 -39
t-38.5 -16q-22 0 -38 16.5t-16 38.5z" />
    <glyph glyph-name="L" unicode="L" horiz-adv-x="561" 
d="M91 72v579q0 22 16 38.5t38 16.5q23 0 38.5 -16t15.5 -39v-545h303q21 0 37.5 -16t16.5 -37q0 -22 -15.5 -37.5t-38.5 -15.5h-339q-34 0 -53 20.5t-19 51.5z" />
    <glyph glyph-name="M" unicode="M" horiz-adv-x="937" 
d="M62 63l79 549q7 48 34.5 72.5t67.5 24.5t68.5 -23t38.5 -69l110 -494q2 -9 10 -9q7 0 9 9l108 494q10 46 37.5 69t67.5 23q41 0 68.5 -24.5t34.5 -72.5l80 -549q1 -7 1 -14q0 -43 -39 -53q-8 -2 -16 -2q-15 0 -29 8q-20 12 -24 36l-71 550q-1 9 -9 9q-7 0 -9 -8
l-114 -503q-10 -43 -35.5 -65.5t-61.5 -22.5t-61 22.5t-35 65.5l-115 502q-2 9 -9 9t-9 -9l-70 -550q-3 -24 -23 -36q-14 -8 -30 -8q-8 0 -16 2q-39 10 -39 53q0 7 1 14z" />
    <glyph glyph-name="N" unicode="N" horiz-adv-x="768" 
d="M91 50v565q0 38 23.5 64t61.5 26q55 0 84 -48l312 -521h2q0 12 -1.5 41t-2 58t-0.5 57v359q0 23 16 39t38 16t37.5 -16t15.5 -39v-566q0 -37 -23 -62.5t-60 -25.5q-54 0 -82 46l-315 528h-3q0 -13 1.5 -44.5t2 -61t0.5 -55.5v-360q0 -23 -15.5 -39t-38.5 -16
q-22 0 -37.5 16.5t-15.5 38.5z" />
    <glyph glyph-name="O" unicode="O" horiz-adv-x="731" 
d="M64 271q-4 40 -4 80t4 80q9 120 94 201t207 81t208 -81.5t94 -200.5q4 -40 4 -80t-4 -80q-8 -120 -94 -201t-208 -81t-207 80.5t-94 201.5zM171 280q7 -82 60.5 -135t133.5 -53t134 53t61 135q3 36 3 72t-3 71q-7 82 -61.5 135t-133.5 53t-133 -53t-61 -135
q-3 -35 -3 -71t3 -72z" />
    <glyph glyph-name="P" unicode="P" horiz-adv-x="646" 
d="M91 51v575q0 34 20.5 55.5t57.5 21.5h201q99 0 167 -63.5t68 -168.5q0 -108 -67.5 -171t-175.5 -63h-164v-186q0 -22 -16 -38.5t-38 -16.5t-37.5 16.5t-15.5 38.5zM198 343h162q137 0 137 127q0 59 -33.5 93t-99.5 34h-166v-254z" />
    <glyph glyph-name="Q" unicode="Q" horiz-adv-x="732" 
d="M64 271q-4 41 -4 80.5t4 79.5q9 120 94 201t207 81t208 -81.5t94 -200.5q4 -40 4 -80t-4 -80q-9 -119 -91 -198l86 -106q11 -13 11 -30q0 -4 -1 -7q-2 -21 -16 -32q-15 -13 -34 -13h-3q-21 1 -35 18l-92 113q-60 -27 -127 -27q-122 0 -207 80.5t-94 201.5zM171 280
q7 -82 60.5 -135t133.5 -53q30 0 59 8l-81 102q-11 13 -11 31q0 25 16 37q15 14 35 14h3q22 -1 36 -19l87 -109q45 50 51 124q3 36 3 72t-3 71q-7 82 -61.5 135t-133.5 53t-133 -53t-61 -135q-3 -35 -3 -71t3 -72z" />
    <glyph glyph-name="R" unicode="R" horiz-adv-x="678" 
d="M91 51v574q0 34 20.5 56t57.5 22h204q100 0 166.5 -58.5t66.5 -162.5q0 -85 -42 -134t-113 -64l162 -198q13 -15 13 -36q0 -25 -16 -40q-17 -15 -37 -15h-3q-22 1 -37 18l-175 216q-14 17 -25.5 24.5t-30.5 7.5h-104v-210q0 -23 -16 -39.5t-38 -16.5t-37.5 16.5
t-15.5 39.5zM198 363h163q137 0 137 118t-132 118h-168v-236z" />
    <glyph glyph-name="S" unicode="S" horiz-adv-x="627" 
d="M53 109q0 24 16 39.5t39 15.5q19 0 39 -15q80 -57 181 -57q70 0 109.5 29t39.5 79q0 42 -38 64t-132 41q-125 24 -181.5 71t-56.5 132q0 93 69 149t178 56q140 0 208 -58q17 -16 17 -42q0 -21 -14 -35.5t-35 -14.5q-16 0 -40 12q-64 36 -136 36q-71 0 -105 -29t-34 -73
q0 -41 34.5 -63.5t124.5 -39.5q134 -25 191.5 -72t57.5 -134q0 -93 -70.5 -152t-191.5 -59q-143 0 -242 73q-28 20 -28 47z" />
    <glyph glyph-name="T" unicode="T" horiz-adv-x="609" 
d="M15 650q0 23 16 38t39 15h469q23 0 39 -15t16 -38q0 -22 -16.5 -37.5t-38.5 -15.5h-180v-546q0 -23 -15.5 -39t-38.5 -16q-22 0 -38 16.5t-16 38.5v546h-181q-23 0 -39 15.5t-16 37.5z" />
    <glyph glyph-name="U" unicode="U" horiz-adv-x="748" 
d="M82 292v359q0 22 16.5 38.5t38.5 16.5t37.5 -16t15.5 -39v-362q0 -90 51.5 -143.5t132.5 -53.5t132 53.5t51 143.5v362q0 23 16 39t38 16q23 0 38.5 -16t15.5 -39v-359q0 -134 -82.5 -218.5t-208.5 -84.5t-209 84.5t-83 218.5z" />
    <glyph glyph-name="V" unicode="V" horiz-adv-x="673" 
d="M25 631q-4 10 -4 19q-1 12 5 24q10 22 31 28q9 4 19 4q12 0 22 -6q20 -10 28 -31l200 -560q4 -9 11 -9t11 9l199 558q8 23 28 33q12 6 24 6q8 0 17 -3q20 -7 30 -29q5 -12 6 -23q0 -10 -4 -20l-204 -555q-33 -87 -108 -87q-76 0 -107 87z" />
    <glyph glyph-name="W" unicode="W" horiz-adv-x="938" 
d="M37 638q-2 7 -2 14q0 14 7 26q10 20 32 26q8 2 15 2q14 0 27 -8q20 -12 25 -32l110 -568q1 -2 3 -2t3 2l129 527q9 39 34 59.5t56 20.5q29 0 54.5 -21t34.5 -59l129 -527q1 -3 3 -3t3 3l111 563q5 25 25 37q13 8 28 8q7 0 15 -2q23 -6 33 -26q6 -13 6 -26q0 -7 -2 -14
l-132 -572q-8 -36 -32.5 -56.5t-54.5 -20.5t-55 20.5t-34 55.5l-130 523q-1 2 -2.5 2t-2.5 -2l-130 -522q-9 -36 -33.5 -56.5t-55.5 -20.5q-32 0 -57.5 20.5t-33.5 57.5z" />
    <glyph glyph-name="X" unicode="X" horiz-adv-x="653" 
d="M34 45q0 3 -1 6q0 18 13 35l209 263l-208 266q-12 14 -12 35v6q2 24 21 38q16 12 33 12q4 0 8 -1q22 -3 36 -21l193 -247l195 247q15 20 38 22h6q19 0 35 -13q18 -15 20 -37q0 -3 1 -6q0 -19 -13 -36l-211 -265l207 -262q14 -17 14 -37v-5q-2 -23 -23 -38
q-15 -10 -32 -10q-5 1 -9 1q-22 4 -36 20l-192 243l-193 -244q-13 -17 -38 -20q-4 -1 -9 -1q-19 0 -32 12q-18 15 -20 37z" />
    <glyph glyph-name="Y" unicode="Y" horiz-adv-x="653" 
d="M14 656q2 23 19 37q15 13 34 13h7q23 -3 37 -20l215 -270l216 269q14 18 37 21h7q19 0 33 -12q17 -14 19 -37q1 -3 1 -6q0 -20 -13 -35l-219 -267q-2 -3 -6.5 -8t-6 -7.5t-4.5 -6.5t-4.5 -7t-3 -7.5t-2 -9.5t-0.5 -11v-241q0 -23 -15.5 -39t-38.5 -16q-22 0 -38 16.5
t-16 38.5v241q0 7 -1.5 13t-2 9.5t-4.5 9.5l-5 8q-1 1 -7.5 9t-7.5 9l-217 266q-13 16 -13 35v5z" />
    <glyph glyph-name="Z" unicode="Z" horiz-adv-x="589" 
d="M44 76q0 31 24 62l341 459h-306q-23 0 -39 15.5t-16 37.5q0 23 16 38t39 15h350q39 0 61.5 -21.5t22.5 -53.5q0 -29 -28 -67l-337 -455h329q23 0 39 -15.5t16 -37.5t-16 -37.5t-39 -15.5h-371q-40 0 -63 21.5t-23 54.5z" />
    <glyph glyph-name="bracketleft" unicode="[" horiz-adv-x="373" 
d="M74 -106v830q0 30 18 49.5t51 19.5h169q23 0 38.5 -14.5t15.5 -37.5q0 -22 -16 -37.5t-38 -15.5h-132v-759h132q22 0 38 -15t16 -37t-15.5 -37t-38.5 -15h-169q-32 0 -50.5 19t-18.5 50z" />
    <glyph glyph-name="backslash" unicode="\" horiz-adv-x="374" 
d="M-6 691q-8 20 1 41t29 29t40.5 -1t28.5 -30l287 -718q8 -22 -0.5 -42.5t-29.5 -28.5q-20 -8 -40.5 1t-28.5 31z" />
    <glyph glyph-name="bracketright" unicode="]" horiz-adv-x="373" 
d="M7 -123q0 22 16 37t38 15h132v759h-132q-22 0 -38 15t-16 37q0 23 15.5 37.5t38.5 14.5h169q33 0 51 -19t18 -50v-830q0 -31 -18.5 -50t-50.5 -19h-169q-23 0 -38.5 15.5t-15.5 37.5z" />
    <glyph glyph-name="asciicircum" unicode="^" horiz-adv-x="573" 
d="M101 397l90 232q30 76 95 76q66 0 96 -76l89 -232q7 -18 -1.5 -38.5t-27.5 -27.5q-20 -8 -40 0.5t-27 28.5l-77 219q-4 10 -12 10q-7 0 -11 -10l-77 -219q-7 -20 -27 -28.5t-40 -0.5q-19 7 -28 27.5t-2 38.5z" />
    <glyph glyph-name="underscore" unicode="_" horiz-adv-x="472" 
d="M0 -110h472v-90h-472v90z" />
    <glyph glyph-name="grave" unicode="`" horiz-adv-x="382" 
d="M79 866q0 18 12.5 31t29.5 13q13 0 22 -6l136 -70q24 -13 24 -38q0 -17 -12.5 -30t-29.5 -13q-8 0 -22 6l-135 70q-25 13 -25 37z" />
    <glyph glyph-name="a" unicode="a" horiz-adv-x="560" 
d="M54 163q0 70 52 118t151 48q56 0 127 -17v33q0 51 -26.5 74t-84.5 23q-47 0 -109 -22q-14 -4 -26 -4q-14 0 -26 6q-20 12 -21 38q0 33 35 49q62 30 153 30q99 0 153 -47.5t54 -146.5v-260q0 -26 -19 -39q-30 -20 -84.5 -38t-123.5 -18q-99 0 -152 48t-53 125zM158 167
q0 -41 28.5 -62.5t81.5 -21.5q77 0 116 31v111q-68 17 -121 17q-47 0 -76 -20t-29 -55z" />
    <glyph glyph-name="b" unicode="b" horiz-adv-x="600" 
d="M83 92v568q0 23 15.5 38.5t37.5 15.5t37.5 -16t15.5 -38v-150q66 29 131 29q95 0 150.5 -53.5t63.5 -147.5q3 -31 3 -66.5t-3 -75.5q-8 -94 -68 -150t-160 -56q-63 0 -118.5 20.5t-84.5 41.5q-20 14 -20 40zM189 127q17 -13 51 -24t64 -11q114 0 125 117q2 21 1.5 50.5
t-1.5 66.5q-8 111 -116 111q-74 0 -124 -31v-279z" />
    <glyph glyph-name="c" unicode="c" horiz-adv-x="559" 
d="M65 196q-2 36 -2 71.5t2 70.5q6 89 70.5 145t160.5 56t153.5 -51t57.5 -98q0 -23 -14 -38.5t-36 -15.5q-31 0 -45 29q-33 72 -114 72q-56 0 -89 -29.5t-38 -80.5q-3 -33 -2.5 -62.5t2.5 -56.5q5 -52 37.5 -84t89.5 -32q82 0 115 72q15 29 46 29q22 0 36 -15.5t14 -38.5
q0 -47 -58.5 -98t-154.5 -51t-160 59t-71 147z" />
    <glyph glyph-name="d" unicode="d" horiz-adv-x="602" 
d="M66 196q-3 35 -3 70.5t3 71.5q8 95 63.5 148t150.5 53q67 0 131 -29v150q0 22 15.5 38t37.5 16t37.5 -15.5t15.5 -38.5v-568q0 -27 -19 -40q-29 -21 -84.5 -41.5t-119.5 -20.5q-99 0 -159.5 56t-68.5 150zM172 209q9 -117 124 -117q30 0 64 11.5t51 24.5v278
q-50 31 -123 31q-110 0 -116 -111q-3 -33 -2.5 -62t2.5 -55z" />
    <glyph glyph-name="e" unicode="e" horiz-adv-x="571" 
d="M66 205q-2 28 -2 59t2 65q7 96 70 153t158 57q100 0 161 -61.5t61 -162.5v-28q0 -29 -16 -46.5t-48 -17.5h-283v-12q0 -59 36 -91.5t96 -32.5q48 0 115 24q14 5 26 5q14 0 26 -8q20 -14 20 -38q0 -29 -27 -45q-57 -35 -162 -35q-102 0 -164.5 59.5t-68.5 155.5zM169 307
h232q11 0 12 12v12q-1 48 -29 79q-32 35 -90 35q-63 0 -95 -37q-30 -35 -30 -94v-7z" />
    <glyph glyph-name="f" unicode="f" horiz-adv-x="415" 
d="M30 464q0 21 14 34.5t35 13.5h30v37q0 82 44 127.5t123 45.5q56 0 94 -11q41 -12 41 -50q0 -19 -13.5 -33t-36.5 -14q-10 0 -35.5 4.5t-42.5 4.5q-68 0 -68 -79v-32h128q21 0 35.5 -13.5t14.5 -33.5t-14.5 -33.5t-35.5 -13.5h-128v-367q0 -23 -15.5 -39t-37.5 -16
t-37.5 16t-15.5 39v367h-30q-20 0 -34.5 13.5t-14.5 32.5z" />
    <glyph glyph-name="g" unicode="g" horiz-adv-x="600" 
d="M65 205q-1 32 -1 64t1 64q7 91 67 148.5t153 57.5q70 0 126 -19.5t86 -41.5q20 -12 20 -41v-403q0 -107 -66.5 -167.5t-189.5 -60.5q-52 0 -115 12q-21 4 -33.5 19t-12.5 33q0 23 17 40q13 13 31 13q7 0 14 -2q57 -12 101 -12q149 0 149 128q-66 -31 -136 -31
q-93 0 -148.5 54t-62.5 145zM171 218q8 -115 113 -115q83 0 127 36v267q-5 4 -18 10t-42 13.5t-58 7.5q-114 0 -122 -116q-1 -26 -1 -52t1 -51z" />
    <glyph glyph-name="h" unicode="h" horiz-adv-x="605" 
d="M83 50v610q0 23 15.5 38.5t37.5 15.5t37.5 -16t15.5 -38v-175q24 23 62 38.5t80 15.5q92 0 145.5 -54.5t53.5 -156.5v-277q0 -23 -15.5 -39t-37.5 -16t-37.5 16t-15.5 39v270q0 55 -28.5 85.5t-79.5 30.5q-37 0 -71 -17.5t-56 -44.5v-325q0 -23 -15 -38.5t-37 -15.5
t-38 16t-16 38z" />
    <glyph glyph-name="i" unicode="i" horiz-adv-x="280" 
d="M80 662q0 25 17 42t43 17q25 0 42 -17t17 -42t-17 -43t-42 -18q-26 0 -43 18t-17 43zM87 50v428q0 23 15.5 38.5t37.5 15.5t37.5 -16t15.5 -38v-428q0 -23 -15.5 -38.5t-37.5 -15.5q-21 0 -37 16t-16 38z" />
    <glyph glyph-name="j" unicode="j" horiz-adv-x="274" 
d="M-4 -145q-1 4 -1 7q0 18 14 36q42 47 57 87.5t15 101.5v391q0 23 15.5 38.5t37.5 15.5t37.5 -16t15.5 -38v-377q0 -92 -25.5 -156t-76.5 -117q-14 -15 -35 -17h-6q-18 0 -29 10q-16 13 -19 34zM75 661q0 26 17 43t42 17t42 -17.5t17 -42.5q0 -24 -17.5 -42t-41.5 -18
q-25 0 -42 18t-17 42z" />
    <glyph glyph-name="k" unicode="k" horiz-adv-x="548" 
d="M83 50v609q0 23 15 38.5t37 15.5q23 0 38.5 -15.5t15.5 -38.5v-339h14q30 0 53 23l172 173q16 18 39 18t38 -16t15 -36q0 -21 -16 -36l-179 -174l179 -184q17 -18 17 -40q0 -20 -15 -36q-14 -16 -37.5 -16t-39.5 17l-173 182q-23 24 -52 24h-15v-169q0 -23 -15.5 -38.5
t-38.5 -15.5q-21 0 -36.5 16t-15.5 38z" />
    <glyph glyph-name="l" unicode="l" horiz-adv-x="271" 
d="M83 50v609q0 23 15.5 38.5t37.5 15.5t37.5 -16t15.5 -38v-609q0 -23 -15 -38.5t-38 -15.5q-21 0 -37 16t-16 38z" />
    <glyph glyph-name="m" unicode="m" horiz-adv-x="867" 
d="M81 50v391q0 25 23 44q73 54 177 54q101 0 151 -59q75 59 159 59q201 0 201 -211v-278q0 -23 -15.5 -38.5t-37.5 -15.5t-37.5 16t-15.5 38v272q0 115 -99 115q-63 0 -98 -44v-343q0 -23 -15 -38.5t-38 -15.5q-21 0 -37 16t-16 38v279q0 108 -98 108q-13 0 -25 -1.5
t-21.5 -3.5t-17 -5t-14 -6t-10 -5t-7.5 -4l-3 -3v-359q0 -23 -15.5 -38.5t-37.5 -15.5q-21 0 -37 16t-16 38z" />
    <glyph glyph-name="n" unicode="n" 
d="M81 50v393q0 27 21 41q27 21 81.5 38t125.5 17q108 0 163.5 -54.5t55.5 -156.5v-278q0 -23 -15 -38.5t-38 -15.5q-21 0 -37 16t-16 38v273q0 57 -33 85.5t-83 28.5q-73 0 -119 -28v-359q0 -23 -15.5 -38.5t-37.5 -15.5q-21 0 -37 16t-16 38z" />
    <glyph glyph-name="o" unicode="o" horiz-adv-x="593" 
d="M65 195q-2 36 -2 72t2 71q7 89 71.5 145t159.5 56q96 0 160.5 -56t70.5 -145q3 -35 3 -71t-3 -72q-6 -88 -71 -146.5t-160 -58.5q-94 0 -159 58.5t-72 146.5zM171 208q5 -53 38 -84.5t87 -31.5t87.5 31.5t38.5 84.5q2 19 2 48t-2 68q-3 50 -37 81.5t-89 31.5
q-54 0 -87.5 -31t-37.5 -82q-3 -35 -2.5 -64.5t2.5 -51.5z" />
    <glyph glyph-name="p" unicode="p" horiz-adv-x="599" 
d="M81 -143v587q0 19 16 30q31 22 88 43.5t123 21.5q99 0 158 -55.5t67 -149.5q3 -35 3 -70t-3 -71q-8 -95 -65.5 -149t-155.5 -54q-56 0 -125 30v-163q0 -22 -15.5 -38t-37.5 -16t-37.5 15.5t-15.5 38.5zM187 125q17 -12 50.5 -22.5t66.5 -10.5q115 0 123 112q2 27 2 56
t-2 60q-9 117 -121 117q-31 0 -67 -12t-52 -25v-275z" />
    <glyph glyph-name="q" unicode="q" horiz-adv-x="602" 
d="M66 192q-3 36 -3 71.5t3 70.5q8 94 67 149.5t158 55.5q66 0 123.5 -20.5t87.5 -42.5q15 -10 15 -32v-587q0 -23 -15 -38.5t-37 -15.5t-37.5 16t-15.5 38v163q-71 -30 -128 -30q-97 0 -153.5 53.5t-64.5 148.5zM172 205q6 -113 119 -113q69 0 121 31v277q-16 13 -52 25
t-67 12q-112 0 -121 -115q-3 -26 -2.5 -55t2.5 -62z" />
    <glyph glyph-name="r" unicode="r" horiz-adv-x="389" 
d="M76 49v325q0 77 43.5 121t124.5 44q52 0 91 -11q41 -12 41 -50q0 -19 -13 -34.5t-37 -15.5q-6 0 -31 5q-21 4 -38 4h-6q-69 -1 -69 -80v-308q0 -22 -15.5 -37.5t-38.5 -15.5q-21 0 -36.5 15.5t-15.5 37.5z" />
    <glyph glyph-name="s" unicode="s" horiz-adv-x="494" 
d="M49 80q-1 4 -1 8q0 15 9 27q16 21 37 21q15 0 33 -11q54 -39 129 -39q44 0 68 18t24 48q0 22 -16 36t-53 23q-70 16 -72 17q-145 36 -145 150q0 74 55.5 117.5t141.5 43.5q94 0 151 -47q16 -13 16 -34.5t-11 -33.5q-14 -17 -34 -17q-16 0 -35 10q-43 25 -92 25
q-90 0 -90 -62q0 -21 15.5 -33.5t53.5 -22.5l78 -18q141 -35 141 -151q0 -75 -56.5 -120t-144.5 -45q-115 0 -184 57q-15 13 -18 33z" />
    <glyph glyph-name="t" unicode="t" horiz-adv-x="417" 
d="M77 170v418q0 23 15.5 38.5t37.5 15.5t37.5 -16t15.5 -38v-76h138q21 0 35.5 -13.5t14.5 -33.5t-14.5 -33.5t-35.5 -13.5h-138v-249q0 -79 71 -79q17 0 72 15q9 2 17 2q17 0 30 -10q18 -15 18 -39q0 -34 -36 -49q-44 -19 -112 -19q-82 0 -124 49.5t-42 130.5z" />
    <glyph glyph-name="u" unicode="u" 
d="M75 203v273q0 24 14 40t38 16q23 0 38.5 -16t15.5 -40v-272q0 -52 31 -82t85 -30q65 0 119 33v352q0 23 15.5 39t37.5 16t37.5 -16t15.5 -39v-387q0 -27 -20 -40q-86 -60 -206 -60q-102 0 -161.5 56t-59.5 157z" />
    <glyph glyph-name="v" unicode="v" horiz-adv-x="524" 
d="M24 456q-4 12 -4 23q0 17 10 31q16 24 45 23q17 0 31.5 -11t19.5 -29l131 -375q1 -4 5 -4t5 4l129 372q15 41 53 41q30 0 46 -24q9 -14 9 -30q0 -11 -4 -23l-143 -382q-29 -78 -96 -78q-65 0 -94 77z" />
    <glyph glyph-name="w" unicode="w" horiz-adv-x="811" 
d="M31 461q-3 10 -3 20q0 17 10 31q14 22 42 21q42 0 53 -44l92 -376q1 -4 5 -4t5 4l86 345q9 36 32 55.5t53 19.5q31 0 53.5 -19.5t31.5 -55.5l86 -345q1 -4 5 -4t5 4l92 375q5 20 19 32.5t33 12.5q29 1 43 -21q9 -14 10 -31q0 -9 -3 -20l-106 -394q-20 -77 -90 -77
q-71 0 -90 77l-84 332q-1 4 -5 4q-5 0 -5 -4l-86 -331q-20 -78 -89 -78q-32 0 -56 19t-34 57z" />
    <glyph glyph-name="x" unicode="x" horiz-adv-x="550" 
d="M44 48q0 19 13 34l150 185l-142 177q-14 16 -14 36v3q1 22 19 36q15 12 34 12h6q22 -2 35 -19l129 -164l130 163q14 18 38 20h5q20 0 34 -12q17 -14 18 -36v-3q0 -20 -14 -37l-141 -176l148 -185q14 -16 14 -36v-4q-2 -22 -20 -35q-14 -11 -32 -11h-6q-22 2 -36 19
l-137 171l-137 -172q-13 -16 -36 -18q-3 0 -7 -1q-19 0 -32 12q-19 17 -19 41z" />
    <glyph glyph-name="y" unicode="y" horiz-adv-x="524" 
d="M25 455q-5 12 -5 24q0 15 10 29q16 24 43 24q40 0 54 -40l135 -323q2 -3 4 -3q4 0 5 3l124 321q15 42 54 42q30 0 46 -24q9 -14 9 -30q0 -11 -5 -23l-188 -447q-28 -68 -65.5 -117.5t-70.5 -70.5q-23 -15 -45 -15q-21 0 -35.5 14t-14.5 36q0 28 22 43q68 42 105 138z" />
    <glyph glyph-name="z" unicode="z" horiz-adv-x="506" 
d="M47 68q0 28 21 54l271 302h-226q-22 0 -37 13.5t-15 34.5t15.5 35t36.5 14h274q60 0 72 -54q2 -9 2 -17q0 -29 -24 -57l-265 -295h237q22 0 37.5 -14t15.5 -35t-15.5 -35t-37.5 -14h-285q-34 0 -55.5 19t-21.5 49z" />
    <glyph glyph-name="braceleft" unicode="{" horiz-adv-x="405" 
d="M33 315q0 19 20 35q30 24 41.5 50t11.5 64v228q0 41 29.5 70.5t70.5 29.5h138q23 0 38.5 -15t15.5 -37t-16 -37t-38 -15h-102q-13 0 -21.5 -8.5t-8.5 -21.5v-194q0 -104 -67 -149q67 -48 67 -149v-208q0 -12 8.5 -21t20.5 -9h103q22 0 38 -15t16 -37t-15.5 -37t-38.5 -15
h-125q-46 0 -79.5 33.5t-33.5 79.5v228q0 38 -11.5 64t-41.5 50q-20 16 -20 36z" />
    <glyph glyph-name="bar" unicode="|" horiz-adv-x="304" 
d="M97 -86v866q0 23 15.5 39t37.5 16t37.5 -16t15.5 -39v-866q0 -23 -15.5 -38.5t-37.5 -15.5t-37.5 16t-15.5 38z" />
    <glyph glyph-name="braceright" unicode="}" horiz-adv-x="405" 
d="M7 -124q0 22 16 37t38 15h103q12 0 20.5 9t8.5 21v208q0 101 67 149q-67 45 -67 149v194q0 13 -8.5 21.5t-21.5 8.5h-102q-22 0 -38 15t-16 37t15.5 37t38.5 15h138q41 0 70.5 -29.5t29.5 -70.5v-228q0 -38 11.5 -64t41.5 -50q20 -16 20 -35q0 -20 -20 -36
q-30 -24 -41.5 -50t-11.5 -64v-228q0 -46 -33.5 -79.5t-79.5 -33.5h-125q-23 0 -38.5 15t-15.5 37z" />
    <glyph glyph-name="asciitilde" unicode="~" horiz-adv-x="643" 
d="M57 352q0 38 42 56q79 33 124 33q38 0 99 -25.5t98 -25.5q34 0 80 23q36 18 60.5 0.5t24.5 -44.5q0 -39 -41 -55q-80 -34 -126 -34q-38 0 -99.5 25.5t-97.5 25.5q-31 0 -77 -23q-36 -18 -61.5 -0.5t-25.5 44.5z" />
    <glyph glyph-name="exclamdown" unicode="&#xa1;" horiz-adv-x="227" 
d="M61 52l6 374q0 19 13.5 32.5t32.5 13.5t32.5 -13t14.5 -33l6 -374q1 -22 -14.5 -38t-38.5 -16q-22 0 -37.5 16t-14.5 38zM63 611v50q0 20 14.5 34t35.5 14q22 0 36.5 -14t14.5 -34v-50q0 -20 -14.5 -34.5t-36.5 -14.5q-21 0 -35.5 14.5t-14.5 34.5z" />
    <glyph glyph-name="cent" unicode="&#xa2;" horiz-adv-x="492" 
d="M78 301q-3 49 0 97q5 66 45 114.5t103 63.5v83q0 20 14 35t33 15q20 0 33.5 -14.5t13.5 -35.5v-83q44 -10 77 -36.5t48 -63.5q5 -12 5 -24q0 -19 -15.5 -32.5t-33.5 -13.5q-32 0 -44 29q-12 26 -35 41.5t-51 15.5q-84 0 -93 -95q-4 -48 0 -95q10 -93 93 -93q60 0 86 56
q12 29 44 29q18 0 33 -13.5t15 -32.5q0 -9 -4 -20q-38 -85 -125 -106v-81q0 -21 -13.5 -35.5t-33.5 -14.5q-19 0 -33 15t-14 35v83q-63 14 -103.5 62t-44.5 115z" />
    <glyph glyph-name="sterling" unicode="&#xa3;" horiz-adv-x="578" 
d="M11 331q0 22 16 36t39 14h41q-19 89 -19 118q0 90 57.5 150t163.5 60q119 0 197 -78q22 -22 22 -44q0 -23 -15 -37.5t-37 -14.5q-20 0 -43 18q-58 53 -126 53q-58 0 -85.5 -31.5t-27.5 -73.5q0 -15 3 -32.5t9.5 -46.5t8.5 -41h131q23 0 38.5 -14t15.5 -36t-16 -37
t-38 -15h-120q8 -80 -40 -173h309q21 0 37.5 -16t16.5 -38t-15.5 -37t-38.5 -15h-357q-34 0 -53.5 18.5t-19.5 47.5q0 17 18 56q44 87 37 157h-54q-23 0 -39 14.5t-16 37.5z" />
    <glyph glyph-name="currency" unicode="&#xa4;" horiz-adv-x="620" 
d="M47.5 137q0.5 20 15.5 35l79 80q-14 30 -15 66q-1 32 0 63q2 37 15 68l-79 80q-15 15 -15.5 35.5t13.5 34.5t35 14t35 -16l72 -72q49 36 107 36q60 0 107 -36l72 72q14 16 35 16t35 -14t13.5 -34.5t-15.5 -35.5l-79 -80q13 -31 15 -68q1 -31 0 -63q0 -36 -15 -66l79 -80
q15 -15 15.5 -35t-13.5 -34q-15 -15 -35 -14.5t-35 15.5l-71 75q-51 -39 -108 -39q-55 0 -108 39l-71 -75q-15 -15 -35 -15.5t-35 14.5q-14 14 -13.5 34zM217 317q2 -38 28.5 -63t64.5 -25t64.5 25t27.5 63q2 30 0 64q-2 39 -28 64.5t-64 25.5t-64 -25.5t-29 -64.5
q-2 -31 0 -64z" />
    <glyph glyph-name="yen" unicode="&#xa5;" horiz-adv-x="653" 
d="M14 656.5q2 22.5 19 36.5q17 15 40.5 12.5t37.5 -19.5l215 -270l216 269q14 18 37 20.5t40 -11.5t19.5 -37t-12.5 -41l-219 -267q-2 -3 -8 -10t-8 -10t-5 -8.5t-4.5 -10.5t-1.5 -12h98q22 0 37.5 -14t15.5 -36q0 -21 -15.5 -35t-37.5 -14h-98v-148q0 -23 -15.5 -39
t-38.5 -16q-22 0 -37.5 16.5t-15.5 38.5v148h-98q-23 0 -38 13.5t-15 35.5t15 36t38 14h98q-1 7 -2 12t-5 11.5t-5 8.5t-8 10.5t-8 9.5l-218 266q-15 18 -13 40.5z" />
    <glyph glyph-name="brokenbar" unicode="&#xa6;" horiz-adv-x="304" 
d="M97 -86v342q0 23 15.5 39t37.5 16t37.5 -16t15.5 -39v-342q0 -23 -15.5 -38.5t-37.5 -15.5t-37.5 16t-15.5 38zM97 438v342q0 23 15.5 39t37.5 16t37.5 -16t15.5 -39v-342q0 -23 -15.5 -38.5t-37.5 -15.5t-37.5 16t-15.5 38z" />
    <glyph glyph-name="section" unicode="&#xa7;" horiz-adv-x="574" 
d="M69 0q0 22 15.5 36.5t37.5 14.5q16 0 30 -9q65 -40 135 -40q54 0 81 24t27 58q0 18 -6.5 31t-14.5 21.5t-28 16t-34 11.5t-45 12q-100 26 -140.5 61t-40.5 90q0 49 37 88q-41 43 -41 109q0 79 60 132t153 53q111 0 185 -57q23 -19 23 -46q0 -21 -14.5 -36.5t-36.5 -15.5
q-16 0 -40 15q-57 36 -117 36q-54 0 -79.5 -24t-25.5 -58q0 -18 6.5 -31.5t14 -22t28 -16.5t33.5 -11l45 -13q100 -26 140.5 -60.5t40.5 -89.5q0 -47 -37 -88q41 -43 41 -109q0 -80 -59.5 -132.5t-153.5 -52.5q-60 0 -116 18.5t-84 41.5q-20 15 -20 43zM179 332
q0 -23 27 -39.5t96 -31.5q53 -14 88 -28l2 3q15 19 15 37q0 23 -26.5 39t-96.5 32q-51 12 -88 28l-2 -3q-15 -17 -15 -37z" />
    <glyph glyph-name="dieresis" unicode="&#xa8;" horiz-adv-x="382" 
d="M53 814q0 23 15.5 38.5t38.5 15.5t38.5 -16t15.5 -38q0 -23 -15.5 -39t-38.5 -16t-38.5 16t-15.5 39zM221 814q0 22 15.5 38t38.5 16t38.5 -15.5t15.5 -38.5t-15.5 -39t-38.5 -16t-38.5 16t-15.5 39z" />
    <glyph glyph-name="copyright" unicode="&#xa9;" horiz-adv-x="797" 
d="M88 303q-2 48 0 96q5 134 94 222t216 88t216 -88t94 -222q2 -48 0 -96q-5 -134 -94 -221.5t-216 -87.5t-216 88t-94 221zM165 298q7 -103 72.5 -166.5t160.5 -63.5q96 0 162 63.5t72 166.5q4 53 0 106q-7 104 -72.5 167t-161.5 63q-95 0 -160.5 -63t-72.5 -167
q-4 -53 0 -106zM232 303q-4 38 0 98q6 68 53 113.5t115 45.5q51 0 91.5 -23.5t56.5 -61.5q6 -15 6 -25q0 -17 -10 -26.5t-25 -9.5q-23 0 -33 23q-25 52 -86 52q-39 0 -64 -26.5t-28 -68.5q-2 -29 0 -85q3 -42 28 -68.5t64 -26.5q61 0 86 51q10 23 33 23q15 0 25 -9.5
t10 -26.5q0 -10 -6 -25q-16 -38 -56.5 -61.5t-91.5 -23.5q-68 0 -114.5 45.5t-53.5 115.5z" />
    <glyph glyph-name="ordfeminine" unicode="&#xaa;" horiz-adv-x="480" 
d="M45 437q-3 52 0 105q4 77 51 122t123 45q48 0 92.5 -14.5t65.5 -29.5q20 -15 20 -38v-176q0 -37 8 -58.5t27 -47.5q13 -21 8 -39.5t-20 -27.5q-37 -19 -61 11q-13 17 -21 33q-54 -51 -119 -51q-78 0 -123.5 45.5t-50.5 120.5zM135 440q5 -78 85 -78q23 0 48.5 11.5
t41.5 28.5q-4 30 -4 65v131q-33 20 -86 20q-80 0 -85 -81q-6 -47 0 -97z" />
    <glyph glyph-name="guillemotleft" unicode="&#xab;" horiz-adv-x="588" 
d="M44 354q0 46 46 82l122 93q17 13 36.5 11.5t32.5 -17.5t11.5 -36.5t-17.5 -32.5l-113 -86q-9 -7 -9 -14t9 -14l113 -86q16 -12 17.5 -32.5t-11.5 -36.5t-32.5 -17.5t-36.5 11.5l-122 94q-46 36 -46 81zM274 354q0 46 47 82l121 93q18 13 37.5 11.5t32.5 -17.5t11 -36.5
t-18 -32.5l-113 -86q-9 -7 -9 -14t9 -14l113 -86q16 -12 18 -32.5t-11 -36.5t-32.5 -17.5t-37.5 11.5l-121 94q-47 36 -47 81z" />
    <glyph glyph-name="logicalnot" unicode="&#xac;" horiz-adv-x="628" 
d="M60 350q0 22 15 36.5t37 14.5h382q35 0 54.5 -20.5t19.5 -52.5v-182q0 -22 -14.5 -37t-36.5 -15q-21 0 -36 15.5t-15 36.5v153h-354q-22 0 -37 15t-15 36z" />
    <glyph glyph-name="registered" unicode="&#xae;" horiz-adv-x="619" 
d="M71 400q-1 38 0 75q5 100 72.5 167.5t164.5 67.5t164.5 -67.5t72.5 -167.5q1 -37 0 -75q-5 -100 -72.5 -167.5t-164.5 -67.5t-164.5 67.5t-72.5 167.5zM131 396q6 -79 54.5 -126t122.5 -47q73 0 121.5 46.5t55.5 126.5q4 42 0 83q-7 80 -55 126.5t-122 46.5t-122.5 -46.5
t-54.5 -126.5q-4 -41 0 -83zM210 330v211q0 15 9 24.5t25 9.5h79q39 0 65 -23t26 -64q0 -59 -48 -77l49 -63q7 -10 7 -20q0 -12 -8.5 -20t-21.5 -8q-12 0 -22 12l-60 81q-6 8 -16 8h-28v-71q0 -13 -8 -21t-21 -8q-11 0 -19 8.5t-8 20.5zM265 450h49q43 0 43 37q0 38 -41 38
h-51v-75z" />
    <glyph glyph-name="macron" unicode="&#xaf;" horiz-adv-x="382" 
d="M68 808q0 19 12.5 31t31.5 12h161q19 0 31.5 -12t12.5 -31t-12.5 -31.5t-31.5 -12.5h-161q-19 0 -31.5 12.5t-12.5 31.5z" />
    <glyph glyph-name="degree" unicode="&#xb0;" horiz-adv-x="346" 
d="M42 587q0 54 38.5 93t92.5 39t92.5 -39t38.5 -93q0 -53 -38.5 -92t-92.5 -39t-92.5 39t-38.5 92zM110 587q0 -26 18.5 -44t44.5 -18t44.5 18t18.5 44t-18.5 44.5t-44.5 18.5t-44.5 -18.5t-18.5 -44.5z" />
    <glyph glyph-name="plusminus" unicode="&#xb1;" horiz-adv-x="628" 
d="M60 51q0 22 15 36.5t37 14.5h404q22 0 37 -14.5t15 -36.5q0 -21 -15.5 -36t-36.5 -15h-404q-22 0 -37 15t-15 36zM60 378q0 21 15 36t37 15h152v152q0 21 15 36.5t36 15.5t36 -15.5t15 -36.5v-152h150q22 0 37 -15t15 -36t-15.5 -36t-36.5 -15h-150v-153q0 -22 -14.5 -37
t-36.5 -15q-21 0 -36 15.5t-15 36.5v153h-152q-22 0 -37 15t-15 36z" />
    <glyph glyph-name="twosuperior" unicode="&#xb2;" horiz-adv-x="451" 
d="M59 610q0 14 11 29q20 29 57.5 49.5t86.5 20.5q75 0 116 -38t41 -93q0 -52 -25.5 -86t-96.5 -81q-5 -3 -16.5 -11t-17 -11.5t-14.5 -10t-13.5 -10.5t-10 -9.5t-8.5 -10.5t-4 -10h168q21 0 35.5 -12.5t14.5 -33.5t-14.5 -33.5t-35.5 -12.5h-208q-30 0 -46 16.5t-16 44.5
q0 76 97 147l35 23q26 17 40 27.5t27.5 29t13.5 36.5q0 20 -15 35.5t-46 15.5q-42 0 -72 -36q-21 -21 -37 -21q-19 0 -33 13t-14 33z" />
    <glyph glyph-name="threesuperior" unicode="&#xb3;" horiz-adv-x="428" 
d="M54 281q0 20 13 33.5t34 13.5q4 0 17.5 -1.5t22.5 -1.5q63 0 100 22t37 60q0 25 -16.5 39t-45.5 14q-9 0 -23.5 -2.5t-19.5 -2.5q-15 0 -26.5 10t-11.5 25q0 16 13 29l79 81h-125q-20 0 -33 14t-13 34t13 33t33 13h187q24 0 40.5 -14t16.5 -37q0 -24 -24 -50l-56 -59
q50 -10 78 -44t28 -82q0 -80 -64 -126.5t-175 -46.5q-23 0 -32 1q-20 1 -33.5 13.5t-13.5 31.5z" />
    <glyph glyph-name="acute" unicode="&#xb4;" horiz-adv-x="382" 
d="M79 796q0 26 25 38l135 70q11 6 22 6q17 0 29.5 -13t12.5 -31q0 -24 -24 -37l-136 -70q-14 -6 -22 -6q-17 0 -29.5 13t-12.5 30z" />
    <glyph glyph-name="mu" unicode="&#xb5;" horiz-adv-x="612" 
d="M87 -134v610q0 22 15 38t38 16q21 0 37 -16t16 -38v-273q0 -52 29 -81.5t81 -29.5q69 0 119 32v352q0 23 15.5 38.5t37.5 15.5t37.5 -16t15.5 -38v-392q0 -21 -16 -32q-86 -61 -203 -61q-69 0 -116 31v-156q0 -23 -15.5 -38.5t-37.5 -15.5t-37.5 16t-15.5 38z" />
    <glyph glyph-name="mu" unicode="&#x3bc;" horiz-adv-x="612" 
d="M87 -134v610q0 22 15 38t38 16q21 0 37 -16t16 -38v-273q0 -52 29 -81.5t81 -29.5q69 0 119 32v352q0 23 15.5 38.5t37.5 15.5t37.5 -16t15.5 -38v-392q0 -21 -16 -32q-86 -61 -203 -61q-69 0 -116 31v-156q0 -23 -15.5 -38.5t-37.5 -15.5t-37.5 16t-15.5 38z" />
    <glyph glyph-name="paragraph" unicode="&#xb6;" horiz-adv-x="733" 
d="M78 474q0 105 68 167t168 62h248q38 2 59.5 -20.5t21.5 -58.5v-762q0 -22 -15.5 -38t-37.5 -16t-37.5 16t-15.5 38v735h-71v-735q0 -23 -15.5 -38.5t-37.5 -15.5t-37.5 16t-15.5 38v383h-41q-107 0 -174 61t-67 168zM186 473q0 -61 36 -93t105 -32h33v249h-36
q-66 0 -102 -31.5t-36 -92.5z" />
    <glyph glyph-name="periodcentered" unicode="&#xb7;" horiz-adv-x="271" 
d="M85 326v53q0 22 14 37t36 15q21 0 36 -15t15 -37v-53q0 -22 -14.5 -36.5t-36.5 -14.5q-21 0 -35.5 14.5t-14.5 36.5z" />
    <glyph glyph-name="cedilla" unicode="&#xb8;" horiz-adv-x="382" 
d="M110 -234q0 25 28 36q45 18 59.5 30.5t14.5 28.5q0 10 -8 18.5t-22 8.5q-7 0 -16.5 -2t-15.5 -2q-18 0 -28.5 15.5t-3.5 33.5l28 76q11 29 35 29q16 0 25 -9.5t9 -24.5q0 -6 -3 -12l-13 -34q44 -3 69 -29t25 -66q0 -88 -127 -132q-20 -7 -38 2t-18 33z" />
    <glyph glyph-name="onesuperior" unicode="&#xb9;" horiz-adv-x="342" 
d="M35 595q6 20 22 28l124 70q11 7 25 7q21 0 34.5 -14t13.5 -35v-360q0 -21 -12.5 -34.5t-33.5 -13.5q-20 0 -34 14.5t-14 33.5v280l-58 -29q-18 -9 -36 -4.5t-28 21.5q-9 16 -3 36z" />
    <glyph glyph-name="ordmasculine" unicode="&#xba;" horiz-adv-x="460" 
d="M48 444q-3 46 0 92q6 74 56.5 123.5t125.5 49.5t125.5 -49.5t56.5 -123.5q3 -45 0 -92q-6 -76 -56 -125t-126 -49t-126 49t-56 125zM142 444q4 -38 28 -60t60 -22t60.5 22t27.5 60q3 46 0 91q-3 37 -27.5 59.5t-60.5 22.5t-60.5 -22.5t-27.5 -59.5q-3 -45 0 -91z" />
    <glyph glyph-name="guillemotright" unicode="&#xbb;" horiz-adv-x="588" 
d="M65.5 221.5q1.5 20.5 17.5 32.5l113 86q9 7 9 14t-9 14l-113 86q-16 12 -17.5 32.5t11.5 36.5t32.5 17.5t36.5 -11.5l122 -93q46 -36 46 -82q0 -45 -46 -81l-122 -94q-17 -13 -36.5 -11.5t-32.5 17.5t-11.5 36.5zM295.5 221.5q2.5 20.5 18.5 32.5l113 86q9 7 9 14t-9 14
l-113 86q-16 12 -18.5 32.5t11.5 36.5q13 16 32.5 17.5t36.5 -11.5l122 -93q47 -36 47 -82q0 -45 -47 -81l-122 -94q-17 -13 -36.5 -11.5t-32.5 17.5q-14 16 -11.5 36.5z" />
    <glyph glyph-name="onequarter" unicode="&#xbc;" horiz-adv-x="986" 
d="M35 595q6 20 22 28l124 70q11 7 25 7q21 0 34.5 -14t13.5 -35v-360q0 -21 -13 -34.5t-34 -13.5t-35 14.5t-14 33.5v280l-56 -29q-18 -9 -36 -4.5t-28 21.5q-9 16 -3 36zM249 34l265 667q9 21 28.5 28t37.5 -1q18 -7 25 -25t-1 -38l-265 -667q-8 -18 -25 -26t-39 0
q-17 6 -25 25t-1 37zM523 155q0 27 27 56l191 216q25 30 55 30q29 0 47 -18.5t18 -46.5v-212h34q18 0 30.5 -12t12.5 -30q0 -19 -12 -31t-31 -12h-34v-52q0 -17 -12.5 -30t-30.5 -13q-19 0 -31 12t-12 31v51h-187q-28 0 -46.5 17t-18.5 44zM632 180h143v161z" />
    <glyph glyph-name="onehalf" unicode="&#xbd;" horiz-adv-x="971" 
d="M35 595q6 20 22 28l124 70q11 7 25 7q21 0 34.5 -14t13.5 -35v-360q0 -21 -12.5 -34.5t-33.5 -13.5q-20 0 -34 14.5t-14 33.5v280l-58 -29q-18 -9 -36 -4.5t-28 21.5q-9 16 -3 36zM250 34l265 667q9 21 28.5 28t37.5 -1q18 -7 25 -25t-1 -38l-265 -667q-8 -18 -25 -26
t-39 0q-17 6 -25 25t-1 37zM579 364q0 14 11 29q20 29 57.5 49.5t86.5 20.5q75 0 116 -38t41 -93q0 -52 -25.5 -86t-96.5 -81q-5 -3 -16.5 -11t-17 -11.5t-14.5 -10t-13.5 -10.5t-10 -9.5t-8.5 -10.5t-4 -10h168q21 0 35.5 -12.5t14.5 -33.5t-14.5 -33.5t-35.5 -12.5h-208
q-30 0 -46 16.5t-16 44.5q0 76 97 147l35 23q26 17 40 27.5t27.5 29t13.5 36.5q0 20 -15 35.5t-46 15.5q-42 0 -72 -36q-21 -21 -37 -21q-19 0 -33 13t-14 33z" />
    <glyph glyph-name="threequarters" unicode="&#xbe;" horiz-adv-x="1071" 
d="M54 281q0 20 13 33.5t34 13.5q4 0 17.5 -1.5t22.5 -1.5q63 0 100 22t37 60q0 25 -16.5 39t-45.5 14q-9 0 -23.5 -2.5t-19.5 -2.5q-15 0 -26.5 10t-11.5 25q0 16 13 29l79 81h-125q-20 0 -33 14t-13 34t13 33t33 13h187q24 0 40.5 -14t16.5 -37q0 -24 -24 -50l-56 -59
q50 -10 78 -44t28 -82q0 -80 -64 -126.5t-175 -46.5q-79 0 -79 46zM345 34l265 667q9 21 28.5 28t37.5 -1q18 -7 25 -25t-1 -38l-265 -667q-8 -18 -25 -26t-39 0q-17 6 -25 25t-1 37zM618 155q0 15 7.5 28.5t33.5 42.5l151 172q41 45 66 54q12 5 26 3q54 -4 54 -83v-192h35
q17 0 30 -12t13 -30q0 -19 -12 -31t-31 -12h-35v-36q0 -59 -43 -59q-42 0 -42 59v35h-167q-86 0 -86 61zM727 180h143v161z" />
    <glyph glyph-name="questiondown" unicode="&#xbf;" horiz-adv-x="555" 
d="M54 186q0 92 50 149t162 109q19 8 36 8q19 0 34 -13.5t15 -33.5q0 -34 -36 -51q-86 -38 -121 -72t-35 -89q0 -44 29.5 -72.5t79.5 -28.5q43 0 74 15.5t60 50.5q21 21 43 21t37.5 -16.5t15.5 -37.5q0 -17 -15 -36q-80 -100 -215 -100q-95 0 -154.5 55.5t-59.5 141.5z
M247 611v50q0 20 15 34.5t36 14.5t35.5 -14.5t14.5 -34.5v-50q0 -20 -14.5 -34t-35.5 -14t-36 14t-15 34z" />
    <glyph glyph-name="Agrave" unicode="&#xc0;" horiz-adv-x="683" 
d="M26 72l200 556q30 86 116 86q85 0 116 -86l199 -556q7 -20 -1.5 -41t-28.5 -29q-21 -8 -42 1t-28 30l-66 187h-300l-66 -188q-8 -20 -28.5 -29t-40.5 -1q-21 8 -29.5 28.5t-0.5 41.5zM184 865q0 18 12.5 31t29.5 13q13 0 22 -6l136 -70q24 -13 24 -38q0 -17 -12.5 -30
t-29.5 -13q-8 0 -22 6l-135 70q-25 12 -25 37zM225 318h232l-95 271q-5 15 -20 15q-16 0 -21 -15z" />
    <glyph glyph-name="Aacute" unicode="&#xc1;" horiz-adv-x="683" 
d="M26 72l200 556q30 86 116 86q85 0 116 -86l199 -556q7 -20 -1.5 -41t-28.5 -29q-21 -8 -42 1t-28 30l-66 187h-300l-66 -188q-8 -20 -28.5 -29t-40.5 -1q-21 8 -29.5 28.5t-0.5 41.5zM225 318h232l-95 271q-5 15 -20 15q-16 0 -21 -15zM268 795q0 25 25 38l135 70
q10 6 22 6q17 0 29.5 -13t12.5 -31q0 -24 -24 -37l-136 -70q-14 -6 -22 -6q-17 0 -29.5 13t-12.5 30z" />
    <glyph glyph-name="Acircumflex" unicode="&#xc2;" horiz-adv-x="683" 
d="M26 72l200 556q30 86 116 86q85 0 116 -86l199 -556q7 -20 -1.5 -41t-28.5 -29q-21 -8 -42 1t-28 30l-66 187h-300l-66 -188q-8 -20 -28.5 -29t-40.5 -1q-21 8 -29.5 28.5t-0.5 41.5zM191 796q0 21 19 35l99 75q16 14 33 14q16 0 33 -14l100 -75q19 -14 19 -35
q0 -17 -12.5 -30t-30.5 -13q-11 0 -28 10l-81 62l-81 -62q-15 -10 -28 -10q-17 0 -29.5 13t-12.5 30zM225 318h232l-95 271q-5 15 -20 15q-16 0 -21 -15z" />
    <glyph glyph-name="Atilde" unicode="&#xc3;" horiz-adv-x="683" 
d="M26 72l200 556q30 86 116 86q85 0 116 -86l199 -556q7 -20 -1.5 -41t-28.5 -29q-21 -8 -42 1t-28 30l-66 187h-300l-66 -188q-8 -20 -28.5 -29t-40.5 -1q-21 8 -29.5 28.5t-0.5 41.5zM183 803q0 16 17 33q43 38 80 38q28 0 65.5 -18.5t51.5 -18.5q15 0 33 14.5t31 14.5
q17 0 28 -12.5t11 -28.5t-17 -33q-41 -38 -80 -38q-25 0 -64 18t-53 18t-32.5 -14t-31.5 -14q-17 0 -28 12.5t-11 28.5zM225 318h232l-95 271q-5 15 -20 15q-16 0 -21 -15z" />
    <glyph glyph-name="Adieresis" unicode="&#xc4;" horiz-adv-x="683" 
d="M26 72l200 556q30 86 116 86q85 0 116 -86l199 -556q7 -20 -1.5 -41t-28.5 -29q-21 -8 -42 1t-28 30l-66 187h-300l-66 -188q-8 -20 -28.5 -29t-40.5 -1q-21 8 -29.5 28.5t-0.5 41.5zM204 814q0 23 15.5 38.5t38.5 15.5q22 0 38 -16t16 -38q0 -23 -15.5 -39t-38.5 -16
t-38.5 16t-15.5 39zM225 318h232l-95 271q-5 15 -20 15q-16 0 -21 -15zM372 814q0 22 16 38t38 16q23 0 38.5 -15.5t15.5 -38.5t-15.5 -39t-38.5 -16t-38.5 16t-15.5 39z" />
    <glyph glyph-name="Aring" unicode="&#xc5;" horiz-adv-x="683" 
d="M26 72l200 556q30 86 116 86q85 0 116 -86l199 -556q7 -20 -1.5 -41t-28.5 -29q-21 -8 -42 1t-28 30l-66 187h-300l-66 -188q-8 -20 -28.5 -29t-40.5 -1q-21 8 -29.5 28.5t-0.5 41.5zM225 318h232l-95 271q-5 15 -20 15q-16 0 -21 -15zM238 857q0 42 30.5 72t72.5 30
q43 0 73.5 -29.5t30.5 -72.5t-30.5 -73t-73.5 -30q-42 0 -72.5 30t-30.5 73zM300 857q0 -18 12 -30.5t29 -12.5t29.5 12.5t12.5 30.5q0 17 -12.5 29.5t-29.5 12.5t-29 -12.5t-12 -29.5z" />
    <glyph glyph-name="AE" unicode="&#xc6;" horiz-adv-x="1055" 
d="M19 38.5q-5 22.5 7 38.5l378 559q26 38 56.5 52.5t78.5 14.5h399q23 0 39 -15.5t16 -37.5t-16.5 -37.5t-38.5 -15.5h-312v-194h303q21 0 36 -14t15 -35q0 -20 -15.5 -35t-35.5 -15h-303v-198h314q22 0 38.5 -15.5t16.5 -37.5t-16 -37.5t-39 -15.5h-338q-39 0 -61 23.5
t-22 58.5v147h-264l-140 -209q-12 -18 -33 -22t-39 7q-19 11 -24 33.5zM320 327h199v270q-16 0 -32 -24z" />
    <glyph glyph-name="Ccedilla" unicode="&#xc7;" horiz-adv-x="664" 
d="M64 271q-8 81 0 160q9 121 89.5 201.5t201.5 80.5q86 0 157 -44t101 -119q6 -12 6 -27q0 -21 -16.5 -35.5t-35.5 -14.5q-31 0 -49 32q-22 49 -65 77t-98 28q-78 0 -127.5 -53t-56.5 -136q-5 -71 0 -142q7 -84 56 -135.5t128 -51.5q54 0 97.5 28.5t65.5 76.5q18 32 49 32
q19 0 35.5 -14.5t16.5 -35.5q0 -14 -6 -27q-27 -67 -88.5 -110t-137.5 -51l-12 -33q44 -3 69 -29t25 -66q0 -88 -127 -132q-20 -7 -38 2t-18 33q0 26 28 36q45 18 59.5 30.5t14.5 28.5q0 10 -8 18.5t-22 8.5q-7 0 -16.5 -2t-15.5 -2q-18 0 -28.5 15.5t-3.5 33.5l21 60
q-106 13 -174.5 90t-76.5 188z" />
    <glyph glyph-name="Egrave" unicode="&#xc8;" horiz-adv-x="627" 
d="M91 82v540q0 35 22 58t61 23h335q23 0 39 -15t16 -37t-16.5 -38t-38.5 -16h-310v-193h302q21 0 35.5 -14t14.5 -36q0 -20 -15.5 -35t-34.5 -15h-302v-198h313q21 0 37.5 -16t16.5 -37q0 -22 -15.5 -37.5t-38.5 -15.5h-338q-39 0 -61 23.5t-22 58.5zM185 865q0 18 12.5 31
t29.5 13q13 0 22 -6l136 -70q24 -13 24 -38q0 -17 -12.5 -30t-29.5 -13q-8 0 -22 6l-135 70q-25 12 -25 37z" />
    <glyph glyph-name="Eacute" unicode="&#xc9;" horiz-adv-x="627" 
d="M91 82v540q0 35 22 58t61 23h335q23 0 39 -15t16 -37t-16.5 -38t-38.5 -16h-310v-193h302q21 0 35.5 -14t14.5 -36q0 -20 -15.5 -35t-34.5 -15h-302v-198h313q21 0 37.5 -16t16.5 -37q0 -22 -15.5 -37.5t-38.5 -15.5h-338q-39 0 -61 23.5t-22 58.5zM220 795q0 25 25 38
l135 70q10 6 22 6q17 0 29.5 -13t12.5 -31q0 -24 -24 -37l-136 -70q-14 -6 -22 -6q-17 0 -29.5 13t-12.5 30z" />
    <glyph glyph-name="Ecircumflex" unicode="&#xca;" horiz-adv-x="627" 
d="M91 82v540q0 35 22 58t61 23h335q23 0 39 -15t16 -37t-16.5 -38t-38.5 -16h-310v-193h302q21 0 35.5 -14t14.5 -36q0 -20 -15.5 -35t-34.5 -15h-302v-198h313q21 0 37.5 -16t16.5 -37q0 -22 -15.5 -37.5t-38.5 -15.5h-338q-39 0 -61 23.5t-22 58.5zM180 796q0 21 19 35
l99 75q16 14 33 14q16 0 33 -14l100 -75q19 -14 19 -35q0 -17 -12.5 -30t-30.5 -13q-11 0 -28 10l-81 62l-81 -62q-15 -10 -28 -10q-17 0 -29.5 13t-12.5 30z" />
    <glyph glyph-name="Edieresis" unicode="&#xcb;" horiz-adv-x="627" 
d="M91 82v540q0 35 22 58t61 23h335q23 0 39 -15t16 -37t-16.5 -38t-38.5 -16h-310v-193h302q21 0 35.5 -14t14.5 -36q0 -20 -15.5 -35t-34.5 -15h-302v-198h313q21 0 37.5 -16t16.5 -37q0 -22 -15.5 -37.5t-38.5 -15.5h-338q-39 0 -61 23.5t-22 58.5zM196 813
q0 23 15.5 38.5t38.5 15.5q22 0 38 -15.5t16 -38.5t-15.5 -39t-38.5 -16t-38.5 16t-15.5 39zM364 813q0 23 16 38.5t38 15.5q23 0 38.5 -15.5t15.5 -38.5t-15.5 -39t-38.5 -16t-38.5 16t-15.5 39z" />
    <glyph glyph-name="Igrave" unicode="&#xcc;" horiz-adv-x="285" 
d="M-11 865q0 18 12.5 31t29.5 13q13 0 22 -6l136 -70q24 -13 24 -38q0 -17 -12.5 -30t-29.5 -13q-8 0 -22 6l-135 70q-25 12 -25 37zM88 51v600q0 22 16 38.5t38 16.5q23 0 38.5 -16t15.5 -39v-600q0 -23 -15.5 -39t-38.5 -16q-22 0 -38 16.5t-16 38.5z" />
    <glyph glyph-name="Iacute" unicode="&#xcd;" horiz-adv-x="285" 
d="M61 795q0 25 25 38l135 70q11 6 22 6q17 0 29.5 -13t12.5 -31q0 -24 -24 -37l-136 -70q-14 -6 -22 -6q-17 0 -29.5 13t-12.5 30zM88 51v600q0 22 16 38.5t38 16.5q23 0 38.5 -16t15.5 -39v-600q0 -23 -15.5 -39t-38.5 -16q-22 0 -38 16.5t-16 38.5z" />
    <glyph glyph-name="Icircumflex" unicode="&#xce;" horiz-adv-x="285" 
d="M-10 796q0 21 19 35l99 75q16 14 33 14q16 0 33 -14l100 -75q19 -14 19 -35q0 -17 -12.5 -30t-30.5 -13q-11 0 -28 10l-81 62l-81 -62q-15 -10 -28 -10q-17 0 -29.5 13t-12.5 30zM88 51v600q0 22 16 38.5t38 16.5q23 0 38.5 -16t15.5 -39v-600q0 -23 -15.5 -39t-38.5 -16
q-22 0 -38 16.5t-16 38.5z" />
    <glyph glyph-name="Idieresis" unicode="&#xcf;" horiz-adv-x="285" 
d="M5 814q0 23 15.5 38.5t38.5 15.5t38.5 -16t15.5 -38q0 -23 -15.5 -39t-38.5 -16t-38.5 16t-15.5 39zM88 51v600q0 22 16 38.5t38 16.5q23 0 38.5 -16t15.5 -39v-600q0 -23 -15.5 -39t-38.5 -16q-22 0 -38 16.5t-16 38.5zM173 814q0 22 15.5 38t38.5 16t38.5 -15.5
t15.5 -38.5t-15.5 -39t-38.5 -16t-38.5 16t-15.5 39z" />
    <glyph glyph-name="Eth" unicode="&#xd0;" horiz-adv-x="719" 
d="M-9 350q0 20 13.5 34t35.5 14h51v224q0 36 21.5 58.5t60.5 22.5h161q151 0 232 -80t89 -215q4 -53 1 -109q-9 -136 -89.5 -217.5t-232.5 -81.5h-161q-39 0 -60.5 23t-21.5 59v219h-51q-21 0 -35 14.5t-14 34.5zM198 106h137q103 0 155.5 52t57.5 145q4 57 1 94
q-11 200 -214 200h-137v-199h137q21 0 34.5 -14t13.5 -34q0 -21 -13.5 -35t-34.5 -14h-137v-195z" />
    <glyph glyph-name="Ntilde" unicode="&#xd1;" horiz-adv-x="768" 
d="M91 50v565q0 38 23.5 64t61.5 26q55 0 84 -48l312 -521h2q0 12 -1.5 41t-2 58t-0.5 57v359q0 23 16 39t38 16t37.5 -16t15.5 -39v-566q0 -37 -23 -62.5t-60 -25.5q-54 0 -82 46l-315 528h-3q0 -13 1.5 -44.5t2 -61t0.5 -55.5v-360q0 -23 -15.5 -39t-38.5 -16
q-22 0 -37.5 16.5t-15.5 38.5zM233 805q0 16 17 33q43 38 80 38q28 0 65.5 -18.5t51.5 -18.5q15 0 33 14.5t31 14.5q17 0 28 -12.5t11 -28.5t-17 -33q-41 -38 -80 -38q-25 0 -64 18t-53 18t-32.5 -14t-31.5 -14q-17 0 -28 12.5t-11 28.5z" />
    <glyph glyph-name="Ograve" unicode="&#xd2;" horiz-adv-x="731" 
d="M64 271q-8 81 0 160q9 120 94 201t207 81t208 -81.5t94 -200.5q8 -80 0 -160q-8 -120 -94 -201t-208 -81t-207 80.5t-94 201.5zM171 280q7 -82 60.5 -135t133.5 -53t134 53t61 135q6 72 0 143q-7 82 -61.5 135t-133.5 53t-133 -53t-61 -135q-6 -71 0 -143zM223 865
q0 18 12.5 31t29.5 13q13 0 22 -6l136 -70q24 -13 24 -38q0 -17 -12.5 -30t-29.5 -13q-8 0 -22 6l-135 70q-25 12 -25 37z" />
    <glyph glyph-name="Oacute" unicode="&#xd3;" horiz-adv-x="731" 
d="M64 271q-8 81 0 160q9 120 94 201t207 81t208 -81.5t94 -200.5q8 -80 0 -160q-8 -120 -94 -201t-208 -81t-207 80.5t-94 201.5zM171 280q7 -82 60.5 -135t133.5 -53t134 53t61 135q6 72 0 143q-7 82 -61.5 135t-133.5 53t-133 -53t-61 -135q-6 -71 0 -143zM279 795
q0 25 25 38l135 70q11 6 22 6q17 0 29.5 -13t12.5 -31q0 -24 -24 -37l-136 -70q-14 -6 -22 -6q-17 0 -29.5 13t-12.5 30z" />
    <glyph glyph-name="Ocircumflex" unicode="&#xd4;" horiz-adv-x="731" 
d="M64 271q-8 81 0 160q9 120 94 201t207 81t208 -81.5t94 -200.5q8 -80 0 -160q-8 -120 -94 -201t-208 -81t-207 80.5t-94 201.5zM171 280q7 -82 60.5 -135t133.5 -53t134 53t61 135q6 72 0 143q-7 82 -61.5 135t-133.5 53t-133 -53t-61 -135q-6 -71 0 -143zM216 796
q0 21 19 35l99 75q16 14 33 14q16 0 33 -14l100 -75q19 -14 19 -35q0 -17 -12.5 -30t-30.5 -13q-11 0 -28 10l-81 62l-81 -62q-15 -10 -28 -10q-17 0 -29.5 13t-12.5 30z" />
    <glyph glyph-name="Otilde" unicode="&#xd5;" horiz-adv-x="731" 
d="M64 271q-8 81 0 160q9 120 94 201t207 81t208 -81.5t94 -200.5q8 -80 0 -160q-8 -120 -94 -201t-208 -81t-207 80.5t-94 201.5zM171 280q7 -82 60.5 -135t133.5 -53t134 53t61 135q6 72 0 143q-7 82 -61.5 135t-133.5 53t-133 -53t-61 -135q-6 -71 0 -143zM206 801
q0 16 17 33q43 38 80 38q28 0 65.5 -18.5t51.5 -18.5q15 0 33 14.5t31 14.5q17 0 28 -12.5t11 -28.5t-17 -33q-41 -38 -80 -38q-25 0 -64 18t-53 18t-32.5 -14t-31.5 -14q-17 0 -28 12.5t-11 28.5z" />
    <glyph glyph-name="Odieresis" unicode="&#xd6;" horiz-adv-x="731" 
d="M64 271q-8 81 0 160q9 120 94 201t207 81t208 -81.5t94 -200.5q8 -80 0 -160q-8 -120 -94 -201t-208 -81t-207 80.5t-94 201.5zM171 280q7 -82 60.5 -135t133.5 -53t134 53t61 135q6 72 0 143q-7 82 -61.5 135t-133.5 53t-133 -53t-61 -135q-6 -71 0 -143zM228 814
q0 23 15.5 38.5t38.5 15.5q22 0 38 -16t16 -38q0 -23 -15.5 -39t-38.5 -16t-38.5 16t-15.5 39zM396 814q0 22 16 38t38 16q23 0 38.5 -15.5t15.5 -38.5t-15.5 -39t-38.5 -16t-38.5 16t-15.5 39z" />
    <glyph glyph-name="multiply" unicode="&#xd7;" horiz-adv-x="628" 
d="M82 532q0 22 15 36q17 15 37.5 14.5t35.5 -15.5l144 -144l142 142q16 15 37.5 15t37.5 -16q14 -15 13 -36.5t-15 -35.5l-142 -141l141 -139q15 -14 16 -35.5t-13 -37.5q-16 -16 -37.5 -16t-37.5 15l-142 142l-144 -144q-15 -16 -35.5 -16.5t-37.5 15.5q-14 13 -14 35.5
t15 37.5l144 143l-144 144q-16 15 -16 37z" />
    <glyph glyph-name="Oslash" unicode="&#xd8;" horiz-adv-x="733" 
d="M66 271q-8 81 0 160q9 120 94 201t207 81q81 0 151 -40l13 19q11 16 30 19.5t35 -8.5q16 -10 18.5 -29t-8.5 -36l-15 -23q70 -78 78 -184q8 -80 0 -160q-8 -120 -94 -201t-208 -81q-89 0 -158 43l-14 -22q-11 -16 -30 -19.5t-35 7.5t-18.5 30t8.5 36l18 28
q-65 76 -72 179zM173 280q5 -53 28 -93l261 399q-44 25 -95 25q-79 0 -133 -53t-61 -135q-6 -71 0 -143zM266 119q44 -27 101 -27q80 0 134 53t61 135q6 72 0 143q-4 52 -32 98z" />
    <glyph glyph-name="Ugrave" unicode="&#xd9;" horiz-adv-x="748" 
d="M82 292v359q0 22 16.5 38.5t38.5 16.5t37.5 -16t15.5 -39v-362q0 -90 51.5 -143.5t132.5 -53.5t132 53.5t51 143.5v362q0 23 16 39t38 16q23 0 38.5 -16t15.5 -39v-359q0 -134 -82.5 -218.5t-208.5 -84.5t-209 84.5t-83 218.5zM242 865q0 18 12.5 31t29.5 13q13 0 22 -6
l136 -70q24 -13 24 -38q0 -17 -12.5 -30t-29.5 -13q-8 0 -22 6l-135 70q-25 12 -25 37z" />
    <glyph glyph-name="Uacute" unicode="&#xda;" horiz-adv-x="748" 
d="M82 292v359q0 22 16.5 38.5t38.5 16.5t37.5 -16t15.5 -39v-362q0 -90 51.5 -143.5t132.5 -53.5t132 53.5t51 143.5v362q0 23 16 39t38 16q23 0 38.5 -16t15.5 -39v-359q0 -134 -82.5 -218.5t-208.5 -84.5t-209 84.5t-83 218.5zM277 795q0 25 25 38l135 70q11 6 22 6
q17 0 29.5 -13t12.5 -31q0 -24 -24 -37l-136 -70q-14 -6 -22 -6q-17 0 -29.5 13t-12.5 30z" />
    <glyph glyph-name="Ucircumflex" unicode="&#xdb;" horiz-adv-x="748" 
d="M82 292v359q0 22 16.5 38.5t38.5 16.5t37.5 -16t15.5 -39v-362q0 -90 51.5 -143.5t132.5 -53.5t132 53.5t51 143.5v362q0 23 16 39t38 16q23 0 38.5 -16t15.5 -39v-359q0 -134 -82.5 -218.5t-208.5 -84.5t-209 84.5t-83 218.5zM224 796q0 21 19 35l99 75q16 14 33 14
q16 0 33 -14l100 -75q19 -14 19 -35q0 -17 -12.5 -30t-30.5 -13q-11 0 -28 10l-81 62l-81 -62q-15 -10 -28 -10q-17 0 -29.5 13t-12.5 30z" />
    <glyph glyph-name="Udieresis" unicode="&#xdc;" horiz-adv-x="748" 
d="M82 292v359q0 22 16.5 38.5t38.5 16.5t37.5 -16t15.5 -39v-362q0 -90 51.5 -143.5t132.5 -53.5t132 53.5t51 143.5v362q0 23 16 39t38 16q23 0 38.5 -16t15.5 -39v-359q0 -134 -82.5 -218.5t-208.5 -84.5t-209 84.5t-83 218.5zM236 814q0 23 15.5 38.5t38.5 15.5
q22 0 38 -16t16 -38q0 -23 -15.5 -39t-38.5 -16t-38.5 16t-15.5 39zM404 814q0 22 16 38t38 16q23 0 38.5 -15.5t15.5 -38.5t-15.5 -39t-38.5 -16t-38.5 16t-15.5 39z" />
    <glyph glyph-name="Yacute" unicode="&#xdd;" horiz-adv-x="653" 
d="M14 656.5q2 22.5 19 36.5q17 15 40.5 12.5t37.5 -19.5l215 -270l216 269q14 18 37 20.5t40 -11.5t19.5 -37t-12.5 -41l-219 -267q-2 -3 -6.5 -8t-6 -7.5t-4.5 -6.5t-4.5 -7t-3 -7.5t-2 -9.5t-0.5 -11v-241q0 -23 -15.5 -39t-38.5 -16q-22 0 -38 16.5t-16 38.5v241
q0 7 -1.5 13t-2 9.5t-4.5 9.5l-5 8q-1 1 -7.5 9t-7.5 9l-217 266q-15 18 -13 40.5zM214 795q0 25 25 38l135 70q10 6 22 6q17 0 29.5 -13t12.5 -31q0 -24 -24 -37l-136 -70q-14 -6 -22 -6q-17 0 -29.5 13t-12.5 30z" />
    <glyph glyph-name="Thorn" unicode="&#xde;" horiz-adv-x="646" 
d="M91 51v603q0 23 15.5 39t37.5 16q23 0 38.5 -16t15.5 -39v-76h172q99 0 167 -61t68 -165q0 -107 -67.5 -168t-175.5 -61h-164v-72q0 -23 -15.5 -39.5t-38.5 -16.5q-22 0 -37.5 16.5t-15.5 39.5zM198 226h162q70 0 103 34t33 93q0 58 -33.5 92.5t-98.5 34.5h-166v-254z
" />
    <glyph glyph-name="germandbls" unicode="&#xdf;" horiz-adv-x="678" 
d="M83 50v453q0 100 61 156t173 56q88 0 141.5 -40.5t53.5 -108.5q0 -40 -20 -71t-39.5 -54.5t-19.5 -46.5q0 -24 17.5 -37t68.5 -34q66 -27 94 -66t28 -93q0 -72 -55 -123t-147 -51q-86 0 -157 55q-18 15 -21.5 37t7.5 37q12 17 32.5 20t41.5 -12q19 -14 28 -19.5t27 -11
t41 -5.5q45 0 71.5 20.5t26.5 61.5q0 31 -20.5 49t-69.5 35q-65 21 -92 49.5t-27 76.5q0 36 20 64.5t40 52.5t20 49q0 32 -24 51.5t-70 18.5q-124 -2 -124 -124v-445q0 -23 -15.5 -39t-38.5 -16q-21 0 -36.5 16.5t-15.5 38.5z" />
    <glyph glyph-name="agrave" unicode="&#xe0;" horiz-adv-x="560" 
d="M54 163q0 70 52 118t151 48q56 0 127 -17v33q0 51 -26.5 74t-84.5 23q-47 0 -109 -22q-32 -10 -52.5 2.5t-20.5 37.5q0 33 35 49q62 30 153 30q99 0 153 -47.5t54 -146.5v-260q0 -26 -19 -39q-30 -20 -84.5 -38t-123.5 -18q-99 0 -152 48t-53 125zM158 167
q0 -41 28.5 -62.5t81.5 -21.5q77 0 116 31v111q-68 17 -121 17q-47 0 -76 -20t-29 -55zM159 701q0 18 12.5 31t29.5 13q13 0 22 -6l136 -70q24 -13 24 -38q0 -17 -12.5 -30t-29.5 -13q-8 0 -22 6l-135 70q-25 12 -25 37z" />
    <glyph glyph-name="aacute" unicode="&#xe1;" horiz-adv-x="560" 
d="M54 163q0 70 52 118t151 48q56 0 127 -17v33q0 51 -26.5 74t-84.5 23q-47 0 -109 -22q-32 -10 -52.5 2.5t-20.5 37.5q0 33 35 49q62 30 153 30q99 0 153 -47.5t54 -146.5v-260q0 -26 -19 -39q-30 -20 -84.5 -38t-123.5 -18q-99 0 -152 48t-53 125zM158 167
q0 -41 28.5 -62.5t81.5 -21.5q77 0 116 31v111q-68 17 -121 17q-47 0 -76 -20t-29 -55zM185 631q0 25 25 38l135 70q11 6 22 6q17 0 29.5 -13t12.5 -31q0 -24 -24 -37l-136 -70q-14 -6 -22 -6q-17 0 -29.5 13t-12.5 30z" />
    <glyph glyph-name="acircumflex" unicode="&#xe2;" horiz-adv-x="560" 
d="M54 163q0 70 52 118t151 48q56 0 127 -17v33q0 51 -26.5 74t-84.5 23q-47 0 -109 -22q-32 -10 -52.5 2.5t-20.5 37.5q0 33 35 49q62 30 153 30q99 0 153 -47.5t54 -146.5v-260q0 -26 -19 -39q-30 -20 -84.5 -38t-123.5 -18q-99 0 -152 48t-53 125zM134 619q0 21 19 35
l99 75q16 14 33 14q16 0 33 -14l100 -75q19 -14 19 -35q0 -17 -12.5 -30t-30.5 -13q-11 0 -28 10l-81 62l-81 -62q-15 -10 -28 -10q-17 0 -29.5 13t-12.5 30zM158 167q0 -41 28.5 -62.5t81.5 -21.5q77 0 116 31v111q-68 17 -121 17q-47 0 -76 -20t-29 -55z" />
    <glyph glyph-name="atilde" unicode="&#xe3;" horiz-adv-x="560" 
d="M54 163q0 70 52 118t151 48q56 0 127 -17v33q0 51 -26.5 74t-84.5 23q-47 0 -109 -22q-32 -10 -52.5 2.5t-20.5 37.5q0 33 35 49q62 30 153 30q99 0 153 -47.5t54 -146.5v-260q0 -26 -19 -39q-30 -20 -84.5 -38t-123.5 -18q-99 0 -152 48t-53 125zM124 641q0 16 17 33
q43 38 80 38q28 0 65.5 -18.5t51.5 -18.5q15 0 33 14.5t31 14.5q17 0 28 -12.5t11 -28.5t-17 -33q-41 -38 -80 -38q-25 0 -64 18t-53 18t-32.5 -14t-31.5 -14q-17 0 -28 12.5t-11 28.5zM158 167q0 -41 28.5 -62.5t81.5 -21.5q77 0 116 31v111q-68 17 -121 17q-47 0 -76 -20
t-29 -55z" />
    <glyph glyph-name="adieresis" unicode="&#xe4;" horiz-adv-x="560" 
d="M54 163q0 70 52 118t151 48q56 0 127 -17v33q0 51 -26.5 74t-84.5 23q-47 0 -109 -22q-32 -10 -52.5 2.5t-20.5 37.5q0 33 35 49q62 30 153 30q99 0 153 -47.5t54 -146.5v-260q0 -26 -19 -39q-30 -20 -84.5 -38t-123.5 -18q-99 0 -152 48t-53 125zM146 652
q0 23 15.5 38.5t38.5 15.5q22 0 38 -16t16 -38q0 -23 -15.5 -39t-38.5 -16t-38.5 16t-15.5 39zM158 167q0 -41 28.5 -62.5t81.5 -21.5q77 0 116 31v111q-68 17 -121 17q-47 0 -76 -20t-29 -55zM314 652q0 22 16 38t38 16q23 0 38.5 -15.5t15.5 -38.5t-15.5 -39t-38.5 -16
t-38.5 16t-15.5 39z" />
    <glyph glyph-name="aring" unicode="&#xe5;" horiz-adv-x="560" 
d="M54 163q0 70 52 118t151 48q56 0 127 -17v33q0 51 -26.5 74t-84.5 23q-47 0 -109 -22q-32 -10 -52.5 2.5t-20.5 37.5q0 33 35 49q62 30 153 30q99 0 153 -47.5t54 -146.5v-260q0 -26 -19 -39q-30 -20 -84.5 -38t-123.5 -18q-99 0 -152 48t-53 125zM158 167
q0 -41 28.5 -62.5t81.5 -21.5q77 0 116 31v111q-68 17 -121 17q-47 0 -76 -20t-29 -55zM181 672q0 42 30.5 72t72.5 30q43 0 73.5 -29.5t30.5 -72.5t-30.5 -73t-73.5 -30q-42 0 -72.5 30t-30.5 73zM243 672q0 -18 12 -30.5t29 -12.5t29.5 12.5t12.5 30.5q0 17 -12.5 29.5
t-29.5 12.5t-29 -12.5t-12 -29.5z" />
    <glyph glyph-name="ae" unicode="&#xe6;" horiz-adv-x="889" 
d="M54 165q0 69 51.5 115t151.5 46q56 0 127 -17v37q0 51 -26.5 74.5t-84.5 23.5q-45 0 -109 -23q-32 -10 -52.5 3t-20.5 38q0 31 35 47q66 30 153 30q115 0 166 -71q63 71 166 71q98 0 160 -61.5t62 -164.5v-26q0 -64 -64 -64h-283v-12q0 -59 36 -91.5t96 -32.5
q46 0 115 24q31 12 51.5 -2.5t20.5 -38.5q0 -28 -27 -45q-57 -35 -161 -35q-95 0 -158 60q-32 -23 -85.5 -41.5t-114.5 -18.5q-99 0 -152 49t-53 126zM158 167q0 -41 28.5 -63t82.5 -22q68 0 132 44q-19 46 -19 102q-70 18 -119 18q-47 0 -76 -21t-29 -58zM485 307h233
q10 0 12 12q3 58 -29 92.5t-90 34.5q-63 0 -95 -38t-31 -101z" />
    <glyph glyph-name="ccedilla" unicode="&#xe7;" horiz-adv-x="559" 
d="M65 196q-4 72 0 142q6 89 70.5 145t160.5 56t153.5 -51t57.5 -98q0 -23 -14 -38.5t-36 -15.5q-31 0 -45 29q-33 72 -114 72q-56 0 -89 -29.5t-38 -81.5q-5 -66 0 -118t37.5 -84t89.5 -32q81 0 115 73q15 29 46 29q22 0 36.5 -15.5t14.5 -38.5q0 -42 -50.5 -90.5
t-133.5 -56.5l-13 -35q44 -3 69 -29t25 -66q0 -88 -126 -132q-20 -7 -38.5 2t-18.5 33q0 25 28 36q45 18 59.5 30.5t14.5 28.5q0 9 -8 18t-21 9q-8 0 -17 -2t-16 -2q-18 0 -28.5 15.5t-3.5 33.5l22 61q-80 12 -131.5 68t-57.5 134z" />
    <glyph glyph-name="egrave" unicode="&#xe8;" horiz-adv-x="571" 
d="M66 205q-4 56 0 124q7 96 70 153t158 57q100 0 161 -61.5t61 -162.5v-28q0 -29 -16 -46.5t-48 -17.5h-283v-12q0 -59 36 -91.5t96 -32.5q48 0 115 24q31 12 51.5 -2.5t20.5 -38.5q0 -29 -27 -45q-57 -35 -162 -35q-102 0 -164.5 59.5t-68.5 155.5zM161 701q0 18 12.5 31
t29.5 13q13 0 22 -6l136 -70q24 -13 24 -38q0 -17 -12.5 -30t-29.5 -13q-8 0 -22 6l-135 70q-25 12 -25 37zM169 307h232q11 0 12 12q4 56 -28.5 91t-90.5 35q-63 0 -95 -37t-30 -101z" />
    <glyph glyph-name="eacute" unicode="&#xe9;" horiz-adv-x="571" 
d="M66 205q-4 56 0 124q7 96 70 153t158 57q100 0 161 -61.5t61 -162.5v-28q0 -29 -16 -46.5t-48 -17.5h-283v-12q0 -59 36 -91.5t96 -32.5q48 0 115 24q31 12 51.5 -2.5t20.5 -38.5q0 -29 -27 -45q-57 -35 -162 -35q-102 0 -164.5 59.5t-68.5 155.5zM169 307h232
q11 0 12 12q4 56 -28.5 91t-90.5 35q-63 0 -95 -37t-30 -101zM202 631q0 25 25 38l135 70q10 6 22 6q17 0 29.5 -13t12.5 -31q0 -24 -24 -37l-136 -70q-14 -6 -22 -6q-17 0 -29.5 13t-12.5 30z" />
    <glyph glyph-name="ecircumflex" unicode="&#xea;" horiz-adv-x="571" 
d="M66 205q-4 56 0 124q7 96 70 153t158 57q100 0 161 -61.5t61 -162.5v-28q0 -29 -16 -46.5t-48 -17.5h-283v-12q0 -59 36 -91.5t96 -32.5q48 0 115 24q31 12 51.5 -2.5t20.5 -38.5q0 -29 -27 -45q-57 -35 -162 -35q-102 0 -164.5 59.5t-68.5 155.5zM138 632q0 21 19 35
l99 75q16 14 33 14q16 0 33 -14l100 -75q19 -14 19 -35q0 -17 -12.5 -30t-30.5 -13q-11 0 -28 10l-81 62l-81 -62q-15 -10 -28 -10q-17 0 -29.5 13t-12.5 30zM169 307h232q11 0 12 12q4 56 -28.5 91t-90.5 35q-63 0 -95 -37t-30 -101z" />
    <glyph glyph-name="edieresis" unicode="&#xeb;" horiz-adv-x="571" 
d="M66 205q-4 56 0 124q7 96 70 153t158 57q100 0 161 -61.5t61 -162.5v-28q0 -29 -16 -46.5t-48 -17.5h-283v-12q0 -59 36 -91.5t96 -32.5q48 0 115 24q31 12 51.5 -2.5t20.5 -38.5q0 -29 -27 -45q-57 -35 -162 -35q-102 0 -164.5 59.5t-68.5 155.5zM156 652
q0 23 15.5 38.5t38.5 15.5q22 0 38 -16t16 -38q0 -23 -15.5 -39t-38.5 -16t-38.5 16t-15.5 39zM169 307h232q11 0 12 12q4 56 -28.5 91t-90.5 35q-63 0 -95 -37t-30 -101zM324 652q0 22 16 38t38 16q23 0 38.5 -15.5t15.5 -38.5t-15.5 -39t-38.5 -16t-38.5 16t-15.5 39z" />
    <glyph glyph-name="igrave" unicode="&#xec;" horiz-adv-x="280" 
d="M-2 701q0 18 12.5 31t29.5 13q13 0 22 -6l136 -70q24 -13 24 -38q0 -17 -12.5 -30t-29.5 -13q-8 0 -22 6l-135 70q-25 12 -25 37zM88 50v428q0 23 15 38.5t37 15.5t37.5 -16t15.5 -38v-428q0 -23 -15 -39t-38 -16q-21 0 -36.5 16.5t-15.5 38.5z" />
    <glyph glyph-name="iacute" unicode="&#xed;" horiz-adv-x="280" 
d="M60 631q0 25 25 38l135 70q10 6 22 6q17 0 29.5 -13t12.5 -31q0 -24 -24 -37l-136 -70q-14 -6 -22 -6q-17 0 -29.5 13t-12.5 30zM88 50v428q0 23 15 38.5t37 15.5t37.5 -16t15.5 -38v-428q0 -23 -15 -39t-38 -16q-21 0 -36.5 16.5t-15.5 38.5z" />
    <glyph glyph-name="icircumflex" unicode="&#xee;" horiz-adv-x="280" 
d="M-7 632q0 21 19 35l99 75q16 14 33 14q16 0 33 -14l100 -75q19 -14 19 -35q0 -17 -12.5 -30t-30.5 -13q-11 0 -28 10l-81 62l-81 -62q-15 -10 -28 -10q-17 0 -29.5 13t-12.5 30zM88 50v428q0 23 15 38.5t37 15.5t37.5 -16t15.5 -38v-428q0 -23 -15 -39t-38 -16
q-21 0 -36.5 16.5t-15.5 38.5z" />
    <glyph glyph-name="idieresis" unicode="&#xef;" horiz-adv-x="280" 
d="M5 652q0 23 15.5 38.5t38.5 15.5t38.5 -16t15.5 -38q0 -23 -15.5 -39t-38.5 -16t-38.5 16t-15.5 39zM88 50v428q0 23 15 38.5t37 15.5t37.5 -16t15.5 -38v-428q0 -23 -15 -39t-38 -16q-21 0 -36.5 16.5t-15.5 38.5zM173 652q0 22 15.5 38t38.5 16t38.5 -15.5t15.5 -38.5
t-15.5 -39t-38.5 -16t-38.5 16t-15.5 39z" />
    <glyph glyph-name="eth" unicode="&#xf0;" horiz-adv-x="605" 
d="M65 310q7 88 69 142.5t156 54.5q74 0 132 -47q-2 71 -40 118l-67 -29q-17 -7 -34.5 -1.5t-25.5 21.5q-7 17 -0.5 34t24.5 25l30 13l-7 5q-20 13 -25 33t4 33q8 16 25.5 21.5t36.5 -2.5q40 -21 67 -45l54 24q16 7 34 1.5t25 -22.5t0.5 -34t-23.5 -24l-31 -14
q50 -80 50 -205v-204q0 -95 -65 -156.5t-162 -61.5q-92 0 -155.5 58t-70.5 145q-4 55 -1 117zM173 201q4 -49 36.5 -79t82.5 -30t82.5 30.5t37.5 79.5q3 48 0 96q-4 48 -36.5 78t-83.5 30t-83 -30t-36 -78q-4 -59 0 -97z" />
    <glyph glyph-name="ntilde" unicode="&#xf1;" 
d="M81 50v393q0 27 21 41q27 21 81.5 38t125.5 17q108 0 163.5 -54.5t55.5 -156.5v-278q0 -23 -15 -38.5t-38 -15.5q-21 0 -37 16t-16 38v273q0 57 -33 85.5t-83 28.5q-73 0 -119 -28v-359q0 -23 -15.5 -38.5t-37.5 -15.5q-21 0 -37 16t-16 38zM138 641q0 16 17 33
q43 38 80 38q28 0 65.5 -18.5t51.5 -18.5q15 0 33 14.5t31 14.5q17 0 28 -12.5t11 -28.5t-17 -33q-41 -38 -80 -38q-25 0 -64 18t-53 18t-32.5 -14t-31.5 -14q-17 0 -28 12.5t-11 28.5z" />
    <glyph glyph-name="ograve" unicode="&#xf2;" horiz-adv-x="593" 
d="M65 195q-4 72 0 143q7 89 71.5 145t159.5 56q96 0 160.5 -56t70.5 -145q5 -71 0 -143q-6 -88 -71 -146.5t-160 -58.5q-94 0 -159 58.5t-72 146.5zM171 208q5 -53 38 -84.5t87 -31.5t87.5 31.5t38.5 84.5q3 38 0 116q-3 50 -37 81.5t-89 31.5q-54 0 -87.5 -31t-37.5 -82
q-5 -71 0 -116zM171 701q0 18 12.5 31t29.5 13q13 0 22 -6l136 -70q24 -13 24 -38q0 -17 -12.5 -30t-29.5 -13q-8 0 -22 6l-135 70q-25 12 -25 37z" />
    <glyph glyph-name="oacute" unicode="&#xf3;" horiz-adv-x="593" 
d="M65 195q-4 72 0 143q7 89 71.5 145t159.5 56q96 0 160.5 -56t70.5 -145q5 -71 0 -143q-6 -88 -71 -146.5t-160 -58.5q-94 0 -159 58.5t-72 146.5zM171 208q5 -53 38 -84.5t87 -31.5t87.5 31.5t38.5 84.5q3 38 0 116q-3 50 -37 81.5t-89 31.5q-54 0 -87.5 -31t-37.5 -82
q-5 -71 0 -116zM193 631q0 25 25 38l135 70q11 6 22 6q17 0 29.5 -13t12.5 -31q0 -24 -24 -37l-136 -70q-14 -6 -22 -6q-17 0 -29.5 13t-12.5 30z" />
    <glyph glyph-name="ocircumflex" unicode="&#xf4;" horiz-adv-x="593" 
d="M65 195q-4 72 0 143q7 89 71.5 145t159.5 56q96 0 160.5 -56t70.5 -145q5 -71 0 -143q-6 -88 -71 -146.5t-160 -58.5q-94 0 -159 58.5t-72 146.5zM146 631q0 21 19 35l99 75q16 14 33 14q16 0 33 -14l100 -75q19 -14 19 -35q0 -17 -12.5 -30t-30.5 -13q-11 0 -28 10
l-81 62l-81 -62q-15 -10 -28 -10q-17 0 -29.5 13t-12.5 30zM171 208q5 -53 38 -84.5t87 -31.5t87.5 31.5t38.5 84.5q3 38 0 116q-3 50 -37 81.5t-89 31.5q-54 0 -87.5 -31t-37.5 -82q-5 -71 0 -116z" />
    <glyph glyph-name="otilde" unicode="&#xf5;" horiz-adv-x="593" 
d="M65 195q-4 72 0 143q7 89 71.5 145t159.5 56q96 0 160.5 -56t70.5 -145q5 -71 0 -143q-6 -88 -71 -146.5t-160 -58.5q-94 0 -159 58.5t-72 146.5zM136 641q0 16 17 33q43 38 80 38q28 0 65.5 -18.5t51.5 -18.5q15 0 33 14.5t31 14.5q17 0 28 -12.5t11 -28.5t-17 -33
q-41 -38 -80 -38q-25 0 -64 18t-53 18t-32.5 -14t-31.5 -14q-17 0 -28 12.5t-11 28.5zM171 208q5 -53 38 -84.5t87 -31.5t87.5 31.5t38.5 84.5q3 38 0 116q-3 50 -37 81.5t-89 31.5q-54 0 -87.5 -31t-37.5 -82q-5 -71 0 -116z" />
    <glyph glyph-name="odieresis" unicode="&#xf6;" horiz-adv-x="593" 
d="M65 195q-4 72 0 143q7 89 71.5 145t159.5 56q96 0 160.5 -56t70.5 -145q5 -71 0 -143q-6 -88 -71 -146.5t-160 -58.5q-94 0 -159 58.5t-72 146.5zM158 652q0 23 15.5 38.5t38.5 15.5q22 0 38 -16t16 -38q0 -23 -15.5 -39t-38.5 -16t-38.5 16t-15.5 39zM171 208
q5 -53 38 -84.5t87 -31.5t87.5 31.5t38.5 84.5q3 38 0 116q-3 50 -37 81.5t-89 31.5q-54 0 -87.5 -31t-37.5 -82q-5 -71 0 -116zM326 652q0 22 16 38t38 16q23 0 38.5 -15.5t15.5 -38.5t-15.5 -39t-38.5 -16t-38.5 16t-15.5 39z" />
    <glyph glyph-name="divide" unicode="&#xf7;" horiz-adv-x="628" 
d="M60 350q0 22 15 36.5t37 14.5h404q22 0 37 -14.5t15 -36.5q0 -21 -15.5 -36t-36.5 -15h-404q-22 0 -37 15t-15 36zM251 154q0 26 18.5 44.5t44.5 18.5t44.5 -18.5t18.5 -44.5t-18.5 -44.5t-44.5 -18.5t-44.5 18.5t-18.5 44.5zM251 547q0 25 18.5 44t44.5 19t44.5 -19
t18.5 -44t-18.5 -44t-44.5 -19t-44.5 19t-18.5 44z" />
    <glyph glyph-name="oslash" unicode="&#xf8;" horiz-adv-x="596" 
d="M60.5 38.5q-0.5 19.5 11.5 32.5l24 28q-26 46 -29 96q-4 72 0 143q7 89 71.5 145t159.5 56q80 0 141 -41l17 20q13 15 32 16.5t32 -10.5q15 -11 15 -31.5t-12 -33.5l-23 -26q24 -40 29 -95q5 -71 0 -143q-6 -88 -71 -146.5t-160 -58.5q-79 0 -141 43l-18 -21
q-13 -15 -32 -16t-32 11q-14 12 -14.5 31.5zM170 324q-7 -98 3 -136l197 230q-32 19 -72 19q-55 0 -89.5 -31.5t-38.5 -81.5zM224 111q29 -19 74 -19q54 0 89 31.5t40 84.5q6 87 -3 136z" />
    <glyph glyph-name="ugrave" unicode="&#xf9;" 
d="M76 203v273q0 24 14 40t38 16q23 0 38.5 -16t15.5 -40v-272q0 -52 31 -82t85 -30q65 0 119 33v352q0 23 15.5 39t37.5 16t37.5 -16t15.5 -39v-387q0 -27 -20 -40q-86 -60 -206 -60q-102 0 -161.5 56t-59.5 157zM178 701q0 18 12.5 31t29.5 13q13 0 22 -6l136 -70
q24 -13 24 -38q0 -17 -12.5 -30t-29.5 -13q-8 0 -22 6l-135 70q-25 12 -25 37z" />
    <glyph glyph-name="uacute" unicode="&#xfa;" 
d="M76 203v273q0 24 14 40t38 16q23 0 38.5 -16t15.5 -40v-272q0 -52 31 -82t85 -30q65 0 119 33v352q0 23 15.5 39t37.5 16t37.5 -16t15.5 -39v-387q0 -27 -20 -40q-86 -60 -206 -60q-102 0 -161.5 56t-59.5 157zM207 631q0 25 25 38l135 70q11 6 22 6q17 0 29.5 -13
t12.5 -31q0 -24 -24 -37l-136 -70q-14 -6 -22 -6q-17 0 -29.5 13t-12.5 30z" />
    <glyph glyph-name="ucircumflex" unicode="&#xfb;" 
d="M76 203v273q0 24 14 40t38 16q23 0 38.5 -16t15.5 -40v-272q0 -52 31 -82t85 -30q65 0 119 33v352q0 23 15.5 39t37.5 16t37.5 -16t15.5 -39v-387q0 -27 -20 -40q-86 -60 -206 -60q-102 0 -161.5 56t-59.5 157zM150 632q0 21 19 35l99 75q16 14 33 14q16 0 33 -14
l100 -75q19 -14 19 -35q0 -17 -12.5 -30t-30.5 -13q-11 0 -28 10l-81 62l-81 -62q-15 -10 -28 -10q-17 0 -29.5 13t-12.5 30z" />
    <glyph glyph-name="udieresis" unicode="&#xfc;" 
d="M76 203v273q0 24 14 40t38 16q23 0 38.5 -16t15.5 -40v-272q0 -52 31 -82t85 -30q65 0 119 33v352q0 23 15.5 39t37.5 16t37.5 -16t15.5 -39v-387q0 -27 -20 -40q-86 -60 -206 -60q-102 0 -161.5 56t-59.5 157zM165 652q0 23 15.5 38.5t38.5 15.5t38.5 -16t15.5 -38
q0 -23 -15.5 -39t-38.5 -16t-38.5 16t-15.5 39zM333 652q0 22 15.5 38t38.5 16t38.5 -15.5t15.5 -38.5t-15.5 -39t-38.5 -16t-38.5 16t-15.5 39z" />
    <glyph glyph-name="yacute" unicode="&#xfd;" horiz-adv-x="524" 
d="M25 455q-12 29 4.5 53t43.5 24q40 0 54 -40l135 -323q2 -3 4 -3q4 0 5 3l124 321q15 42 54 42q30 0 46 -24.5t4 -52.5l-188 -447q-28 -68 -65.5 -117.5t-70.5 -70.5q-23 -15 -45 -15q-21 0 -35.5 14t-14.5 36q0 28 22 43q68 42 105 138zM204 632q0 26 25 38l135 70
q10 6 22 6q17 0 29.5 -13t12.5 -31q0 -24 -24 -37l-136 -70q-14 -6 -22 -6q-17 0 -29.5 13t-12.5 30z" />
    <glyph glyph-name="thorn" unicode="&#xfe;" horiz-adv-x="600" 
d="M83 -143v802q0 23 15.5 38.5t37.5 15.5t37.5 -16t15.5 -38v-149q64 29 123 29q98 0 156 -54t66 -148q7 -80 0 -144q-8 -95 -65 -149t-156 -54q-55 0 -124 30v-163q0 -23 -15 -38.5t-38 -15.5q-21 0 -37 16t-16 38zM189 125q51 -33 117 -33q115 0 123 112q3 75 0 118
q-9 115 -122 115q-31 0 -65.5 -12t-52.5 -25v-275z" />
    <glyph glyph-name="ydieresis" unicode="&#xff;" horiz-adv-x="524" 
d="M25 455q-12 29 4.5 53t43.5 24q40 0 54 -40l135 -323q2 -3 4 -3q4 0 5 3l124 321q15 42 54 42q30 0 46 -24.5t4 -52.5l-188 -447q-28 -68 -65.5 -117.5t-70.5 -70.5q-23 -15 -45 -15q-21 0 -35.5 14t-14.5 36q0 28 22 43q68 42 105 138zM128 652q0 23 15.5 38.5
t38.5 15.5q22 0 38 -16t16 -38q0 -23 -15.5 -39t-38.5 -16t-38.5 16t-15.5 39zM296 652q0 22 16 38t38 16q23 0 38.5 -15.5t15.5 -38.5t-15.5 -39t-38.5 -16t-38.5 16t-15.5 39z" />
    <glyph glyph-name="Amacron" unicode="&#x100;" horiz-adv-x="683" 
d="M26 72l200 556q30 86 116 86q85 0 116 -86l199 -556q7 -20 -1.5 -41t-28.5 -29q-21 -8 -42 1t-28 30l-66 187h-300l-66 -188q-8 -20 -28.5 -29t-40.5 -1q-21 8 -29.5 28.5t-0.5 41.5zM217 812q0 19 12.5 31t31.5 12h161q19 0 31.5 -12t12.5 -31t-12.5 -31.5t-31.5 -12.5
h-161q-19 0 -31.5 12.5t-12.5 31.5zM225 318h232l-95 271q-5 15 -20 15q-16 0 -21 -15z" />
    <glyph glyph-name="amacron" unicode="&#x101;" horiz-adv-x="560" 
d="M54 163q0 70 52 118t151 48q56 0 127 -17v33q0 51 -26.5 74t-84.5 23q-47 0 -109 -22q-32 -10 -52.5 2.5t-20.5 37.5q0 33 35 49q62 30 153 30q99 0 153 -47.5t54 -146.5v-260q0 -26 -19 -39q-30 -20 -84.5 -38t-123.5 -18q-99 0 -152 48t-53 125zM158 167
q0 -41 28.5 -62.5t81.5 -21.5q77 0 116 31v111q-68 17 -121 17q-47 0 -76 -20t-29 -55zM160 649q0 19 12.5 31t31.5 12h161q19 0 31.5 -12t12.5 -31t-12.5 -31.5t-31.5 -12.5h-161q-19 0 -31.5 12.5t-12.5 31.5z" />
    <glyph glyph-name="Abreve" unicode="&#x102;" horiz-adv-x="683" 
d="M26 72l200 556q30 86 116 86q85 0 116 -86l199 -556q7 -20 -1.5 -41t-28.5 -29q-21 -8 -42 1t-28 30l-66 187h-300l-66 -188q-8 -20 -28.5 -29t-40.5 -1q-21 8 -29.5 28.5t-0.5 41.5zM206 862q0 17 12 29.5t29 12.5q32 0 40 -30q14 -44 55 -44t55 44q8 30 40 30
q17 0 29 -12.5t12 -29.5q0 -7 -3 -16q-14 -41 -49.5 -68t-83.5 -27t-83.5 27t-49.5 68q-3 9 -3 16zM225 318h232l-95 271q-5 15 -20 15q-16 0 -21 -15z" />
    <glyph glyph-name="abreve" unicode="&#x103;" horiz-adv-x="560" 
d="M54 163q0 70 52 118t151 48q56 0 127 -17v33q0 51 -26.5 74t-84.5 23q-47 0 -109 -22q-32 -10 -52.5 2.5t-20.5 37.5q0 33 35 49q62 30 153 30q99 0 153 -47.5t54 -146.5v-260q0 -26 -19 -39q-30 -20 -84.5 -38t-123.5 -18q-99 0 -152 48t-53 125zM146 698q0 17 12 29.5
t29 12.5q32 0 40 -30q14 -44 55 -44t55 44q8 30 40 30q17 0 29 -12.5t12 -29.5q0 -7 -3 -16q-14 -41 -49.5 -68t-83.5 -27t-83.5 27t-49.5 68q-3 9 -3 16zM158 167q0 -41 28.5 -62.5t81.5 -21.5q77 0 116 31v111q-68 17 -121 17q-47 0 -76 -20t-29 -55z" />
    <glyph glyph-name="Aogonek" unicode="&#x104;" horiz-adv-x="702" 
d="M26 72l200 556q30 86 116 86q85 0 116 -86l197 -553q17 -46 -24 -70q-89 -48 -89 -95q0 -22 13.5 -34t33.5 -12q18 0 35 11q12 8 26 6t23 -13q9 -13 6 -28t-15 -25q-38 -28 -86 -28q-49 0 -82.5 33t-33.5 84q0 80 93 135l-64 181h-300l-66 -188q-7 -20 -28 -29t-41 -1
q-21 8 -29.5 28.5t-0.5 41.5zM225 318h232l-95 271q-5 15 -20 15q-16 0 -21 -15z" />
    <glyph glyph-name="aogonek" unicode="&#x105;" horiz-adv-x="560" 
d="M54 164q0 70 51.5 117t151.5 47q48 0 127 -19v36q0 51 -26.5 74.5t-84.5 23.5q-45 0 -109 -23q-32 -10 -52.5 3t-20.5 38q0 32 35 48q62 30 153 30q99 0 153 -47.5t54 -146.5v-269q0 -28 -36 -45q-93 -42 -93 -116q0 -26 13.5 -39t33.5 -13q17 0 35 12q27 18 49 -7
q9 -13 6 -28t-15 -25q-38 -28 -86 -28q-49 0 -83 33t-34 84q0 46 28 89q-14 -2 -45 -2q-99 0 -152 48t-53 125zM158 168q0 -41 28.5 -63t81.5 -22q66 0 116 25v119q-72 18 -121 18q-47 0 -76 -20.5t-29 -56.5z" />
    <glyph glyph-name="Cacute" unicode="&#x106;" horiz-adv-x="664" 
d="M64 271q-8 81 0 160q9 121 89.5 201.5t201.5 80.5q86 0 157 -44t101 -119q6 -12 6 -27q0 -21 -16.5 -35.5t-35.5 -14.5q-31 0 -49 32q-22 49 -65.5 77.5t-97.5 28.5q-78 0 -127.5 -53.5t-56.5 -136.5q-5 -71 0 -142q7 -84 56 -135.5t128 -51.5q54 0 97.5 28.5t65.5 76.5
q18 32 49 32q19 0 35.5 -14.5t16.5 -35.5q0 -14 -6 -27q-30 -75 -101 -119t-156 -44q-122 0 -202.5 80t-89.5 202zM273 795q0 25 25 38l135 70q11 6 22 6q17 0 29.5 -13t12.5 -31q0 -24 -24 -37l-136 -70q-14 -6 -22 -6q-17 0 -29.5 13t-12.5 30z" />
    <glyph glyph-name="cacute" unicode="&#x107;" horiz-adv-x="559" 
d="M65 196q-4 72 0 142q6 89 70.5 145t160.5 56t153.5 -51t57.5 -98q0 -23 -14 -38.5t-36 -15.5q-31 0 -45 29q-33 72 -114 72q-56 0 -89 -29.5t-38 -80.5q-5 -66 0 -119q5 -52 37.5 -84t89.5 -32q82 0 115 72q15 29 46 29q22 0 36 -15.5t14 -38.5q0 -47 -58.5 -98
t-154.5 -51t-160 59t-71 147zM206 631q0 25 25 38l135 70q10 6 22 6q17 0 29.5 -13t12.5 -31q0 -24 -24 -37l-136 -70q-14 -6 -22 -6q-17 0 -29.5 13t-12.5 30z" />
    <glyph glyph-name="Cdotaccent" unicode="&#x10a;" horiz-adv-x="664" 
d="M64 271q-8 81 0 160q9 121 89.5 201.5t201.5 80.5q86 0 157 -44t101 -119q6 -12 6 -27q0 -21 -16.5 -35.5t-35.5 -14.5q-31 0 -49 32q-22 49 -65.5 77.5t-97.5 28.5q-78 0 -127.5 -53.5t-56.5 -136.5q-5 -71 0 -142q7 -84 56 -135.5t128 -51.5q54 0 97.5 28.5t65.5 76.5
q18 32 49 32q19 0 35.5 -14.5t16.5 -35.5q0 -14 -6 -27q-30 -75 -101 -119t-156 -44q-122 0 -202.5 80t-89.5 202zM298 814q0 22 16 38t38 16t38 -16t16 -38q0 -23 -15.5 -39t-38.5 -16t-38.5 16t-15.5 39z" />
    <glyph glyph-name="cdotaccent" unicode="&#x10b;" horiz-adv-x="559" 
d="M65 196q-4 72 0 142q6 89 70.5 145t160.5 56t153.5 -51t57.5 -98q0 -23 -14 -38.5t-36 -15.5q-31 0 -45 29q-33 72 -114 72q-56 0 -89 -29.5t-38 -80.5q-5 -66 0 -119q5 -52 37.5 -84t89.5 -32q82 0 115 72q15 29 46 29q22 0 36 -15.5t14 -38.5q0 -47 -58.5 -98
t-154.5 -51t-160 59t-71 147zM239 652q0 22 15.5 38t38.5 16t38.5 -16t15.5 -38q0 -23 -15.5 -39t-38.5 -16t-38.5 16t-15.5 39z" />
    <glyph glyph-name="Ccaron" unicode="&#x10c;" horiz-adv-x="664" 
d="M64 271q-8 81 0 160q9 121 89.5 201.5t201.5 80.5q86 0 157 -44t101 -119q6 -12 6 -27q0 -21 -16.5 -35.5t-35.5 -14.5q-31 0 -49 32q-22 49 -65.5 77.5t-97.5 28.5q-78 0 -127.5 -53.5t-56.5 -136.5q-5 -71 0 -142q7 -84 56 -135.5t128 -51.5q54 0 97.5 28.5t65.5 76.5
q18 32 49 32q19 0 35.5 -14.5t16.5 -35.5q0 -14 -6 -27q-30 -75 -101 -119t-156 -44q-122 0 -202.5 80t-89.5 202zM197 877q0 17 12.5 30t29.5 13q14 0 28 -11l81 -61l81 61q16 11 28 11q18 0 30.5 -13t12.5 -30q0 -22 -19 -35l-100 -75q-17 -14 -33 -14q-17 0 -33 14
l-99 75q-19 13 -19 35z" />
    <glyph glyph-name="ccaron" unicode="&#x10d;" horiz-adv-x="559" 
d="M65 196q-4 72 0 142q6 89 70.5 145t160.5 56t153.5 -51t57.5 -98q0 -23 -14 -38.5t-36 -15.5q-31 0 -45 29q-33 72 -114 72q-56 0 -89 -29.5t-38 -80.5q-5 -66 0 -119q5 -52 37.5 -84t89.5 -32q82 0 115 72q15 29 46 29q22 0 36 -15.5t14 -38.5q0 -47 -58.5 -98
t-154.5 -51t-160 59t-71 147zM139 713q0 17 12.5 30t29.5 13q14 0 28 -11l81 -61l81 61q16 11 28 11q18 0 30.5 -13t12.5 -30q0 -22 -19 -35l-100 -75q-17 -14 -33 -14q-17 0 -33 14l-99 75q-19 13 -19 35z" />
    <glyph glyph-name="Dcaron" unicode="&#x10e;" horiz-adv-x="718" 
d="M91 82v540q0 36 21.5 58.5t60.5 22.5h161q151 0 232 -80t89 -215q4 -53 1 -109q-9 -136 -89.5 -217.5t-232.5 -81.5h-161q-39 0 -60.5 23t-21.5 59zM196 877q0 17 12.5 30t29.5 13q14 0 28 -11l81 -61l81 61q16 11 28 11q18 0 30.5 -13t12.5 -30q0 -22 -19 -35l-100 -75
q-17 -14 -33 -14q-17 0 -33 14l-99 75q-19 13 -19 35zM199 106h136q103 0 155.5 52t57.5 145q4 57 1 94q-11 200 -214 200h-136v-491z" />
    <glyph glyph-name="dcaron" unicode="&#x10f;" horiz-adv-x="661" 
d="M66 196q-6 70 0 142q8 95 63.5 148t150.5 53q67 0 131 -29v150q0 22 15.5 38t37.5 16t37.5 -15.5t15.5 -38.5v-568q0 -27 -19 -40q-29 -21 -84.5 -41.5t-119.5 -20.5q-99 0 -159.5 56t-68.5 150zM172 209q9 -117 124 -117q30 0 64 11.5t51 24.5v278q-50 31 -123 31
q-110 0 -116 -111q-5 -66 0 -117zM573 592q0 10 14 38t14 55v27q0 21 12.5 34.5t33.5 13.5t33.5 -13.5t12.5 -34.5v-23q0 -57 -30 -108q-17 -30 -46 -30q-19 0 -31.5 12t-12.5 29z" />
    <glyph glyph-name="Dcroat" unicode="&#x110;" horiz-adv-x="716" 
d="M-11 350q0 20 13.5 34t35.5 14h51v223q0 35 22 58.5t61 23.5h160q151 0 232.5 -80t89.5 -215q3 -56 0 -111q-9 -135 -90 -216t-232 -81h-160q-39 0 -61 23.5t-22 58.5v219h-51q-21 0 -35 14t-14 35zM196 106h137q201 0 214 197q3 50 0 98q-13 196 -214 196h-137v-199h137
q21 0 34.5 -14t13.5 -34q0 -21 -13.5 -35t-34.5 -14h-137v-195z" />
    <glyph glyph-name="dcroat" unicode="&#x111;" 
d="M66 196q-6 70 0 142q8 95 63.5 148t150.5 53q67 0 131 -29v66h-86q-20 0 -33.5 13t-13.5 33q0 19 13.5 32t33.5 13h89v11q0 17 14.5 34t36.5 17q23 0 37.5 -17t14.5 -34v-11h19q17 0 30.5 -12.5t13.5 -32.5q0 -21 -13.5 -33.5t-31.5 -12.5h-18v-484q0 -27 -19 -40
q-29 -21 -84 -41.5t-120 -20.5q-99 0 -159.5 56t-68.5 150zM172 209q9 -117 124 -117q30 0 64 11.5t51 24.5v278q-50 31 -123 31q-57 0 -84.5 -28t-31.5 -85q-5 -63 0 -115z" />
    <glyph glyph-name="Emacron" unicode="&#x112;" horiz-adv-x="627" 
d="M91 82v540q0 35 22 58t61 23h335q23 0 39 -15t16 -37t-16.5 -38t-38.5 -16h-310v-193h302q21 0 35.5 -14t14.5 -36q0 -20 -15.5 -35t-34.5 -15h-302v-198h313q21 0 37.5 -16t16.5 -37q0 -22 -15.5 -37.5t-38.5 -15.5h-338q-39 0 -61 23.5t-22 58.5zM208 812q0 19 12.5 31
t31.5 12h161q19 0 31.5 -12t12.5 -31t-12.5 -31.5t-31.5 -12.5h-161q-19 0 -31.5 12.5t-12.5 31.5z" />
    <glyph glyph-name="emacron" unicode="&#x113;" horiz-adv-x="571" 
d="M66 205q-4 56 0 124q7 96 70 153t158 57q100 0 161 -61.5t61 -162.5v-28q0 -29 -16 -46.5t-48 -17.5h-283v-12q0 -59 36 -91.5t96 -32.5q48 0 115 24q31 12 51.5 -2.5t20.5 -38.5q0 -29 -27 -45q-57 -35 -162 -35q-102 0 -164.5 59.5t-68.5 155.5zM164 650q0 19 12.5 31
t31.5 12h161q19 0 31.5 -12t12.5 -31t-12.5 -31.5t-31.5 -12.5h-161q-19 0 -31.5 12.5t-12.5 31.5zM169 307h232q11 0 12 12q4 56 -28.5 91t-90.5 35q-63 0 -95 -37t-30 -101z" />
    <glyph glyph-name="Edotaccent" unicode="&#x116;" horiz-adv-x="627" 
d="M91 82v540q0 35 22 58t61 23h335q23 0 39 -15t16 -37t-16.5 -38t-38.5 -16h-310v-193h302q21 0 35.5 -14t14.5 -36q0 -20 -15.5 -35t-34.5 -15h-302v-198h313q21 0 37.5 -16t16.5 -37q0 -22 -15.5 -37.5t-38.5 -15.5h-338q-39 0 -61 23.5t-22 58.5zM285 814q0 22 15.5 38
t38.5 16t38.5 -16t15.5 -38q0 -23 -15.5 -39t-38.5 -16t-38.5 16t-15.5 39z" />
    <glyph glyph-name="edotaccent" unicode="&#x117;" horiz-adv-x="571" 
d="M66 205q-4 56 0 124q7 96 70 153t158 57q100 0 161 -61.5t61 -162.5v-28q0 -29 -16 -46.5t-48 -17.5h-283v-12q0 -59 36 -91.5t96 -32.5q48 0 115 24q31 12 51.5 -2.5t20.5 -38.5q0 -29 -27 -45q-57 -35 -162 -35q-102 0 -164.5 59.5t-68.5 155.5zM169 307h232
q11 0 12 12q4 56 -28.5 91t-90.5 35q-63 0 -95 -37t-30 -101zM234 651q0 23 16 38.5t38 15.5t38 -15.5t16 -38.5t-15.5 -39t-38.5 -16t-38.5 16t-15.5 39z" />
    <glyph glyph-name="Eogonek" unicode="&#x118;" horiz-adv-x="632" 
d="M91 82v540q0 35 22 58t61 23h335q23 0 39 -15t16 -37t-16.5 -38t-38.5 -16h-311v-195h303q21 0 35.5 -13.5t14.5 -34.5q0 -19 -15 -34t-35 -15h-303v-199h314q21 0 37.5 -16t16.5 -37q0 -35 -30 -47q-43 -16 -72 -42.5t-29 -55.5q0 -21 13 -32.5t32 -11.5t35 11
q13 8 26.5 6t22.5 -13q10 -13 7 -28t-16 -25q-36 -28 -85 -28t-82 32t-33 81q0 60 53 100h-234q-39 0 -61 23.5t-22 58.5z" />
    <glyph glyph-name="eogonek" unicode="&#x119;" horiz-adv-x="572" 
d="M66 205q-4 79 0 126q8 95 71 151.5t158 56.5q100 0 160.5 -61.5t60.5 -162.5v-29q0 -63 -63 -63h-283v-12q0 -59 35.5 -91.5t96.5 -32.5q45 0 114 24q31 12 51.5 -2.5t20.5 -38.5q0 -30 -27 -45q-53 -28 -80.5 -52.5t-27.5 -61.5q0 -23 13 -35t32 -12q17 0 34 11
q12 8 26 6t23 -13q20 -27 -10.5 -54t-84.5 -27q-48 0 -81.5 31t-33.5 80q0 50 39 94q-105 -5 -171 53.5t-73 159.5zM170 307h232q10 0 11 10q4 57 -28.5 92t-89.5 35q-65 0 -96 -35.5t-29 -101.5z" />
    <glyph glyph-name="Ecaron" unicode="&#x11a;" horiz-adv-x="627" 
d="M91 82v540q0 35 22 58t61 23h335q23 0 39 -15t16 -37t-16.5 -38t-38.5 -16h-310v-193h302q21 0 35.5 -14t14.5 -36q0 -20 -15.5 -35t-34.5 -15h-302v-198h313q21 0 37.5 -16t16.5 -37q0 -22 -15.5 -37.5t-38.5 -15.5h-338q-39 0 -61 23.5t-22 58.5zM190 877q0 17 12.5 30
t29.5 13q14 0 28 -11l81 -61l81 61q16 11 28 11q18 0 30.5 -13t12.5 -30q0 -22 -19 -35l-100 -75q-17 -14 -33 -14q-17 0 -33 14l-99 75q-19 13 -19 35z" />
    <glyph glyph-name="ecaron" unicode="&#x11b;" horiz-adv-x="571" 
d="M66 205q-4 56 0 124q7 96 70 153t158 57q100 0 161 -61.5t61 -162.5v-28q0 -29 -16 -46.5t-48 -17.5h-283v-12q0 -59 36 -91.5t96 -32.5q48 0 115 24q31 12 51.5 -2.5t20.5 -38.5q0 -29 -27 -45q-57 -35 -162 -35q-102 0 -164.5 59.5t-68.5 155.5zM140 712q0 17 12.5 30
t29.5 13q14 0 28 -11l81 -61l81 61q16 11 28 11q18 0 30.5 -13t12.5 -30q0 -22 -19 -35l-100 -75q-17 -14 -33 -14q-17 0 -33 14l-99 75q-19 13 -19 35zM169 307h232q11 0 12 12q4 56 -28.5 91t-90.5 35q-63 0 -95 -37t-30 -101z" />
    <glyph glyph-name="Gbreve" unicode="&#x11e;" horiz-adv-x="700" 
d="M64 271q-8 81 0 160q9 120 92 201t205 81q85 0 151 -39.5t102 -109.5q8 -13 8 -29q0 -20 -15.5 -35.5t-36.5 -15.5q-28 0 -45 27q-53 100 -163 100q-80 0 -131.5 -52.5t-59.5 -137.5q-6 -73 0 -143q8 -83 60 -134.5t133 -51.5q77 0 123.5 40t46.5 100v48h-120
q-22 0 -37 15.5t-15 36.5q0 22 15 36.5t37 14.5h145q38 0 59 -22.5t21 -56.5v-61q0 -107 -78.5 -180.5t-199.5 -73.5q-122 0 -205 80.5t-92 201.5zM223 862q0 17 12 29.5t29 12.5q32 0 40 -30q14 -44 55 -44t55 44q8 30 40 30q17 0 29 -12.5t12 -29.5q0 -7 -3 -16
q-14 -41 -49.5 -68t-83.5 -27t-83.5 27t-49.5 68q-3 9 -3 16z" />
    <glyph glyph-name="gbreve" unicode="&#x11f;" horiz-adv-x="600" 
d="M65 205q-3 64 0 128q7 91 67 148.5t153 57.5q70 0 126 -19.5t86 -41.5q20 -12 20 -41v-403q0 -107 -66.5 -167.5t-189.5 -60.5q-52 0 -115 12q-21 4 -33.5 19t-12.5 33q0 23 17 40t45 11q57 -12 101 -12q149 0 149 128q-66 -31 -136 -31q-93 0 -148.5 54t-62.5 145z
M164 698q0 17 12 29.5t29 12.5q32 0 40 -30q14 -44 55 -44t55 44q8 30 40 30q17 0 29 -12.5t12 -29.5q0 -7 -3 -16q-14 -41 -49.5 -68t-83.5 -27t-83.5 27t-49.5 68q-3 9 -3 16zM171 218q8 -115 113 -115q83 0 127 36v267q-5 4 -18 10t-42 13.5t-58 7.5q-114 0 -122 -116
q-3 -53 0 -103z" />
    <glyph glyph-name="Gdotaccent" unicode="&#x120;" horiz-adv-x="700" 
d="M64 271q-8 81 0 160q9 120 92 201t205 81q85 0 151 -39.5t102 -109.5q8 -13 8 -29q0 -20 -15.5 -35.5t-36.5 -15.5q-28 0 -45 27q-53 100 -163 100q-80 0 -131.5 -52.5t-59.5 -137.5q-6 -73 0 -143q8 -83 60 -134.5t133 -51.5q77 0 123.5 40t46.5 100v48h-120
q-22 0 -37 15.5t-15 36.5q0 22 15 36.5t37 14.5h145q38 0 59 -22.5t21 -56.5v-61q0 -107 -78.5 -180.5t-199.5 -73.5q-122 0 -205 80.5t-92 201.5zM305 813q0 23 15.5 38.5t38.5 15.5t38.5 -15.5t15.5 -38.5t-15.5 -39t-38.5 -16t-38.5 16t-15.5 39z" />
    <glyph glyph-name="gdotaccent" unicode="&#x121;" horiz-adv-x="600" 
d="M65 205q-3 64 0 128q7 91 67 148.5t153 57.5q70 0 126 -19.5t86 -41.5q20 -12 20 -41v-403q0 -107 -66.5 -167.5t-189.5 -60.5q-52 0 -115 12q-21 4 -33.5 19t-12.5 33q0 23 17 40t45 11q57 -12 101 -12q149 0 149 128q-66 -31 -136 -31q-93 0 -148.5 54t-62.5 145z
M171 218q8 -115 113 -115q83 0 127 36v267q-5 4 -18 10t-42 13.5t-58 7.5q-114 0 -122 -116q-3 -53 0 -103zM246 652q0 22 16 38t38 16t38 -16t16 -38q0 -23 -15.5 -39t-38.5 -16t-38.5 16t-15.5 39z" />
    <glyph glyph-name="Gcommaaccent" unicode="&#x122;" horiz-adv-x="700" 
d="M64 271q-8 81 0 160q9 120 92 201t205 81q85 0 151 -39.5t102 -109.5q8 -13 8 -29q0 -20 -15.5 -35.5t-36.5 -15.5q-28 0 -45 27q-53 100 -163 100q-80 0 -131.5 -52.5t-59.5 -137.5q-6 -73 0 -143q8 -83 60 -134.5t133 -51.5q77 0 123.5 40t46.5 100v48h-120
q-22 0 -37 15.5t-15 36.5q0 22 15 36.5t37 14.5h145q38 0 59 -22.5t21 -56.5v-61q0 -107 -78.5 -180.5t-199.5 -73.5q-122 0 -205 80.5t-92 201.5zM295 -216q0 9 13.5 39t13.5 56v47q0 19 11 31.5t31 12.5q18 0 29.5 -12.5t11.5 -31.5v-44q0 -57 -28 -108q-17 -27 -42 -27
q-17 0 -28.5 11t-11.5 26z" />
    <glyph glyph-name="gcommaaccent" unicode="&#x123;" horiz-adv-x="600" 
d="M65 205q-3 64 0 128q7 91 67 148.5t153 57.5q70 0 126 -19.5t86 -41.5q20 -12 20 -41v-403q0 -107 -66.5 -167.5t-189.5 -60.5q-52 0 -115 12q-21 4 -33.5 19t-12.5 33q0 23 17 40t45 11q57 -12 101 -12q149 0 149 128q-66 -31 -136 -31q-93 0 -148.5 54t-62.5 145z
M171 218q8 -115 113 -115q83 0 127 36v267q-5 4 -18 10t-42 13.5t-58 7.5q-114 0 -122 -116q-3 -53 0 -103zM255 613q0 9 13.5 39t13.5 56v47q0 19 11 31.5t31 12.5q18 0 29.5 -12.5t11.5 -31.5v-44q0 -57 -28 -108q-17 -27 -42 -27q-17 0 -28.5 11t-11.5 26z" />
    <glyph glyph-name="Imacron" unicode="&#x12a;" horiz-adv-x="285" 
d="M19 812q0 19 12.5 31t31.5 12h161q19 0 31.5 -12t12.5 -31t-12.5 -31.5t-31.5 -12.5h-161q-19 0 -31.5 12.5t-12.5 31.5zM88 51v600q0 22 16 38.5t38 16.5q23 0 38.5 -16t15.5 -39v-600q0 -23 -15.5 -39t-38.5 -16q-22 0 -38 16.5t-16 38.5z" />
    <glyph glyph-name="imacron" unicode="&#x12b;" horiz-adv-x="280" 
d="M16 650q0 19 12.5 31t31.5 12h161q19 0 31.5 -12t12.5 -31t-12.5 -31.5t-31.5 -12.5h-161q-19 0 -31.5 12.5t-12.5 31.5zM88 50v428q0 23 15 38.5t37 15.5t37.5 -16t15.5 -38v-428q0 -23 -15 -39t-38 -16q-21 0 -36.5 16.5t-15.5 38.5z" />
    <glyph glyph-name="Iogonek" unicode="&#x12e;" horiz-adv-x="285" 
d="M16 -96q0 73 78 126q-4 8 -4 21v600q0 22 16 38.5t38 16.5q23 0 38.5 -16t15.5 -39v-600q0 -30 -28 -47q-74 -41 -74 -94q0 -22 13.5 -34t32.5 -12q17 0 34 11q26 19 49 -7q20 -27 -10.5 -54t-83.5 -27q-49 0 -82 33t-33 84z" />
    <glyph glyph-name="iogonek" unicode="&#x12f;" horiz-adv-x="280" 
d="M14 -96q0 77 76 127q-3 9 -3 32v415q0 23 15.5 38.5t37.5 15.5t37.5 -15.5t15.5 -37.5v-426q0 -35 -27 -50q-72 -40 -72 -93q0 -22 14 -34t33 -12q17 0 33 11q12 8 26 6t23 -13q20 -26 -10.5 -53.5t-82.5 -27.5q-49 0 -82.5 33t-33.5 84zM81 662q0 25 17 42t42 17
t42.5 -17t17.5 -42t-17.5 -43t-42.5 -18t-42 18t-17 43z" />
    <glyph glyph-name="Idotaccent" unicode="&#x130;" horiz-adv-x="285" 
d="M88 51v600q0 22 16 38.5t38 16.5q23 0 38.5 -16t15.5 -39v-600q0 -23 -15.5 -39t-38.5 -16q-22 0 -38 16.5t-16 38.5zM89 814q0 22 15.5 38t38.5 16t38.5 -16t15.5 -38q0 -23 -15.5 -39t-38.5 -16t-38.5 16t-15.5 39z" />
    <glyph glyph-name="dotlessi" unicode="&#x131;" horiz-adv-x="280" 
d="M88 50v428q0 23 15 38.5t37 15.5t37.5 -16t15.5 -38v-428q0 -23 -15 -39t-38 -16q-21 0 -36.5 16.5t-15.5 38.5z" />
    <glyph glyph-name="Kcommaaccent" unicode="&#x136;" horiz-adv-x="639" 
d="M91 51v600q0 22 16 38.5t38 16.5q23 0 38.5 -16t15.5 -39v-244h6q31 0 55 23l261 258q16 18 39 18t37 -16q15 -17 14.5 -37t-14.5 -35l-268 -259l271 -270q15 -17 15.5 -37.5t-14.5 -38.5q-15 -16 -37.5 -16.5t-38.5 17.5l-265 265q-22 23 -55 23h-6v-251
q0 -23 -15.5 -39t-38.5 -16q-22 0 -38 16.5t-16 38.5zM265 -216q0 9 13.5 39t13.5 56v47q0 19 11 31.5t31 12.5q18 0 29.5 -12.5t11.5 -31.5v-44q0 -57 -28 -108q-17 -27 -42 -27q-17 0 -28.5 11t-11.5 26z" />
    <glyph glyph-name="kcommaaccent" unicode="&#x137;" horiz-adv-x="544" 
d="M83 50v609q0 23 15 38.5t37 15.5q23 0 38.5 -15.5t15.5 -38.5v-339h14q30 0 53 23l172 173q16 18 39 18t38 -16q15 -17 14.5 -37t-15.5 -35l-179 -174l179 -184q16 -17 17 -38t-15 -38q-14 -16 -37.5 -16t-39.5 17l-173 182q-23 24 -52 24h-15v-169q0 -23 -15.5 -38.5
t-38.5 -15.5q-21 0 -36.5 16t-15.5 38zM219 -248q0 9 13.5 39t13.5 56v47q0 19 11 31.5t31 12.5q18 0 29.5 -12.5t11.5 -31.5v-44q0 -57 -28 -108q-17 -27 -42 -27q-17 0 -28.5 11t-11.5 26z" />
    <glyph glyph-name="Lacute" unicode="&#x139;" horiz-adv-x="571" 
d="M94 72v579q0 22 16 38.5t38 16.5q23 0 38.5 -16t15.5 -39v-545h303q21 0 37.5 -16t16.5 -37q0 -22 -15.5 -37.5t-38.5 -15.5h-339q-34 0 -53 20.5t-19 51.5zM97 796q0 26 25 38l135 70q11 6 22 6q17 0 29.5 -13t12.5 -31q0 -24 -24 -37l-136 -70q-14 -6 -22 -6
q-17 0 -29.5 13t-12.5 30z" />
    <glyph glyph-name="lacute" unicode="&#x13a;" horiz-adv-x="280" 
d="M34 796q0 26 25 38l135 70q10 6 22 6q17 0 29.5 -13t12.5 -31q0 -24 -24 -37l-136 -70q-14 -6 -22 -6q-17 0 -29.5 13t-12.5 30zM87 50v609q0 23 15.5 38.5t37.5 15.5t37.5 -16t15.5 -38v-609q0 -23 -15 -38.5t-38 -15.5q-21 0 -37 16t-16 38z" />
    <glyph glyph-name="Lcommaaccent" unicode="&#x13b;" horiz-adv-x="568" 
d="M91 72v579q0 22 16 38.5t38 16.5q23 0 38.5 -16t15.5 -39v-545h303q21 0 37.5 -16t16.5 -37q0 -22 -15.5 -37.5t-38.5 -15.5h-339q-34 0 -53 20.5t-19 51.5zM256 -248q0 9 13.5 39t13.5 56v47q0 19 11 31.5t31 12.5q18 0 29.5 -12.5t11.5 -31.5v-44q0 -57 -28 -108
q-17 -27 -42 -27q-17 0 -28.5 11t-11.5 26z" />
    <glyph glyph-name="lcommaaccent" unicode="&#x13c;" horiz-adv-x="297" 
d="M87 -248q0 9 13.5 39t13.5 56v47q0 19 11 31.5t31 12.5q18 0 29.5 -12.5t11.5 -31.5v-44q0 -57 -28 -108q-17 -27 -42 -27q-17 0 -28.5 11t-11.5 26zM104 50v609q0 23 15.5 38.5t37.5 15.5t37.5 -16t15.5 -38v-609q0 -23 -15 -38.5t-38 -15.5q-21 0 -37 16t-16 38z" />
    <glyph glyph-name="Lcaron" unicode="&#x13d;" horiz-adv-x="568" 
d="M91 72v579q0 22 16 38.5t38 16.5q23 0 38.5 -16t15.5 -39v-545h303q21 0 37.5 -16t16.5 -37q0 -22 -15.5 -37.5t-38.5 -15.5h-339q-34 0 -53 20.5t-19 51.5zM298 590q0 10 14 38t14 55v27q0 21 12.5 34.5t33.5 13.5t33.5 -13.5t12.5 -34.5v-23q0 -57 -30 -108
q-17 -30 -46 -30q-19 0 -31.5 12t-12.5 29z" />
    <glyph glyph-name="lcaron" unicode="&#x13e;" horiz-adv-x="342" 
d="M83 50v609q0 23 15.5 38.5t37.5 15.5t37.5 -16t15.5 -38v-609q0 -23 -15 -38.5t-38 -15.5q-21 0 -37 16t-16 38zM254 592q0 10 14 38t14 55v27q0 21 12.5 34.5t33.5 13.5t33.5 -13.5t12.5 -34.5v-23q0 -57 -30 -108q-17 -30 -46 -30q-19 0 -31.5 12t-12.5 29z" />
    <glyph glyph-name="Lslash" unicode="&#x141;" horiz-adv-x="567" 
d="M-17.5 279q4.5 19 21.5 30l85 52v290q0 22 16 38.5t38 16.5t38 -16t16 -39v-225l85 54q18 11 37.5 6t30.5 -22q10 -17 5.5 -36.5t-21.5 -30.5l-137 -85v-206h303q22 0 38.5 -15.5t16.5 -37.5t-16 -37.5t-39 -15.5h-338q-34 0 -53.5 20.5t-19.5 51.5v175l-34 -21
q-18 -11 -37 -6t-30 22q-10 18 -5.5 37z" />
    <glyph glyph-name="lslash" unicode="&#x142;" horiz-adv-x="341" 
d="M17.5 309.5q4.5 17.5 21.5 28.5l79 51v270q0 23 15 38.5t37 15.5t37.5 -16t15.5 -38v-201l35 23q16 10 34.5 6t28.5 -20q10 -15 5 -33t-20 -28l-83 -55v-301q0 -23 -15.5 -38.5t-37.5 -15.5q-21 0 -36.5 16t-15.5 38v233l-36 -22q-15 -9 -32.5 -4.5t-26.5 19.5
q-10 16 -5.5 33.5z" />
    <glyph glyph-name="Nacute" unicode="&#x143;" horiz-adv-x="768" 
d="M91 50v565q0 38 23.5 64t61.5 26q55 0 84 -48l312 -521h2q0 12 -1.5 41t-2 58t-0.5 57v359q0 23 16 39t38 16t37.5 -16t15.5 -39v-566q0 -37 -23 -62.5t-60 -25.5q-54 0 -82 46l-315 528h-3q0 -13 1.5 -44.5t2 -61t0.5 -55.5v-360q0 -23 -15.5 -39t-38.5 -16
q-22 0 -37.5 16.5t-15.5 38.5zM321 795q0 25 25 38l135 70q11 6 22 6q17 0 29.5 -13t12.5 -31q0 -24 -24 -37l-136 -70q-14 -6 -22 -6q-17 0 -29.5 13t-12.5 30z" />
    <glyph glyph-name="nacute" unicode="&#x144;" 
d="M81 50v393q0 27 21 41q27 21 81.5 38t125.5 17q108 0 163.5 -54.5t55.5 -156.5v-278q0 -23 -15 -38.5t-38 -15.5q-21 0 -37 16t-16 38v273q0 57 -33 85.5t-83 28.5q-73 0 -119 -28v-359q0 -23 -15.5 -38.5t-37.5 -15.5q-21 0 -37 16t-16 38zM205 631q0 25 25 38l135 70
q11 6 22 6q17 0 29.5 -13t12.5 -31q0 -24 -24 -37l-136 -70q-14 -6 -22 -6q-17 0 -29.5 13t-12.5 30z" />
    <glyph glyph-name="Ncommaaccent" unicode="&#x145;" horiz-adv-x="768" 
d="M91 50v565q0 38 23.5 64t61.5 26q55 0 84 -48l312 -521h2q0 12 -1.5 41t-2 58t-0.5 57v359q0 23 16 39t38 16t37.5 -16t15.5 -39v-566q0 -37 -23 -62.5t-60 -25.5q-54 0 -82 46l-315 528h-3q0 -13 1.5 -44.5t2 -61t0.5 -55.5v-360q0 -23 -15.5 -39t-38.5 -16
q-22 0 -37.5 16.5t-15.5 38.5zM319 -216q0 9 13.5 39t13.5 56v47q0 19 11 31.5t31 12.5q18 0 29.5 -12.5t11.5 -31.5v-44q0 -57 -28 -108q-17 -27 -42 -27q-17 0 -28.5 11t-11.5 26z" />
    <glyph glyph-name="ncommaaccent" unicode="&#x146;" 
d="M81 50v393q0 27 21 41q27 21 81.5 38t125.5 17q108 0 163.5 -54.5t55.5 -156.5v-278q0 -23 -15 -38.5t-38 -15.5q-21 0 -37 16t-16 38v273q0 57 -33 85.5t-83 28.5q-73 0 -119 -28v-359q0 -23 -15.5 -38.5t-37.5 -15.5q-21 0 -37 16t-16 38zM234 -248q0 9 13.5 39
t13.5 56v47q0 19 11 31.5t31 12.5q18 0 29.5 -12.5t11.5 -31.5v-44q0 -57 -28 -108q-17 -27 -42 -27q-17 0 -28.5 11t-11.5 26z" />
    <glyph glyph-name="Ncaron" unicode="&#x147;" horiz-adv-x="768" 
d="M91 50v565q0 38 23.5 64t61.5 26q55 0 84 -48l312 -521h2q0 12 -1.5 41t-2 58t-0.5 57v359q0 23 16 39t38 16t37.5 -16t15.5 -39v-566q0 -37 -23 -62.5t-60 -25.5q-54 0 -82 46l-315 528h-3q0 -13 1.5 -44.5t2 -61t0.5 -55.5v-360q0 -23 -15.5 -39t-38.5 -16
q-22 0 -37.5 16.5t-15.5 38.5zM240 877q0 17 12.5 30t29.5 13q14 0 28 -11l81 -61l81 61q16 11 28 11q18 0 30.5 -13t12.5 -30q0 -22 -19 -35l-100 -75q-17 -14 -33 -14q-17 0 -33 14l-99 75q-19 13 -19 35z" />
    <glyph glyph-name="ncaron" unicode="&#x148;" 
d="M81 50v393q0 27 21 41q27 21 81.5 38t125.5 17q108 0 163.5 -54.5t55.5 -156.5v-278q0 -23 -15 -38.5t-38 -15.5q-21 0 -37 16t-16 38v273q0 57 -33 85.5t-83 28.5q-73 0 -119 -28v-359q0 -23 -15.5 -38.5t-37.5 -15.5q-21 0 -37 16t-16 38zM147 713q0 17 12.5 30
t29.5 13q14 0 28 -11l81 -61l81 61q16 11 28 11q18 0 30.5 -13t12.5 -30q0 -22 -19 -35l-100 -75q-17 -14 -33 -14q-17 0 -33 14l-99 75q-19 13 -19 35z" />
    <glyph glyph-name="Omacron" unicode="&#x14c;" horiz-adv-x="731" 
d="M64 271q-8 81 0 160q9 120 94 201t207 81t208 -81.5t94 -200.5q8 -80 0 -160q-8 -120 -94 -201t-208 -81t-207 80.5t-94 201.5zM171 280q7 -82 60.5 -135t133.5 -53t134 53t61 135q6 72 0 143q-7 82 -61.5 135t-133.5 53t-133 -53t-61 -135q-6 -71 0 -143zM242 812
q0 19 12.5 31t31.5 12h161q19 0 31.5 -12t12.5 -31t-12.5 -31.5t-31.5 -12.5h-161q-19 0 -31.5 12.5t-12.5 31.5z" />
    <glyph glyph-name="omacron" unicode="&#x14d;" horiz-adv-x="593" 
d="M65 195q-4 72 0 143q7 89 71.5 145t159.5 56q96 0 160.5 -56t70.5 -145q5 -71 0 -143q-6 -88 -71 -146.5t-160 -58.5q-94 0 -159 58.5t-72 146.5zM171 208q5 -53 38 -84.5t87 -31.5t87.5 31.5t38.5 84.5q3 38 0 116q-3 50 -37 81.5t-89 31.5q-54 0 -87.5 -31t-37.5 -82
q-5 -71 0 -116zM172 650q0 19 12.5 31t31.5 12h161q19 0 31.5 -12t12.5 -31t-12.5 -31.5t-31.5 -12.5h-161q-19 0 -31.5 12.5t-12.5 31.5z" />
    <glyph glyph-name="Ohungarumlaut" unicode="&#x150;" horiz-adv-x="731" 
d="M64 271q-8 81 0 160q9 120 94 201t207 81t208 -81.5t94 -200.5q8 -80 0 -160q-8 -120 -94 -201t-208 -81t-207 80.5t-94 201.5zM171 280q7 -82 60.5 -135t133.5 -53t134 53t61 135q6 72 0 143q-7 82 -61.5 135t-133.5 53t-133 -53t-61 -135q-6 -71 0 -143zM219 987v1h1
v-1h-1zM236 795q0 19 12 31l99 98q10 13 30 13q18 0 31.5 -12.5t13.5 -30.5t-13 -30l-98 -98q-14 -14 -30 -14q-18 0 -31.5 12.5t-13.5 30.5zM402 795q0 19 13 31l98 98q13 13 30 13q18 0 31.5 -12.5t13.5 -30.5t-12 -30l-99 -98q-14 -14 -30 -14q-18 0 -31.5 12.5
t-13.5 30.5z" />
    <glyph glyph-name="ohungarumlaut" unicode="&#x151;" horiz-adv-x="604" 
d="M65 195q-4 72 0 143q7 89 71.5 145t159.5 56q96 0 160.5 -56t70.5 -145q5 -71 0 -143q-6 -88 -71 -146.5t-160 -58.5q-94 0 -159 58.5t-72 146.5zM137 823v1h1v-1h-1zM154 631q0 19 12 31l99 98q10 13 30 13q18 0 31.5 -12.5t13.5 -30.5t-13 -30l-98 -98q-14 -14 -30 -14
q-18 0 -31.5 12.5t-13.5 30.5zM171 208q5 -53 38 -84.5t87 -31.5t87.5 31.5t38.5 84.5q3 38 0 116q-3 50 -37 81.5t-89 31.5q-54 0 -87.5 -31t-37.5 -82q-5 -71 0 -116zM320 631q0 19 13 31l98 98q13 13 30 13q18 0 31.5 -12.5t13.5 -30.5t-12 -30l-99 -98q-14 -14 -30 -14
q-18 0 -31.5 12.5t-13.5 30.5z" />
    <glyph glyph-name="OE" unicode="&#x152;" horiz-adv-x="1079" 
d="M63 284q-5 65 0 129q8 131 93.5 215.5t228.5 84.5q55 0 127.5 -5t108.5 -5h341q23 0 39 -15.5t16 -37.5t-16.5 -37.5t-38.5 -15.5h-315v-194h306q21 0 36 -14t15 -35q0 -20 -15.5 -35t-35.5 -15h-306v-198h317q22 0 38.5 -15.5t16.5 -37.5t-16 -37.5t-39 -15.5h-362
q-21 0 -90.5 -5.5t-127.5 -5.5q-143 0 -227.5 82.5t-93.5 212.5zM170 293q5 -92 60 -146.5t155 -54.5q83 0 155 9v501q-81 9 -155 9q-99 0 -154.5 -57t-60.5 -149q-3 -56 0 -112z" />
    <glyph glyph-name="oe" unicode="&#x153;" horiz-adv-x="930" 
d="M65 196q-4 72 0 142q7 89 71.5 145t159.5 56q117 0 180 -81q64 81 175 81q100 0 161 -61.5t61 -162.5v-28q0 -29 -16 -46.5t-47 -17.5h-284v-12q0 -59 36.5 -91.5t96.5 -32.5q45 0 114 24q31 12 51.5 -2.5t20.5 -38.5q0 -29 -27 -45q-58 -35 -162 -35q-119 0 -181 83
q-66 -83 -179 -83q-94 0 -159 58.5t-72 147.5zM171 207q5 -53 38 -84t87 -31t87.5 31t38.5 84q3 39 0 119q-3 50 -36.5 80.5t-89.5 30.5q-55 0 -88 -30.5t-37 -80.5q-5 -72 0 -119zM526 307h232q10 0 12 12q3 58 -28.5 92.5t-90.5 34.5q-62 0 -94.5 -37t-30.5 -102z" />
    <glyph glyph-name="Racute" unicode="&#x154;" horiz-adv-x="678" 
d="M91 51v574q0 34 20.5 56t57.5 22h204q100 0 166.5 -58.5t66.5 -162.5q0 -85 -42 -134t-113 -64l162 -198q14 -16 13 -39t-16 -37q-18 -16 -40 -15t-37 18l-175 216q-14 17 -25.5 24.5t-30.5 7.5h-104v-210q0 -23 -16 -39.5t-38 -16.5t-37.5 16.5t-15.5 39.5zM198 363h163
q137 0 137 118t-132 118h-168v-236zM257 795q0 25 25 38l135 70q11 6 22 6q17 0 29.5 -13t12.5 -31q0 -24 -24 -37l-136 -70q-14 -6 -22 -6q-17 0 -29.5 13t-12.5 30z" />
    <glyph glyph-name="racute" unicode="&#x155;" horiz-adv-x="383" 
d="M76 49v325q0 77 43.5 121t124.5 44q52 0 91 -11q41 -12 41 -50q0 -19 -13 -34.5t-37 -15.5q-6 0 -31 5t-44 4q-69 -1 -69 -80v-308q0 -22 -15.5 -37.5t-38.5 -15.5q-21 0 -36.5 15.5t-15.5 37.5zM126 630q0 26 25 38l135 70q10 6 22 6q17 0 29.5 -13t12.5 -31
q0 -24 -24 -37l-136 -70q-14 -6 -22 -6q-17 0 -29.5 13t-12.5 30z" />
    <glyph glyph-name="Rcommaaccent" unicode="&#x156;" horiz-adv-x="678" 
d="M91 51v574q0 34 20.5 56t57.5 22h204q100 0 166.5 -58.5t66.5 -162.5q0 -85 -42 -134t-113 -64l162 -198q14 -16 13 -39t-16 -37q-18 -16 -40 -15t-37 18l-175 216q-14 17 -25.5 24.5t-30.5 7.5h-104v-210q0 -23 -16 -39.5t-38 -16.5t-37.5 16.5t-15.5 39.5zM198 363h163
q137 0 137 118t-132 118h-168v-236zM272 -248q0 9 13.5 39t13.5 56v47q0 19 11 31.5t31 12.5q18 0 29.5 -12.5t11.5 -31.5v-44q0 -57 -28 -108q-17 -27 -42 -27q-17 0 -28.5 11t-11.5 26z" />
    <glyph glyph-name="rcommaaccent" unicode="&#x157;" horiz-adv-x="383" 
d="M61 -248q0 9 13.5 39t13.5 56v47q0 19 11 31.5t31 12.5q18 0 29.5 -12.5t11.5 -31.5v-44q0 -57 -28 -108q-17 -27 -42 -27q-17 0 -28.5 11t-11.5 26zM76 49v325q0 77 43.5 121t124.5 44q52 0 91 -11q41 -12 41 -50q0 -19 -13 -34.5t-37 -15.5q-6 0 -31 5t-44 4
q-69 -1 -69 -80v-308q0 -22 -15.5 -37.5t-38.5 -15.5q-21 0 -36.5 15.5t-15.5 37.5z" />
    <glyph glyph-name="Rcaron" unicode="&#x158;" horiz-adv-x="678" 
d="M91 51v574q0 34 20.5 56t57.5 22h204q100 0 166.5 -58.5t66.5 -162.5q0 -85 -42 -134t-113 -64l162 -198q14 -16 13 -39t-16 -37q-18 -16 -40 -15t-37 18l-175 216q-14 17 -25.5 24.5t-30.5 7.5h-104v-210q0 -23 -16 -39.5t-38 -16.5t-37.5 16.5t-15.5 39.5zM189 877
q0 17 12.5 30t29.5 13q14 0 28 -11l81 -61l81 61q16 11 28 11q18 0 30.5 -13t12.5 -30q0 -22 -19 -35l-100 -75q-17 -14 -33 -14q-17 0 -33 14l-99 75q-19 13 -19 35zM198 363h163q137 0 137 118t-132 118h-168v-236z" />
    <glyph glyph-name="rcaron" unicode="&#x159;" horiz-adv-x="383" 
d="M69 712q0 17 12.5 30t29.5 13q14 0 28 -11l81 -61l81 61q16 11 28 11q18 0 30.5 -13t12.5 -30q0 -22 -19 -35l-100 -75q-17 -14 -33 -14q-17 0 -33 14l-99 75q-19 13 -19 35zM76 49v325q0 77 43.5 121t124.5 44q52 0 91 -11q41 -12 41 -50q0 -19 -13 -34.5t-37 -15.5
q-6 0 -31 5t-44 4q-69 -1 -69 -80v-308q0 -22 -15.5 -37.5t-38.5 -15.5q-21 0 -36.5 15.5t-15.5 37.5z" />
    <glyph glyph-name="Sacute" unicode="&#x15a;" horiz-adv-x="627" 
d="M53 109q0 24 16 39.5t39 15.5q19 0 39 -15q80 -57 181 -57q70 0 109.5 29t39.5 79q0 42 -38 64t-132 41q-125 24 -181.5 71t-56.5 132q0 93 69 149t178 56q140 0 208 -58q17 -16 17 -42q0 -21 -14 -35.5t-35 -14.5q-16 0 -40 12q-64 36 -136 36q-71 0 -105 -29t-34 -73
q0 -41 34.5 -63.5t124.5 -39.5q134 -25 191.5 -72t57.5 -134q0 -93 -70.5 -152t-191.5 -59q-143 0 -242 73q-28 20 -28 47zM232 795q0 25 25 38l135 70q10 6 22 6q17 0 29.5 -13t12.5 -31q0 -24 -24 -37l-136 -70q-14 -6 -22 -6q-17 0 -29.5 13t-12.5 30z" />
    <glyph glyph-name="sacute" unicode="&#x15b;" horiz-adv-x="495" 
d="M53 80q-3 20 8 35q27 37 70 10q54 -39 129 -39q44 0 68 18t24 48q0 22 -16 36t-53 23q-70 16 -72 17q-145 36 -145 150q0 74 55.5 117.5t141.5 43.5q94 0 151 -47q16 -13 16 -34.5t-11 -33.5q-25 -30 -69 -7q-43 25 -92 25q-90 0 -90 -62q0 -21 15.5 -33.5t53.5 -22.5
l78 -18q141 -35 141 -151q0 -75 -56.5 -120t-144.5 -45q-115 0 -184 57q-15 13 -18 33zM152 631q0 25 25 38l135 70q10 6 22 6q17 0 29.5 -13t12.5 -31q0 -24 -24 -37l-136 -70q-14 -6 -22 -6q-17 0 -29.5 13t-12.5 30z" />
    <glyph glyph-name="Scedilla" unicode="&#x15e;" horiz-adv-x="627" 
d="M53 109q0 24 16 39.5t39 15.5q19 0 39 -15q80 -57 181 -57q70 0 109.5 29t39.5 79q0 42 -38 64t-132 41q-125 24 -181.5 71t-56.5 132q0 93 69 149t178 56q140 0 208 -58q17 -16 17 -42q0 -21 -14 -35.5t-35 -14.5q-16 0 -40 12q-64 36 -136 36q-71 0 -105 -29t-34 -73
q0 -41 34.5 -63.5t124.5 -39.5q134 -25 191.5 -72t57.5 -134q0 -90 -66.5 -148.5t-182.5 -62.5l-13 -31q44 -3 69 -29t25 -66q0 -88 -127 -132q-20 -7 -38 2t-18 33q0 25 28 36q45 18 59.5 30.5t14.5 28.5q0 9 -8 18t-21 9q-8 0 -17 -2t-16 -2q-18 0 -28.5 15.5t-3.5 33.5
l22 59q-107 13 -183 70q-28 20 -28 47z" />
    <glyph glyph-name="scedilla" unicode="&#x15f;" horiz-adv-x="494" 
d="M49 80q-3 20 8 35q27 37 70 10q56 -39 129 -39q44 0 68 18t24 48q0 22 -16 36t-53 23l-73 17q-144 36 -144 150q0 74 55.5 117.5t141.5 43.5q94 0 151 -47q16 -13 16 -34.5t-11 -33.5q-23 -30 -69 -7q-43 25 -92 25q-90 0 -90 -62q0 -21 15.5 -33.5t54.5 -22.5l46 -11
q30 -7 32 -7q140 -35 140 -151q0 -68 -46 -111.5t-121 -51.5l-13 -34q43 -3 68 -29t25 -66q0 -88 -126 -132q-20 -7 -38 2t-18 33q0 25 27 36q46 18 60 30t14 29q0 10 -7.5 18.5t-21.5 8.5q-7 0 -16.5 -2t-15.5 -2q-18 0 -29 15.5t-4 33.5l22 59q-89 8 -145 55
q-15 13 -18 33z" />
    <glyph glyph-name="Scaron" unicode="&#x160;" horiz-adv-x="627" 
d="M53 109q0 24 16 39.5t39 15.5q19 0 39 -15q80 -57 181 -57q70 0 109.5 29t39.5 79q0 42 -38 64t-132 41q-125 24 -181.5 71t-56.5 132q0 93 69 149t178 56q140 0 208 -58q17 -16 17 -42q0 -21 -14 -35.5t-35 -14.5q-16 0 -40 12q-64 36 -136 36q-71 0 -105 -29t-34 -73
q0 -41 34.5 -63.5t124.5 -39.5q134 -25 191.5 -72t57.5 -134q0 -93 -70.5 -152t-191.5 -59q-143 0 -242 73q-28 20 -28 47zM168 875q0 17 12.5 30t29.5 13q14 0 28 -11l81 -61l81 61q16 11 28 11q18 0 30.5 -13t12.5 -30q0 -22 -19 -35l-100 -75q-17 -14 -33 -14
q-17 0 -33 14l-99 75q-19 13 -19 35z" />
    <glyph glyph-name="scaron" unicode="&#x161;" horiz-adv-x="495" 
d="M53 80q-3 20 8 35q27 37 70 10q54 -39 129 -39q44 0 68 18t24 48q0 22 -16 36t-53 23q-70 16 -72 17q-145 36 -145 150q0 74 55.5 117.5t141.5 43.5q94 0 151 -47q16 -13 16 -34.5t-11 -33.5q-25 -30 -69 -7q-43 25 -92 25q-90 0 -90 -62q0 -21 15.5 -33.5t53.5 -22.5
l78 -18q141 -35 141 -151q0 -75 -56.5 -120t-144.5 -45q-115 0 -184 57q-15 13 -18 33zM99 701q0 17 12.5 30t29.5 13q14 0 28 -11l81 -61l81 61q16 11 28 11q18 0 30.5 -13t12.5 -30q0 -22 -19 -35l-100 -75q-17 -14 -33 -14q-17 0 -33 14l-99 75q-19 13 -19 35z" />
    <glyph glyph-name="Tcommaaccent" unicode="&#x162;" horiz-adv-x="609" 
d="M15 650q0 23 16 38t39 15h469q23 0 39 -15t16 -38q0 -22 -16.5 -37.5t-38.5 -15.5h-180v-546q0 -23 -15.5 -39t-38.5 -16q-22 0 -38 16.5t-16 38.5v546h-181q-23 0 -39 15.5t-16 37.5zM238 -248q0 9 13.5 39t13.5 56v47q0 19 11 31.5t31 12.5q18 0 29.5 -12.5t11.5 -31.5
v-44q0 -57 -28 -108q-17 -27 -42 -27q-17 0 -28.5 11t-11.5 26z" />
    <glyph glyph-name="tcommaaccent" unicode="&#x163;" horiz-adv-x="420" 
d="M74 170v418q0 23 15.5 38.5t37.5 15.5t37.5 -16t15.5 -38v-76h138q21 0 35.5 -13.5t14.5 -33.5t-14.5 -33.5t-35.5 -13.5h-138v-249q0 -79 71 -79q17 0 72 15q29 7 47 -8t18 -39q0 -34 -36 -49q-44 -19 -112 -19q-82 0 -124 49.5t-42 130.5zM155 -248q0 9 13.5 39
t13.5 56v47q0 19 11 31.5t31 12.5q18 0 29.5 -12.5t11.5 -31.5v-44q0 -57 -28 -108q-17 -27 -42 -27q-17 0 -28.5 11t-11.5 26z" />
    <glyph glyph-name="Tcaron" unicode="&#x164;" horiz-adv-x="609" 
d="M15 650q0 23 16 38t39 15h469q23 0 39 -15t16 -38q0 -22 -16.5 -37.5t-38.5 -15.5h-180v-546q0 -23 -15.5 -39t-38.5 -16q-22 0 -38 16.5t-16 38.5v546h-181q-23 0 -39 15.5t-16 37.5zM153 877q0 17 12.5 30t29.5 13q14 0 28 -11l81 -61l81 61q16 11 28 11q18 0 30.5 -13
t12.5 -30q0 -22 -19 -35l-100 -75q-17 -14 -33 -14q-17 0 -33 14l-99 75q-19 13 -19 35z" />
    <glyph glyph-name="tcaron" unicode="&#x165;" horiz-adv-x="413" 
d="M74 170v418q0 23 15.5 38.5t37.5 15.5t37.5 -16t15.5 -38v-76h138q21 0 35.5 -13.5t14.5 -33.5t-14.5 -33.5t-35.5 -13.5h-138v-249q0 -79 71 -79q17 0 72 15q29 7 47 -8t18 -39q0 -34 -36 -49q-44 -19 -112 -19q-82 0 -124 49.5t-42 130.5zM228 592q0 10 14 38t14 55v27
q0 21 12.5 34.5t33.5 13.5t33.5 -13.5t12.5 -34.5v-23q0 -57 -30 -108q-17 -30 -46 -30q-19 0 -31.5 12t-12.5 29z" />
    <glyph glyph-name="Umacron" unicode="&#x16a;" horiz-adv-x="748" 
d="M82 292v359q0 22 16.5 38.5t38.5 16.5t37.5 -16t15.5 -39v-362q0 -90 51.5 -143.5t132.5 -53.5t132 53.5t51 143.5v362q0 23 16 39t38 16q23 0 38.5 -16t15.5 -39v-359q0 -134 -82.5 -218.5t-208.5 -84.5t-209 84.5t-83 218.5zM250 811q0 19 12.5 31t31.5 12h161
q19 0 31.5 -12t12.5 -31t-12.5 -31.5t-31.5 -12.5h-161q-19 0 -31.5 12.5t-12.5 31.5z" />
    <glyph glyph-name="umacron" unicode="&#x16b;" 
d="M76 203v273q0 24 14 40t38 16q23 0 38.5 -16t15.5 -40v-272q0 -52 31 -82t85 -30q65 0 119 33v352q0 23 15.5 39t37.5 16t37.5 -16t15.5 -39v-387q0 -27 -20 -40q-86 -60 -206 -60q-102 0 -161.5 56t-59.5 157zM176 650q0 19 12.5 31t31.5 12h161q19 0 31.5 -12t12.5 -31
t-12.5 -31.5t-31.5 -12.5h-161q-19 0 -31.5 12.5t-12.5 31.5z" />
    <glyph glyph-name="Uring" unicode="&#x16e;" horiz-adv-x="748" 
d="M82 292v359q0 22 16.5 38.5t38.5 16.5t37.5 -16t15.5 -39v-362q0 -90 51.5 -143.5t132.5 -53.5t132 53.5t51 143.5v362q0 23 16 39t38 16q23 0 38.5 -16t15.5 -39v-359q0 -134 -82.5 -218.5t-208.5 -84.5t-209 84.5t-83 218.5zM271 857q0 42 30.5 72t72.5 30
q43 0 73.5 -29.5t30.5 -72.5t-30.5 -73t-73.5 -30q-42 0 -72.5 30t-30.5 73zM333 857q0 -18 12 -30.5t29 -12.5t29.5 12.5t12.5 30.5q0 17 -12.5 29.5t-29.5 12.5t-29 -12.5t-12 -29.5z" />
    <glyph glyph-name="uring" unicode="&#x16f;" 
d="M76 203v273q0 24 14 40t38 16q23 0 38.5 -16t15.5 -40v-272q0 -52 31 -82t85 -30q65 0 119 33v352q0 23 15.5 39t37.5 16t37.5 -16t15.5 -39v-387q0 -27 -20 -40q-86 -60 -206 -60q-102 0 -161.5 56t-59.5 157zM197 693q0 42 30.5 72t72.5 30q43 0 73.5 -29.5t30.5 -72.5
t-30.5 -73t-73.5 -30q-42 0 -72.5 30t-30.5 73zM259 693q0 -18 12 -30.5t29 -12.5t29.5 12.5t12.5 30.5q0 17 -12.5 29.5t-29.5 12.5t-29 -12.5t-12 -29.5z" />
    <glyph glyph-name="Uhungarumlaut" unicode="&#x170;" horiz-adv-x="748" 
d="M82 292v359q0 22 16.5 38.5t38.5 16.5t37.5 -16t15.5 -39v-362q0 -90 51.5 -143.5t132.5 -53.5t132 53.5t51 143.5v362q0 23 16 39t38 16q23 0 38.5 -16t15.5 -39v-359q0 -134 -82.5 -218.5t-208.5 -84.5t-209 84.5t-83 218.5zM225 987v1h1v-1h-1zM242 795q0 19 12 31
l99 98q10 13 30 13q18 0 31.5 -12.5t13.5 -30.5t-13 -30l-98 -98q-14 -14 -30 -14q-18 0 -31.5 12.5t-13.5 30.5zM408 795q0 19 13 31l98 98q13 13 30 13q18 0 31.5 -12.5t13.5 -30.5t-12 -30l-99 -98q-14 -14 -30 -14q-18 0 -31.5 12.5t-13.5 30.5z" />
    <glyph glyph-name="uhungarumlaut" unicode="&#x171;" 
d="M76 203v273q0 24 14 40t38 16q23 0 38.5 -16t15.5 -40v-272q0 -52 31 -82t85 -30q65 0 119 33v352q0 23 15.5 39t37.5 16t37.5 -16t15.5 -39v-387q0 -27 -20 -40q-86 -60 -206 -60q-102 0 -161.5 56t-59.5 157zM148 824v1h1v-1h-1zM165 632q0 19 12 31l99 98q10 13 30 13
q18 0 31.5 -12.5t13.5 -30.5t-13 -30l-98 -98q-14 -14 -30 -14q-18 0 -31.5 12.5t-13.5 30.5zM331 632q0 19 13 31l98 98q13 13 30 13q18 0 31.5 -12.5t13.5 -30.5t-12 -30l-99 -98q-14 -14 -30 -14q-18 0 -31.5 12.5t-13.5 30.5z" />
    <glyph glyph-name="Uogonek" unicode="&#x172;" horiz-adv-x="748" 
d="M82 292v356q0 23 16 39t38 16q23 0 38.5 -16t15.5 -39v-359q0 -90 51.5 -143.5t132.5 -53.5t132 53.5t51 143.5v359q0 23 16 39t38 16q23 0 38.5 -16t15.5 -39v-356q0 -103 -49.5 -177.5t-133.5 -106.5q-98 -37 -98 -98q0 -22 13.5 -34t33.5 -12q18 0 35 11q12 8 26 6
t23 -13q9 -13 6 -28t-15 -25q-38 -28 -86 -28q-49 0 -82.5 33t-33.5 84q0 49 35 88q-113 11 -185 93.5t-72 206.5z" />
    <glyph glyph-name="uogonek" unicode="&#x173;" horiz-adv-x="612" 
d="M76 203v271q0 24 14.5 39.5t38.5 15.5q22 0 37.5 -16t15.5 -39v-270q0 -51 32 -81.5t84 -30.5q74 0 118 27v356q0 23 15.5 38.5t37.5 15.5t38 -16t16 -38v-399q0 -26 -35 -43q-95 -44 -95 -117q0 -25 14 -38t34 -13q19 0 35 12q12 8 26 6t23 -14t6 -27t-15 -25
q-35 -28 -86 -28q-50 0 -83 32.5t-33 84.5q0 46 28 89q-38 -5 -46 -5q-102 0 -161 56t-59 157z" />
    <glyph glyph-name="Wcircumflex" unicode="&#x174;" horiz-adv-x="952" 
d="M32 638q-5 21 5 40.5t32 25.5t42 -5.5t25 -32.5l110 -568q1 -2 3 -2t3 2l129 527q9 39 34 59.5t56 20.5q29 0 54.5 -21t34.5 -59l129 -527q1 -3 3 -3t3 3l111 563q5 25 25 37t43 6t32.5 -25.5t4.5 -40.5l-132 -572q-8 -36 -32.5 -56.5t-54.5 -20.5t-55 20.5t-34 55.5
l-130 523q-1 2 -2.5 2t-2.5 -2l-130 -522q-9 -36 -33.5 -56.5t-55.5 -20.5q-32 0 -57.5 20.5t-33.5 57.5zM326 796q0 21 19 35l99 75q16 14 33 14q16 0 33 -14l100 -75q19 -14 19 -35q0 -17 -12.5 -30t-30.5 -13q-11 0 -28 10l-81 62l-81 -62q-15 -10 -28 -10
q-17 0 -29.5 13t-12.5 30z" />
    <glyph glyph-name="wcircumflex" unicode="&#x175;" horiz-adv-x="811" 
d="M31 461q-8 29 6.5 50.5t42.5 21.5q42 0 53 -44l92 -376q1 -4 5 -4t5 4l86 345q9 36 32 55.5t53 19.5q31 0 53.5 -19.5t31.5 -55.5l86 -345q1 -4 5 -4t5 4l92 375q5 20 19 32.5t33 12.5q29 0 43.5 -21.5t6.5 -50.5l-106 -394q-20 -77 -90 -77q-71 0 -90 77l-84 332
q-1 4 -5 4q-5 0 -5 -4l-86 -331q-20 -78 -89 -78q-32 0 -56 19t-34 57zM254 631q0 21 19 35l99 75q16 14 33 14q16 0 33 -14l100 -75q19 -14 19 -35q0 -17 -12.5 -30t-30.5 -13q-11 0 -28 10l-81 62l-81 -62q-15 -10 -28 -10q-17 0 -29.5 13t-12.5 30z" />
    <glyph glyph-name="Ycircumflex" unicode="&#x176;" horiz-adv-x="653" 
d="M14 656.5q2 22.5 19 36.5q17 15 40.5 12.5t37.5 -19.5l215 -270l216 269q14 18 37 20.5t40 -11.5t19.5 -37t-12.5 -41l-219 -267q-2 -3 -6.5 -8t-6 -7.5t-4.5 -6.5t-4.5 -7t-3 -7.5t-2 -9.5t-0.5 -11v-241q0 -23 -15.5 -39t-38.5 -16q-22 0 -38 16.5t-16 38.5v241
q0 7 -1.5 13t-2 9.5t-4.5 9.5l-5 8q-1 1 -7.5 9t-7.5 9l-217 266q-15 18 -13 40.5zM176 796q0 21 19 35l99 75q16 14 33 14q16 0 33 -14l100 -75q19 -14 19 -35q0 -17 -12.5 -30t-30.5 -13q-11 0 -28 10l-81 62l-81 -62q-15 -10 -28 -10q-17 0 -29.5 13t-12.5 30z" />
    <glyph glyph-name="ycircumflex" unicode="&#x177;" horiz-adv-x="524" 
d="M25 455q-12 29 4.5 53t43.5 24q40 0 54 -40l135 -323q2 -3 4 -3q4 0 5 3l124 321q15 42 54 42q30 0 46 -24.5t4 -52.5l-188 -447q-28 -68 -65.5 -117.5t-70.5 -70.5q-23 -15 -45 -15q-21 0 -35.5 14t-14.5 36q0 28 22 43q68 42 105 138zM115 632q0 21 19 35l99 75
q16 14 33 14q16 0 33 -14l100 -75q19 -14 19 -35q0 -17 -12.5 -30t-30.5 -13q-11 0 -28 10l-81 62l-81 -62q-15 -10 -28 -10q-17 0 -29.5 13t-12.5 30z" />
    <glyph glyph-name="Ydieresis" unicode="&#x178;" horiz-adv-x="653" 
d="M14 656.5q2 22.5 19 36.5q17 15 40.5 12.5t37.5 -19.5l215 -270l216 269q14 18 37 20.5t40 -11.5t19.5 -37t-12.5 -41l-219 -267q-2 -3 -6.5 -8t-6 -7.5t-4.5 -6.5t-4.5 -7t-3 -7.5t-2 -9.5t-0.5 -11v-241q0 -23 -15.5 -39t-38.5 -16q-22 0 -38 16.5t-16 38.5v241
q0 7 -1.5 13t-2 9.5t-4.5 9.5l-5 8q-1 1 -7.5 9t-7.5 9l-217 266q-15 18 -13 40.5zM188 763q0 23 15.5 38.5t38.5 15.5q22 0 38 -15.5t16 -38.5t-15.5 -39t-38.5 -16t-38.5 16t-15.5 39zM356 763q0 23 16 38.5t38 15.5q23 0 38.5 -15.5t15.5 -38.5t-15.5 -39t-38.5 -16
t-38.5 16t-15.5 39z" />
    <glyph glyph-name="Zacute" unicode="&#x179;" horiz-adv-x="589" 
d="M44 76q0 31 24 62l341 459h-306q-23 0 -39 15.5t-16 37.5q0 23 16 38t39 15h350q39 0 61.5 -21.5t22.5 -53.5q0 -29 -28 -67l-337 -455h329q23 0 39 -15.5t16 -37.5t-16 -37.5t-39 -15.5h-371q-40 0 -63 21.5t-23 54.5zM200 795q0 25 25 38l135 70q10 6 22 6
q17 0 29.5 -13t12.5 -31q0 -24 -24 -37l-136 -70q-14 -6 -22 -6q-17 0 -29.5 13t-12.5 30z" />
    <glyph glyph-name="zacute" unicode="&#x17a;" horiz-adv-x="488" 
d="M36 68q0 28 21 54l271 302h-226q-22 0 -37 13.5t-15 34.5t15.5 35t36.5 14h274q60 0 72 -54q9 -38 -22 -74l-265 -295h237q22 0 37.5 -14t15.5 -35t-15.5 -35t-37.5 -14h-285q-34 0 -55.5 19t-21.5 49zM169 631q0 25 25 38l135 70q11 6 22 6q17 0 29.5 -13t12.5 -31
q0 -24 -24 -37l-136 -70q-14 -6 -22 -6q-17 0 -29.5 13t-12.5 30z" />
    <glyph glyph-name="Zdotaccent" unicode="&#x17b;" horiz-adv-x="589" 
d="M44 76q0 31 24 62l341 459h-306q-23 0 -39 15.5t-16 37.5q0 23 16 38t39 15h350q39 0 61.5 -21.5t22.5 -53.5q0 -29 -28 -67l-337 -455h329q23 0 39 -15.5t16 -37.5t-16 -37.5t-39 -15.5h-371q-40 0 -63 21.5t-23 54.5zM238 814q0 22 16 38t38 16t38 -16t16 -38
q0 -23 -15.5 -39t-38.5 -16t-38.5 16t-15.5 39z" />
    <glyph glyph-name="zdotaccent" unicode="&#x17c;" horiz-adv-x="488" 
d="M36 68q0 28 21 54l271 302h-226q-22 0 -37 13.5t-15 34.5t15.5 35t36.5 14h274q60 0 72 -54q9 -38 -22 -74l-265 -295h237q22 0 37.5 -14t15.5 -35t-15.5 -35t-37.5 -14h-285q-34 0 -55.5 19t-21.5 49zM190 651q0 23 16 38.5t38 15.5t38 -15.5t16 -38.5t-15.5 -39
t-38.5 -16t-38.5 16t-15.5 39z" />
    <glyph glyph-name="Zcaron" unicode="&#x17d;" horiz-adv-x="589" 
d="M44 76q0 31 24 62l341 459h-306q-23 0 -39 15.5t-16 37.5q0 23 16 38t39 15h350q39 0 61.5 -21.5t22.5 -53.5q0 -29 -28 -67l-337 -455h329q23 0 39 -15.5t16 -37.5t-16 -37.5t-39 -15.5h-371q-40 0 -63 21.5t-23 54.5zM149 877q0 17 12.5 30t29.5 13q14 0 28 -11l81 -61
l81 61q16 11 28 11q18 0 30.5 -13t12.5 -30q0 -22 -19 -35l-100 -75q-17 -14 -33 -14q-17 0 -33 14l-99 75q-19 13 -19 35z" />
    <glyph glyph-name="zcaron" unicode="&#x17e;" horiz-adv-x="488" 
d="M36 68q0 28 21 54l271 302h-226q-22 0 -37 13.5t-15 34.5t15.5 35t36.5 14h274q60 0 72 -54q9 -38 -22 -74l-265 -295h237q22 0 37.5 -14t15.5 -35t-15.5 -35t-37.5 -14h-285q-34 0 -55.5 19t-21.5 49zM90 713q0 17 12.5 30t29.5 13q14 0 28 -11l81 -61l81 61
q16 11 28 11q18 0 30.5 -13t12.5 -30q0 -22 -19 -35l-100 -75q-17 -14 -33 -14q-17 0 -33 14l-99 75q-19 13 -19 35z" />
    <glyph glyph-name="florin" unicode="&#x192;" horiz-adv-x="587" 
d="M15 -130l131 428h-36q-22 0 -37.5 14.5t-15.5 35.5q0 22 15 36t38 14h67l58 187q19 61 64 92.5t105 31.5q102 0 161 -61q15 -16 14.5 -38.5t-14.5 -36.5q-33 -33 -75 3q-32 30 -78 30q-33 0 -50.5 -14t-26.5 -44l-46 -150h129q22 0 37.5 -14t15.5 -36q0 -21 -15.5 -35.5
t-37.5 -14.5h-159l-141 -462q-7 -22 -26.5 -33t-41.5 -4q-20 6 -31.5 26.5t-3.5 44.5z" />
    <glyph glyph-name="Scommaaccent" unicode="&#x218;" horiz-adv-x="627" 
d="M53 109q0 24 16 39.5t39 15.5q19 0 39 -15q80 -57 181 -57q70 0 109.5 29t39.5 79q0 42 -38 64t-132 41q-125 24 -181.5 71t-56.5 132q0 93 69 149t178 56q140 0 208 -58q17 -16 17 -42q0 -21 -14 -35.5t-35 -14.5q-16 0 -40 12q-64 36 -136 36q-71 0 -105 -29t-34 -73
q0 -41 34.5 -63.5t124.5 -39.5q134 -25 191.5 -72t57.5 -134q0 -93 -70.5 -152t-191.5 -59q-143 0 -242 73q-28 20 -28 47zM257 -248q0 9 13.5 39t13.5 56v47q0 19 11 31.5t31 12.5q18 0 29.5 -12.5t11.5 -31.5v-44q0 -57 -28 -108q-17 -27 -42 -27q-17 0 -28.5 11t-11.5 26
z" />
    <glyph glyph-name="scommaaccent" unicode="&#x219;" horiz-adv-x="495" 
d="M53 80q-3 20 8 35q27 37 70 10q54 -39 129 -39q44 0 68 18t24 48q0 22 -16 36t-53 23q-70 16 -72 17q-145 36 -145 150q0 74 55.5 117.5t141.5 43.5q94 0 151 -47q16 -13 16 -34.5t-11 -33.5q-25 -30 -69 -7q-43 25 -92 25q-90 0 -90 -62q0 -21 15.5 -33.5t53.5 -22.5
l78 -18q141 -35 141 -151q0 -75 -56.5 -120t-144.5 -45q-115 0 -184 57q-15 13 -18 33zM194 -248q0 9 13.5 39t13.5 56v47q0 19 11 31.5t31 12.5q18 0 29.5 -12.5t11.5 -31.5v-44q0 -57 -28 -108q-17 -27 -42 -27q-17 0 -28.5 11t-11.5 26z" />
    <glyph glyph-name="circumflex" unicode="&#x2c6;" horiz-adv-x="382" 
d="M39 794q0 21 19 35l99 75q16 14 33 14q16 0 33 -14l100 -75q19 -14 19 -35q0 -17 -12.5 -30t-30.5 -13q-11 0 -28 10l-81 62l-81 -62q-15 -10 -28 -10q-17 0 -29.5 13t-12.5 30z" />
    <glyph glyph-name="caron" unicode="&#x2c7;" horiz-adv-x="382" 
d="M39 875q0 17 12.5 30t29.5 13q14 0 28 -11l81 -61l81 61q16 11 28 11q18 0 30.5 -13t12.5 -30q0 -22 -19 -35l-100 -75q-17 -14 -33 -14q-17 0 -33 14l-99 75q-19 13 -19 35z" />
    <glyph glyph-name="breve" unicode="&#x2d8;" horiz-adv-x="382" 
d="M55 867q0 17 12 29.5t29 12.5q32 0 40 -30q14 -44 55 -44t55 44q8 30 40 30q17 0 29 -12.5t12 -29.5q0 -7 -3 -16q-14 -41 -49.5 -68t-83.5 -27t-83.5 27t-49.5 68q-3 9 -3 16z" />
    <glyph glyph-name="dotaccent" unicode="&#x2d9;" horiz-adv-x="382" 
d="M137 814q0 22 15.5 38t38.5 16t38.5 -16t15.5 -38q0 -23 -15.5 -39t-38.5 -16t-38.5 16t-15.5 39z" />
    <glyph glyph-name="ring" unicode="&#x2da;" horiz-adv-x="383" 
d="M93 852q0 42 30.5 72t72.5 30q43 0 73.5 -29.5t30.5 -72.5t-30.5 -73t-73.5 -30q-42 0 -72.5 30t-30.5 73zM155 852q0 -18 12 -30.5t29 -12.5t29.5 12.5t12.5 30.5q0 17 -12.5 29.5t-29.5 12.5t-29 -12.5t-12 -29.5z" />
    <glyph glyph-name="ogonek" unicode="&#x2db;" horiz-adv-x="382" 
d="M90 -96q0 94 128 154q9 5 20 5q14 0 24.5 -10.5t10.5 -24.5q0 -21 -21 -31q-82 -37 -82 -87q0 -22 13.5 -34t33.5 -12q18 0 35 11q12 8 26 6t23 -13q9 -13 6 -28t-15 -25q-38 -28 -86 -28q-49 0 -82.5 33t-33.5 84z" />
    <glyph glyph-name="tilde" unicode="&#x2dc;" horiz-adv-x="382" 
d="M34 799q0 16 17 33q43 38 80 38q28 0 65.5 -18.5t51.5 -18.5q15 0 33 14.5t31 14.5q17 0 28 -12.5t11 -28.5t-17 -33q-41 -38 -80 -38q-25 0 -64 18t-53 18t-32.5 -14t-31.5 -14q-17 0 -28 12.5t-11 28.5z" />
    <glyph glyph-name="hungarumlaut" unicode="&#x2dd;" horiz-adv-x="382" 
d="M0 987v1h1v-1h-1zM17 795q0 19 12 31l99 98q10 13 30 13q18 0 31.5 -12.5t13.5 -30.5t-13 -30l-98 -98q-14 -14 -30 -14q-18 0 -31.5 12.5t-13.5 30.5zM183 795q0 19 13 31l98 98q13 13 30 13q18 0 31.5 -12.5t13.5 -30.5t-12 -30l-99 -98q-14 -14 -30 -14
q-18 0 -31.5 12.5t-13.5 30.5z" />
    <glyph glyph-name="Wgrave" unicode="&#x1e80;" horiz-adv-x="952" 
d="M32 638q-5 21 5 40.5t32 25.5t42 -5.5t25 -32.5l110 -568q1 -2 3 -2t3 2l129 527q9 39 34 59.5t56 20.5q29 0 54.5 -21t34.5 -59l129 -527q1 -3 3 -3t3 3l111 563q5 25 25 37t43 6t32.5 -25.5t4.5 -40.5l-132 -572q-8 -36 -32.5 -56.5t-54.5 -20.5t-55 20.5t-34 55.5
l-130 523q-1 2 -2.5 2t-2.5 -2l-130 -522q-9 -36 -33.5 -56.5t-55.5 -20.5q-32 0 -57.5 20.5t-33.5 57.5zM334 865q0 18 12.5 31t29.5 13q13 0 22 -6l136 -70q24 -13 24 -38q0 -17 -12.5 -30t-29.5 -13q-8 0 -22 6l-135 70q-25 12 -25 37z" />
    <glyph glyph-name="wgrave" unicode="&#x1e81;" horiz-adv-x="811" 
d="M31 461q-8 29 6.5 50.5t42.5 21.5q42 0 53 -44l92 -376q1 -4 5 -4t5 4l86 345q9 36 32 55.5t53 19.5q31 0 53.5 -19.5t31.5 -55.5l86 -345q1 -4 5 -4t5 4l92 375q5 20 19 32.5t33 12.5q29 0 43.5 -21.5t6.5 -50.5l-106 -394q-20 -77 -90 -77q-71 0 -90 77l-84 332
q-1 4 -5 4q-5 0 -5 -4l-86 -331q-20 -78 -89 -78q-32 0 -56 19t-34 57zM264 702q0 18 12.5 31t29.5 13q13 0 22 -6l136 -70q24 -13 24 -38q0 -17 -12.5 -30t-29.5 -13q-8 0 -22 6l-135 70q-25 13 -25 37z" />
    <glyph glyph-name="Wacute" unicode="&#x1e82;" horiz-adv-x="952" 
d="M32 638q-5 21 5 40.5t32 25.5t42 -5.5t25 -32.5l110 -568q1 -2 3 -2t3 2l129 527q9 39 34 59.5t56 20.5q29 0 54.5 -21t34.5 -59l129 -527q1 -3 3 -3t3 3l111 563q5 25 25 37t43 6t32.5 -25.5t4.5 -40.5l-132 -572q-8 -36 -32.5 -56.5t-54.5 -20.5t-55 20.5t-34 55.5
l-130 523q-1 2 -2.5 2t-2.5 -2l-130 -522q-9 -36 -33.5 -56.5t-55.5 -20.5q-32 0 -57.5 20.5t-33.5 57.5zM386 795q0 25 25 38l135 70q10 6 22 6q17 0 29.5 -13t12.5 -31q0 -24 -24 -37l-136 -70q-14 -6 -22 -6q-17 0 -29.5 13t-12.5 30z" />
    <glyph glyph-name="wacute" unicode="&#x1e83;" horiz-adv-x="811" 
d="M31 461q-8 29 6.5 50.5t42.5 21.5q42 0 53 -44l92 -376q1 -4 5 -4t5 4l86 345q9 36 32 55.5t53 19.5q31 0 53.5 -19.5t31.5 -55.5l86 -345q1 -4 5 -4t5 4l92 375q5 20 19 32.5t33 12.5q29 0 43.5 -21.5t6.5 -50.5l-106 -394q-20 -77 -90 -77q-71 0 -90 77l-84 332
q-1 4 -5 4q-5 0 -5 -4l-86 -331q-20 -78 -89 -78q-32 0 -56 19t-34 57zM304 632q0 26 25 38l135 70q10 6 22 6q17 0 29.5 -13t12.5 -31q0 -24 -24 -37l-136 -70q-14 -6 -22 -6q-17 0 -29.5 13t-12.5 30z" />
    <glyph glyph-name="Wdieresis" unicode="&#x1e84;" horiz-adv-x="952" 
d="M32 638q-5 21 5 40.5t32 25.5t42 -5.5t25 -32.5l110 -568q1 -2 3 -2t3 2l129 527q9 39 34 59.5t56 20.5q29 0 54.5 -21t34.5 -59l129 -527q1 -3 3 -3t3 3l111 563q5 25 25 37t43 6t32.5 -25.5t4.5 -40.5l-132 -572q-8 -36 -32.5 -56.5t-54.5 -20.5t-55 20.5t-34 55.5
l-130 523q-1 2 -2.5 2t-2.5 -2l-130 -522q-9 -36 -33.5 -56.5t-55.5 -20.5q-32 0 -57.5 20.5t-33.5 57.5zM338 813q0 23 15.5 38.5t38.5 15.5q22 0 38 -15.5t16 -38.5t-15.5 -39t-38.5 -16t-38.5 16t-15.5 39zM506 813q0 23 16 38.5t38 15.5q23 0 38.5 -15.5t15.5 -38.5
t-15.5 -39t-38.5 -16t-38.5 16t-15.5 39z" />
    <glyph glyph-name="wdieresis" unicode="&#x1e85;" horiz-adv-x="811" 
d="M31 461q-8 29 6.5 50.5t42.5 21.5q42 0 53 -44l92 -376q1 -4 5 -4t5 4l86 345q9 36 32 55.5t53 19.5q31 0 53.5 -19.5t31.5 -55.5l86 -345q1 -4 5 -4t5 4l92 375q5 20 19 32.5t33 12.5q29 0 43.5 -21.5t6.5 -50.5l-106 -394q-20 -77 -90 -77q-71 0 -90 77l-84 332
q-1 4 -5 4q-5 0 -5 -4l-86 -331q-20 -78 -89 -78q-32 0 -56 19t-34 57zM267 652q0 23 15.5 38.5t38.5 15.5t38.5 -16t15.5 -38q0 -23 -15.5 -39t-38.5 -16t-38.5 16t-15.5 39zM435 652q0 22 15.5 38t38.5 16t38.5 -15.5t15.5 -38.5t-15.5 -39t-38.5 -16t-38.5 16t-15.5 39z
" />
    <glyph glyph-name="Ygrave" unicode="&#x1ef2;" horiz-adv-x="653" 
d="M14 656.5q2 22.5 19 36.5q17 15 40.5 12.5t37.5 -19.5l215 -270l216 269q14 18 37 20.5t40 -11.5t19.5 -37t-12.5 -41l-219 -267q-2 -3 -6.5 -8t-6 -7.5t-4.5 -6.5t-4.5 -7t-3 -7.5t-2 -9.5t-0.5 -11v-241q0 -23 -15.5 -39t-38.5 -16q-22 0 -38 16.5t-16 38.5v241
q0 7 -1.5 13t-2 9.5t-4.5 9.5l-5 8q-1 1 -7.5 9t-7.5 9l-217 266q-15 18 -13 40.5zM170 865q0 18 12.5 31t29.5 13q13 0 22 -6l136 -70q24 -13 24 -38q0 -17 -12.5 -30t-29.5 -13q-8 0 -22 6l-135 70q-25 12 -25 37z" />
    <glyph glyph-name="ygrave" unicode="&#x1ef3;" horiz-adv-x="524" 
d="M25 455q-12 29 4.5 53t43.5 24q40 0 54 -40l135 -323q2 -3 4 -3q4 0 5 3l124 321q15 42 54 42q30 0 46 -24.5t4 -52.5l-188 -447q-28 -68 -65.5 -117.5t-70.5 -70.5q-23 -15 -45 -15q-21 0 -35.5 14t-14.5 36q0 28 22 43q68 42 105 138zM112 701q0 18 12.5 31t29.5 13
q13 0 22 -6l136 -70q24 -13 24 -38q0 -17 -12.5 -30t-29.5 -13q-8 0 -22 6l-135 70q-25 12 -25 37z" />
    <glyph glyph-name="endash" unicode="&#x2013;" horiz-adv-x="590" 
d="M50 287q0 22 16 37.5t38 15.5h382q23 0 38.5 -15.5t15.5 -37.5t-16 -37.5t-38 -15.5h-382q-23 0 -38.5 15.5t-15.5 37.5z" />
    <glyph glyph-name="emdash" unicode="&#x2014;" horiz-adv-x="954" 
d="M50 287q0 22 16 37.5t38 15.5h746q23 0 38.5 -15.5t15.5 -37.5t-16 -37.5t-38 -15.5h-746q-23 0 -38.5 15.5t-15.5 37.5z" />
    <glyph glyph-name="quoteleft" unicode="&#x2018;" horiz-adv-x="223" 
d="M52 511v46q0 66 29 115q18 31 50 31q19 0 32.5 -13t13.5 -31q0 -10 -13 -38t-13 -60v-50q0 -20 -14.5 -34.5t-35.5 -14.5q-20 0 -34.5 14.5t-14.5 34.5z" />
    <glyph glyph-name="quoteright" unicode="&#x2019;" horiz-adv-x="223" 
d="M50 510q0 10 13.5 38t13.5 60v50q0 20 14 34.5t35 14.5q20 0 34.5 -14.5t14.5 -34.5v-46q0 -66 -28 -115q-20 -31 -50 -31q-20 0 -33.5 13t-13.5 31z" />
    <glyph glyph-name="quotesinglbase" unicode="&#x201a;" horiz-adv-x="223" 
d="M40 -59q0 10 13 38t13 60v50q0 20 14.5 34.5t35.5 14.5q20 0 34.5 -14.5t14.5 -34.5v-46q0 -66 -29 -115q-18 -31 -50 -31q-19 0 -32.5 13t-13.5 31z" />
    <glyph glyph-name="quotedblleft" unicode="&#x201c;" horiz-adv-x="391" 
d="M59 511v46q0 66 28 115q20 31 50 31q20 0 33.5 -13t13.5 -31q0 -10 -13.5 -38t-13.5 -60v-50q0 -20 -14 -34.5t-35 -14.5q-20 0 -34.5 14.5t-14.5 34.5zM214 511v46q0 66 29 115q18 31 50 31q19 0 32.5 -13t13.5 -31q0 -10 -13 -38t-13 -60v-50q0 -20 -14.5 -34.5
t-35.5 -14.5q-20 0 -34.5 14.5t-14.5 34.5z" />
    <glyph glyph-name="quotedblright" unicode="&#x201d;" horiz-adv-x="391" 
d="M57 510q0 10 13 38t13 60v50q0 20 14.5 34.5t34.5 14.5q21 0 35.5 -14.5t14.5 -34.5v-46q0 -66 -29 -115q-18 -31 -50 -31q-19 0 -32.5 13t-13.5 31zM212 510q0 10 13.5 38t13.5 60v50q0 20 14 34.5t35 14.5q20 0 34.5 -14.5t14.5 -34.5v-46q0 -66 -28 -115
q-20 -31 -50 -31q-20 0 -33.5 13t-13.5 31z" />
    <glyph glyph-name="quotedblbase" unicode="&#x201e;" horiz-adv-x="391" 
d="M57 -59q0 10 13 38t13 60v50q0 20 14.5 34.5t34.5 14.5q21 0 35 -14.5t14 -34.5v-46q0 -68 -28 -115q-18 -31 -50 -31q-20 0 -33 13t-13 31zM212 -59q0 10 13.5 38t13.5 60v50q0 20 14 34.5t35 14.5q20 0 34.5 -14.5t14.5 -34.5v-46q0 -66 -28 -115q-20 -31 -50 -31
q-20 0 -33.5 13t-13.5 31z" />
    <glyph glyph-name="dagger" unicode="&#x2020;" horiz-adv-x="536" 
d="M26 449q0 22 16 37.5t39 15.5h134v153q0 22 15.5 38t37.5 16t37.5 -16t15.5 -38v-153h134q22 0 38 -15.5t16 -37.5t-16 -37.5t-38 -15.5h-134v-482q0 -23 -15.5 -38.5t-37.5 -15.5t-37.5 16t-15.5 38v482h-134q-23 0 -39 15.5t-16 37.5z" />
    <glyph glyph-name="daggerdbl" unicode="&#x2021;" horiz-adv-x="536" 
d="M26 120q0 22 16 37.5t39 15.5h134v223h-134q-23 0 -39 15.5t-16 37.5t16 37.5t39 15.5h134v153q0 22 15.5 38t37.5 16t37.5 -16t15.5 -38v-153h134q22 0 38 -15.5t16 -37.5t-16 -37.5t-38 -15.5h-134v-223h134q22 0 38 -15.5t16 -37.5t-15.5 -37.5t-38.5 -15.5h-134v-153
q0 -23 -15.5 -38.5t-37.5 -15.5t-37.5 15.5t-15.5 38.5v153h-134q-23 0 -39 15.5t-16 37.5z" />
    <glyph glyph-name="bullet" unicode="&#x2022;" horiz-adv-x="472" 
d="M110 350q0 52 37 89t89 37t89 -37t37 -89t-37 -89t-89 -37t-89 37t-37 89z" />
    <glyph glyph-name="ellipsis" unicode="&#x2026;" horiz-adv-x="663" 
d="M60 42v53q0 22 14 37t36 15q21 0 36 -15t15 -37v-53q0 -22 -14.5 -36.5t-36.5 -14.5q-20 0 -35 14.5t-15 36.5zM282 42v53q0 22 14 37t36 15q21 0 36 -15t15 -37v-53q0 -22 -14.5 -36.5t-36.5 -14.5q-20 0 -35 14.5t-15 36.5zM502 42v53q0 22 14 37t36 15q21 0 36 -15
t15 -37v-53q0 -22 -14.5 -36.5t-36.5 -14.5q-20 0 -35 14.5t-15 36.5z" />
    <glyph glyph-name="perthousand" unicode="&#x2030;" horiz-adv-x="1152" 
d="M35 506q-1 27 0 52q2 63 47 107t109 44q63 0 107 -44t47 -107q1 -26 0 -52q-4 -64 -48 -107.5t-106 -43.5q-64 0 -108.5 43.5t-47.5 107.5zM122 509q2 -30 21 -49t47 -19q29 0 47.5 19t20.5 49q2 22 0 46q-2 30 -20.5 49t-47.5 19q-28 0 -46.5 -19t-21.5 -49
q-2 -23 0 -46zM162.5 132.5q-1.5 21.5 10.5 34.5l381 436q12 15 33 16t34 -11q15 -12 16 -32.5t-11 -34.5l-381 -436q-12 -15 -32.5 -17t-34.5 11q-14 12 -15.5 33.5zM446 141q-1 27 0 52q2 63 47 107.5t109 44.5q63 0 107 -44t47 -108q1 -26 0 -51q-4 -64 -47.5 -108
t-106.5 -44q-64 0 -108.5 44t-47.5 107zM534 144q2 -29 20.5 -48t46.5 -19q29 0 47.5 19t20.5 49q3 21 0 46q-2 29 -20.5 48.5t-47.5 19.5q-28 0 -46.5 -19.5t-20.5 -48.5q-3 -23 0 -47zM801 141q-1 27 0 52q2 63 47 107.5t109 44.5q63 0 107 -44t47 -108q1 -26 0 -51
q-4 -64 -48 -108t-106 -44q-64 0 -108.5 44t-47.5 107zM888 144q2 -29 21 -48t47 -19q29 0 47.5 19t20.5 49q2 21 0 46q-2 29 -20.5 48.5t-47.5 19.5q-28 0 -46.5 -19.5t-21.5 -48.5q-2 -23 0 -47z" />
    <glyph glyph-name="guilsinglleft" unicode="&#x2039;" horiz-adv-x="358" 
d="M44 354q0 46 46 82l122 93q17 13 36.5 11.5t32.5 -17.5t11.5 -36.5t-17.5 -32.5l-113 -86q-9 -7 -9 -14t9 -14l113 -86q16 -12 17.5 -32.5t-11.5 -36.5t-32.5 -17.5t-36.5 11.5l-122 94q-46 36 -46 81z" />
    <glyph glyph-name="guilsinglright" unicode="&#x203a;" horiz-adv-x="358" 
d="M65.5 221.5q1.5 20.5 17.5 32.5l113 86q9 7 9 14t-9 14l-113 86q-16 12 -17.5 32.5t11.5 36.5t32.5 17.5t36.5 -11.5l122 -93q46 -36 46 -82q0 -45 -46 -81l-122 -94q-17 -13 -36.5 -11.5t-32.5 17.5t-11.5 36.5z" />
    <glyph glyph-name="fraction" unicode="&#x2044;" horiz-adv-x="300" 
d="M-30 34l265 667q9 21 28.5 28t37.5 -1q18 -7 25 -25t-1 -38l-265 -667q-8 -18 -25 -26t-39 0q-17 6 -25 25t-1 37z" />
    <glyph glyph-name="Euro" unicode="&#x20ac;" horiz-adv-x="649" 
d="M42 282q0 20 14 33.5t34 13.5h38v43h-38q-20 0 -34 13t-14 32q0 21 14 34.5t34 13.5h42q13 111 81 179.5t178 68.5q130 0 207 -80q16 -17 16 -38t-15 -36t-36 -15q-20 0 -44 22q-47 45 -128 45q-65 0 -103.5 -39.5t-47.5 -106.5h158q21 0 35 -13.5t14 -34.5
q0 -19 -14.5 -32t-34.5 -13h-164v-43h164q20 0 34.5 -13.5t14.5 -33.5q0 -19 -14.5 -32.5t-34.5 -13.5h-158q8 -67 47 -105.5t104 -38.5q46 0 73.5 9t54.5 33q23 23 44 23t36 -15.5t15 -36.5q0 -18 -16 -37q-72 -78 -207 -78q-111 0 -177.5 67t-81.5 179h-42q-20 0 -34 13.5
t-14 32.5z" />
    <glyph glyph-name="trademark" unicode="&#x2122;" horiz-adv-x="662" 
d="M49 661q0 13 8.5 21t19.5 8h177q12 0 20 -8t8 -21q0 -11 -8.5 -19t-19.5 -8h-59v-180q0 -12 -8.5 -20t-20.5 -8q-13 0 -21 8t-8 20v180h-60q-11 0 -19.5 8t-8.5 19zM279 462l31 189q8 42 47 42q35 0 45 -37l38 -157l40 158q4 16 16.5 26t28.5 10q39 0 46 -42l31 -189
q5 -31 -20 -37q-14 -4 -24 3.5t-12 21.5l-25 170l-41 -158q-8 -36 -40 -36q-30 0 -39 36l-41 158l-25 -170q-2 -13 -12 -20.5t-24 -4.5q-26 5 -20 37z" />
    <glyph glyph-name="minus" unicode="&#x2212;" horiz-adv-x="628" 
d="M60 350q0 22 15 36.5t37 14.5h404q22 0 37 -14.5t15 -36.5q0 -21 -15.5 -36t-36.5 -15h-404q-22 0 -37 15t-15 36z" />
    <glyph glyph-name="lessequal" unicode="&#x2264;" horiz-adv-x="628" 
d="M111 45q0 22 15 36.5t37 14.5h302q22 0 37 -14.5t15 -36.5q0 -21 -15.5 -36t-36.5 -15h-302q-22 0 -37 15t-15 36zM112 388q0 53 55 84l270 156q19 11 38.5 6t30.5 -23q11 -19 5.5 -40t-22.5 -31l-242 -137q-12 -7 -12 -15t12 -15l242 -137q17 -11 22.5 -32t-5.5 -39
q-10 -19 -30 -24t-39 6l-270 156q-55 33 -55 85z" />
    <glyph glyph-name="greaterequal" unicode="&#x2265;" horiz-adv-x="628" 
d="M111 45q0 22 15 36.5t37 14.5h302q22 0 37 -14.5t15 -36.5q0 -21 -15 -36t-37 -15h-302q-21 0 -36.5 15t-15.5 36zM115.5 204.5q5.5 21.5 23.5 31.5l242 137q12 7 12 15t-12 15l-242 137q-18 10 -23.5 31t5.5 40q11 18 31 23t39 -6l270 -156q54 -31 54 -84t-54 -85
l-270 -156q-19 -11 -39 -6t-31 24q-11 18 -5.5 39.5z" />
    <glyph glyph-name="uniE000" unicode="&#xe000;" horiz-adv-x="530" 
d="M0 530h530v-530h-530v530z" />
    <glyph glyph-name="Q.alt" horiz-adv-x="734" 
d="M65 271q-6 81 0 160q10 120 94.5 201t206.5 81t208 -81.5t95 -200.5q6 -80 0 -160q-8 -106 -77 -183t-172 -94v-104q0 -23 -15 -38.5t-38 -15.5q-21 0 -37 16t-16 38v103q-104 17 -172.5 94t-76.5 184zM173 280q5 -68 43 -117t98 -65v113q0 23 15.5 38.5t37.5 15.5
t37.5 -16t15.5 -38v-112q59 16 97.5 65t44.5 116q6 72 0 143q-7 82 -61.5 135t-134.5 53q-79 0 -132.5 -53t-60.5 -135q-6 -71 0 -143z" />
    <glyph glyph-name="r.alt" horiz-adv-x="384" 
d="M76 52v396q0 20 16 34q26 23 69 40t92 17q39 0 79 -10q41 -11 41 -51q0 -19 -13.5 -34.5t-39.5 -15.5q-9 0 -29.5 4.5t-34.5 4.5q-47 0 -75 -21v-364q0 -23 -15 -38.5t-37 -15.5t-37.5 16t-15.5 38z" />
    <glyph glyph-name="zero.onum" horiz-adv-x="630" 
d="M58 202q-10 61 0 128q14 96 84.5 153t172.5 57t172.5 -58t84.5 -157q10 -60 0 -127q-14 -96 -84.5 -153.5t-172.5 -57.5q-103 0 -173 58t-84 157zM159 225q7 -66 49 -102.5t107 -36.5t107 36.5t49 102.5q4 39 0 77q-8 67 -49.5 103t-106.5 36t-107 -36t-49 -103
q-4 -42 0 -77z" />
    <glyph glyph-name="one.onum" horiz-adv-x="483" 
d="M51.5 423q8.5 21 31.5 30l182 74q15 6 30 6q23 0 38 -17t15 -38v-428q0 -23 -15.5 -38.5t-37.5 -15.5t-37.5 16t-15.5 38v356l-119 -49q-22 -9 -42 -2t-29 27t-0.5 41z" />
    <glyph glyph-name="two.onum" horiz-adv-x="597" 
d="M55 75q-1 66 45 112t134 79q123 44 146 60q27 18 27 46q0 30 -27.5 49.5t-88.5 19.5q-43 0 -80 -16t-59 -39q-21 -21 -44 -21q-22 0 -35 12.5t-13 32.5q0 26 27 53q80 74 204 74q112 0 169 -47t57 -121q0 -60 -43.5 -99.5t-142.5 -72.5q-92 -31 -128.5 -49.5t-36.5 -44.5
h311q21 0 36.5 -15.5t15.5 -35.5q0 -22 -15 -37t-37 -15h-351q-32 0 -51.5 19.5t-19.5 55.5z" />
    <glyph glyph-name="three.onum" horiz-adv-x="599" 
d="M39 468q0 22 15.5 37.5t38.5 15.5h316q31 0 52.5 -18.5t21.5 -47.5q0 -28 -19 -49l-138 -143q85 0 139.5 -52t54.5 -133q0 -129 -118.5 -198.5t-308.5 -61.5q-23 1 -37.5 15t-15.5 35q-2 24 15.5 40.5t44.5 14.5q137 -9 225.5 31.5t88.5 121.5q0 47 -31.5 74.5
t-84.5 27.5q-20 0 -46 -5.5t-33 -5.5q-20 0 -35 14t-15 35q0 22 18 39l155 160h-249q-22 0 -38 15.5t-16 37.5z" />
    <glyph glyph-name="four.onum" horiz-adv-x="669" 
d="M71 89q3 23 19 44l245 327q48 64 93 64q78 0 78 -111v-307h84q22 0 37 -15.5t15 -37.5q0 -21 -15.5 -37t-36.5 -16h-84v-144q0 -22 -15.5 -38t-37.5 -16t-37.5 15.5t-15.5 38.5v144h-249q-40 0 -62.5 26.5t-17.5 62.5zM190 106h210v284z" />
    <glyph glyph-name="five.onum" horiz-adv-x="614" 
d="M70 -147q-1 26 14.5 40.5t39.5 14.5q152 0 238.5 41.5t86.5 126.5q0 46 -34 75t-89 29q-61 0 -152 -41q-39 -15 -62 1.5t-23 48.5v254q0 40 23 59t57 19h293q23 0 38 -14.5t15 -36.5t-16 -37.5t-37 -15.5h-271v-174q74 36 148 36q99 0 157 -56t58 -143
q0 -133 -116.5 -205t-312.5 -72q-23 0 -38.5 14t-16.5 36z" />
    <glyph glyph-name="six.onum" horiz-adv-x="675" 
d="M81 365q9 167 95 257.5t237 90.5q53 0 101 -10q45 -10 45 -51q0 -22 -14 -36t-39 -14q-4 0 -36.5 4.5t-64.5 4.5q-81 0 -140.5 -52t-71.5 -144q82 39 172 39q112 0 177 -60.5t65 -160.5q0 -104 -68 -173.5t-192 -69.5q-78 0 -133 28.5t-85 80.5t-41.5 118t-6.5 148z
M186 311q-4 -107 38.5 -163t125.5 -56q74 0 112 38.5t38 99.5t-39.5 93t-110.5 32q-80 0 -164 -44z" />
    <glyph glyph-name="seven.onum" horiz-adv-x="535" 
d="M30 470q0 23 15.5 37t38.5 14h360q32 0 52 -18.5t20 -48.5q0 -20 -14 -44q-131 -210 -190 -327t-88 -238q-7 -30 -33.5 -39t-44.5 4q-34 19 -21 67q30 112 90 233t173 309h-304q-23 0 -38.5 14.5t-15.5 36.5z" />
    <glyph glyph-name="eight.onum" horiz-adv-x="688" 
d="M74 194q0 65 31.5 108.5t86.5 63.5q-102 36 -102 153q0 90 66.5 140t186.5 50t187 -50t67 -137q0 -110 -100 -155q55 -20 86.5 -64t31.5 -109q0 -92 -70.5 -147.5t-200.5 -55.5t-200 55.5t-70 147.5zM181 200q0 -50 40 -80.5t122 -30.5q83 0 124.5 31t41.5 80
q0 51 -44.5 82.5t-123.5 31.5t-119.5 -31t-40.5 -83zM196 516q0 -48 39.5 -75t108.5 -27t108 27.5t39 75.5q0 45 -36.5 71t-110.5 26t-111 -26.5t-37 -71.5z" />
    <glyph glyph-name="nine.onum" horiz-adv-x="671" 
d="M69 313q0 106 68 174t190 68q279 0 264 -355q-8 -195 -109.5 -278t-313.5 -83q-25 0 -41 14t-16 38q0 21 14.5 37.5t39.5 16.5q49 0 83.5 2.5t76 12.5t69.5 28.5t50.5 52.5t31.5 81q-83 -36 -163 -36q-114 0 -179 62t-65 165zM175 315q0 -62 37.5 -95.5t107.5 -33.5
q34 0 65.5 6.5t50 14t49.5 22.5q3 114 -33 168t-126 54q-75 0 -113 -36.5t-38 -99.5z" />
    <glyph glyph-name="sterling.alt" horiz-adv-x="586" 
d="M49 333q0 22 15.5 36t38.5 14h62q8 33 18 85q25 126 79.5 183.5t146.5 57.5q75 0 118 -40q29 -25 9 -61q-24 -40 -71 -17q-30 14 -63 14q-44 0 -70.5 -32.5t-43.5 -117.5l-16 -72h141q22 0 37.5 -14t15.5 -36t-15.5 -35.5t-37.5 -13.5h-167q-25 -93 -54 -156q-1 -2 -2 -5
t-2 -5t-1 -4q0 -8 12 -8h297q21 0 37 -16t16 -38t-15.5 -37t-38.5 -15h-316q-44 0 -73.5 24t-29.5 62q0 13 3 26.5t6 21t11 25.5t11 24q21 49 34 101h-38q-23 0 -38.5 14t-15.5 35z" />
    <glyph glyph-name="commaaccent" horiz-adv-x="382" 
d="M135 -216q0 9 13.5 39t13.5 56v47q0 19 11 31.5t31 12.5q18 0 29.5 -12.5t11.5 -31.5v-44q0 -57 -28 -108q-17 -27 -42 -27q-17 0 -28.5 11t-11.5 26z" />
    <glyph glyph-name="caronSlovak" horiz-adv-x="382" 
d="M131 592q0 10 14 38t14 55v27q0 21 12.5 34.5t33.5 13.5t33.5 -13.5t12.5 -34.5v-23q0 -57 -30 -108q-17 -30 -46 -30q-19 0 -31.5 12t-12.5 29z" />
    </font>
</defs>
</svg>
